<svg xmlns="http://www.w3.org/2000/svg" data-name="Layer 1" viewBox="0 0 700 550"><path fill="#edf2fa" d="M196.42334,433.5551c-34.436-25.88-66.624-75.532-54.988-114.896,9.877-33.413,43.504-33.179,53.294-68.199,11.411-40.82-27.898-63.957-23.965-96.9,9.584-80.27,266.514-140.193,299.036-83.356,23.028,40.247-79.308,116.586-51.055,166.71,25.219,44.744,120.67794,8.611,147.95394,55.223,22.733,38.846-13.577,115.185-67.441,148.896-28.776,18.008-67.248,16.925-143.006,17.758-83.405.916-125.807.331-159.829-25.236"/><path fill="#e4ebf1" d="M129.30324 431.4946c3.86 0 3.867-6 0-6-3.861 0-3.867 6 0 6M551.07173 496.5346c-.08905 8.243-89.739 13.956-200.238 12.761-110.5-1.196-200.005-8.847-199.916-17.09.09-8.243 89.739-13.956 200.238-12.761 110.5 1.195 200.005 8.847 199.916 17.09"/><rect width="69.48" height="65.88" x="457.527" y="429.697" fill="#f15b43"/><rect width="69.48" height="12.6" x="457.526" y="434.377" fill="#cf2633"/><rect width="69.479" height="3" x="457.526" y="463.117" fill="#ffcc5d"/><rect width="3" height="65.881" x="490.767" y="429.697" fill="#ffcc5d"/><path fill="#ffcc5d" d="M491.64258,430.81152a8.69041,8.69041,0,0,1-2.88574-.89843,33.814,33.814,0,0,0-7.12891-2.28418,23.76286,23.76286,0,0,0-7.18848-.52637,21.72255,21.72255,0,0,0-3.49414.63476,7.34679,7.34679,0,0,1-4.35937.1377,8.56169,8.56169,0,0,1-1.59766-.67773,7.66835,7.66835,0,0,1-2.61133,1.11816,6.37534,6.37534,0,0,1-4.86328-.999,1,1,0,0,1,1.14649-1.63868,4.34231,4.34231,0,0,0,3.29589.68262,5.77872,5.77872,0,0,0,1.24122-.43457c-1.24219-1.13183-2.01563-2.52637-1.69922-3.75683a2.69726,2.69726,0,0,1,2.65918-1.91993,2.55054,2.55054,0,0,1,1.76465.9834,4.33639,4.33639,0,0,1,.959,3.09082,3.44425,3.44425,0,0,1-.44531,1.36524,6.47014,6.47014,0,0,0,.73144.27246,5.38031,5.38031,0,0,0,3.2959-.16406,23.77694,23.77694,0,0,1,3.79-.68653,22.24617,22.24617,0,0,1,4.49805.03613,10.26027,10.26027,0,0,1-2.40821-2.12011c-2.68261-3.50489-3.48242-5.89746-2.44433-7.31836,1.209-1.65528,4.18164-1.00293,6.3125-.36914,5.97754,1.77832,9.17578,6.78613,11.08691,9.77832,1.40625,2.20312,2.51856,3.94531,1.5625,5.11914-.01269.01562-.02539.03027-.03808.04492A1.46524,1.46524,0,0,1,491.64258,430.81152Zm-15.165-14.15625c-.7793,0-.95215.2168-.96387.23243-.00683.00878-.57617,1.01269,2.416,4.92089,1.16992,1.52735,5.23437,4.0625,12.89746,6.39844-.35352-.66406-.87305-1.47851-1.21387-2.01269-1.876-2.93653-4.709-7.37207-9.97168-8.93848A11.71273,11.71273,0,0,0,476.47754,416.65527Zm-12.47461,5.58887a.74007.74007,0,0,0-.56738.42285c-.09864.38379.4082,1.20117,1.2998,1.95508a1.45809,1.45809,0,0,0,.15723-.51074,2.34173,2.34173,0,0,0-.50293-1.59278.682.682,0,0,0-.37207-.27343Z"/><path fill="#ffcc5d" d="M492.89063,430.81055a1.46778,1.46778,0,0,1-1.17872-.52735c-.01269-.01465-.02636-.02929-.03808-.04492-.96-1.17187.15234-2.915,1.55957-5.12012,1.91211-2.99316,5.11035-8.001,11.08691-9.77832,2.13282-.63574,5.10449-1.28711,6.31348.36817,1.03809,1.4209.23828,3.81347-2.44336,7.3164a10.23665,10.23665,0,0,1-2.41016,2.12207,22.39344,22.39344,0,0,1,4.49805-.03613,23.77117,23.77117,0,0,1,3.791.68653,5.398,5.398,0,0,0,3.29687.16406,6.38572,6.38572,0,0,0,.73047-.27246,3.43973,3.43973,0,0,1-.44531-1.36426,4.33362,4.33362,0,0,1,.959-3.09082,2.54829,2.54829,0,0,1,1.76758-.98438,2.73429,2.73429,0,0,1,2.65625,1.91993c.31641,1.23046-.457,2.625-1.69922,3.75683a5.78531,5.78531,0,0,0,1.24219.43457,4.35117,4.35117,0,0,0,3.29785-.68359.99964.99964,0,1,1,1.14258,1.64062,6.40584,6.40584,0,0,1-4.86133.998,7.66442,7.66442,0,0,1-2.6123-1.11816,8.59165,8.59165,0,0,1-1.59668.67773,7.35085,7.35085,0,0,1-4.36036-.1377,21.71631,21.71631,0,0,0-3.49511-.63476,23.751,23.751,0,0,0-7.18555.52637,33.799,33.799,0,0,0-7.13086,2.28418A8.6738,8.6738,0,0,1,492.89063,430.81055Zm15.16406-14.15528a11.69036,11.69036,0,0,0-3.16211.60059c-5.26465,1.56641-8.09766,6.002-9.97266,8.9375-.34179.53516-.86133,1.34961-1.21484,2.01367,7.66308-2.33594,11.72754-4.87109,12.89648-6.39746,2.99317-3.90918,2.42383-4.91309,2.417-4.92187C509.00684,416.87207,508.833,416.65527,508.05469,416.65527Zm12.47656,5.58887h-.01465a.6904.6904,0,0,0-.374.27441,2.34268,2.34268,0,0,0-.50293,1.59375,1.453,1.453,0,0,0,.15723.50977c.89062-.75293,1.39843-1.57129,1.2998-1.95508A.74021.74021,0,0,0,520.53125,422.24414Z"/><rect width="2.971" height="4.68" x="490.781" y="442.297" fill="#f39821"/><rect width="1.63" height="3.083" x="489.151" y="463.057" fill="#f39821"/><rect width="1.63" height="3.083" x="509.011" y="463.057" fill="#f39821"/><rect width="3" height="65.881" x="510.661" y="429.697" fill="#ffcc5d"/><rect width="2.97" height="4.68" x="510.676" y="442.297" fill="#f39821"/><rect width="75.926" height="12.6" x="454.303" y="429.697" fill="#ffcc5d"/><rect width="69.48" height="65.88" x="199.612" y="428.268" fill="#f15b43"/><rect width="69.48" height="12.6" x="199.613" y="432.948" fill="#cf2633"/><rect width="69.479" height="3" x="199.613" y="461.688" fill="#ffcc5d"/><rect width="3" height="65.881" x="232.854" y="428.268" fill="#ffcc5d"/><path fill="#ffcc5d" d="M233.73047,429.38184a8.67385,8.67385,0,0,1-2.88477-.89746,33.74185,33.74185,0,0,0-7.13086-2.28418,23.73227,23.73227,0,0,0-7.18847-.52637,21.70753,21.70753,0,0,0-3.49317.63476,7.3532,7.3532,0,0,1-4.36035.13672,8.534,8.534,0,0,1-1.59765-.67773,7.649,7.649,0,0,1-2.61329,1.11816,6.382,6.382,0,0,1-4.86035-.998.99964.99964,0,0,1,1.14258-1.64063,4.34159,4.34159,0,0,0,3.29785.68359,5.71879,5.71879,0,0,0,1.24121-.43359c-1.24218-1.13281-2.01562-2.52734-1.69824-3.75879a2.70671,2.70671,0,0,1,2.65625-1.91894,2.55184,2.55184,0,0,1,1.76758.98437,4.33914,4.33914,0,0,1,.959,3.08887,3.44368,3.44368,0,0,1-.44531,1.36621,6.22113,6.22113,0,0,0,.73145.27246,5.40508,5.40508,0,0,0,3.29687-.16309,23.76149,23.76149,0,0,1,3.78906-.68652,22.53569,22.53569,0,0,1,4.498.03516,10.23979,10.23979,0,0,1-2.4082-2.12012c-2.68653-3.5-3.48633-5.89355-2.44531-7.31836,1.21-1.65137,4.17871-1.001,6.30664-.37109,5.98632,1.78222,9.18359,6.79,11.09375,9.78222,1.40625,2.20118,2.51855,3.94336,1.5625,5.11817-.0127.01562-.02539.03125-.03907.04687A1.46878,1.46878,0,0,1,233.73047,429.38184Zm-15.168-14.1543c-.77832,0-.95215.21484-.96387.23144-.00586.00782-.5791,1.01661,2.418,4.91993,1.16895,1.52636,5.23242,4.06152,12.89746,6.39941-.35351-.66406-.873-1.47754-1.21484-2.01269-1.874-2.93555-4.70606-7.37208-9.9707-8.93946A11.74107,11.74107,0,0,0,218.5625,415.22754Zm-12.47363,5.58691a.74268.74268,0,0,0-.56641.42188c-.09961.38476.4082,1.20312,1.29981,1.957a1.46333,1.46333,0,0,0,.15722-.51172,2.34262,2.34262,0,0,0-.50293-1.5918.68458.68458,0,0,0-.373-.27441Z"/><path fill="#ffcc5d" d="M234.97559,429.38086a1.46508,1.46508,0,0,1-1.17676-.52539c-.01465-.01563-.02832-.03223-.042-.04981-.95313-1.17578.1582-2.917,1.56347-5.11621,1.91211-2.99316,5.11035-8.001,11.08692-9.77929,2.13672-.63379,5.10449-1.28223,6.31347.36718,1.03907,1.42383.23926,3.81739-2.44433,7.31934a10.24742,10.24742,0,0,1-2.40918,2.12012,22.321,22.321,0,0,1,4.498-.03516,23.75551,23.75551,0,0,1,3.79.68652,5.40746,5.40746,0,0,0,3.29786.16309,6.43534,6.43534,0,0,0,.72949-.27148,3.45871,3.45871,0,0,1-.44434-1.36524,4.3349,4.3349,0,0,1,.958-3.08984,2.54957,2.54957,0,0,1,1.76758-.98535,2.71225,2.71225,0,0,1,2.65722,1.91992c.31641,1.23144-.457,2.626-1.69921,3.75781a5.77158,5.77158,0,0,0,1.24121.43359,4.35612,4.35612,0,0,0,3.2998-.68457.99989.99989,0,0,1,1.14063,1.64258,6.41244,6.41244,0,0,1-4.86036.99707,7.66423,7.66423,0,0,1-2.61328-1.11719,8.60515,8.60515,0,0,1-1.5957.67676,7.35372,7.35372,0,0,1-4.36133-.13672,21.70151,21.70151,0,0,0-3.49414-.63476,23.68364,23.68364,0,0,0-7.18848.52637,33.82512,33.82512,0,0,0-7.13085,2.2832A8.663,8.663,0,0,1,234.97559,429.38086Zm15.168-14.1543a11.7075,11.7075,0,0,0-3.15917.59766c-5.26954,1.56836-8.10254,6.00488-9.97754,8.94043-.3418.53515-.86231,1.34961-1.21582,2.01367,7.66406-2.33691,11.72851-4.87305,12.89746-6.39844,2.99511-3.90722,2.42382-4.91308,2.417-4.92187C251.09375,415.44238,250.9209,415.22656,250.14355,415.22656Zm12.47266,5.58789-.01465.001a.68458.68458,0,0,0-.373.27441,2.34426,2.34426,0,0,0-.502,1.59278,1.45809,1.45809,0,0,0,.15723.51074c.8916-.75391,1.39844-1.57227,1.2998-1.95606A.74379.74379,0,0,0,262.61621,420.81445Z"/><rect width="2.97" height="4.68" x="232.868" y="440.869" fill="#f39821"/><rect width="1.63" height="3.083" x="231.238" y="461.628" fill="#f39821"/><rect width="1.631" height="3.083" x="251.097" y="461.628" fill="#f39821"/><rect width="3" height="65.881" x="252.748" y="428.268" fill="#ffcc5d"/><rect width="2.971" height="4.68" x="252.762" y="440.869" fill="#f39821"/><rect width="75.925" height="12.601" x="196.39" y="428.268" fill="#ffcc5d"/><path fill="#e4ebf1" d="M276.08156 196.15379c3.86 0 3.867-6 0-6-3.861 0-3.867 6 0 6M155.84134 284.19191c3.86 0 3.867-6 0-6-3.861 0-3.867 6 0 6M196.38984 325.533c3.86 0 3.867-6 0-6-3.86 0-3.867 6 0 6M442.526 221.9214c3.861 0 3.867-6 0-6-3.86 0-3.867 6 0 6M466.16164 351.5932c3.86 0 3.866-6 0-6-3.861 0-3.867 6 0 6M509.01125 242.3647c3.86 0 3.86694-6 0-6-3.86005 0-3.867 6 0 6M427.39894 151.17039c3.86 0 3.867-6 0-6-3.86 0-3.867 6 0 6M466.16164 431.6176c3.86 0 3.866-6 0-6-3.861 0-3.867 6 0 6"/><path fill="#fff" d="M376.44875 206.2671c5.791 0 5.801-9 0-9-5.791 0-5.801 9 0 9M263.12166 336.97511c5.791 0 5.8-9 0-9-5.792 0-5.801 9 0 9M184.28075 437.7651c5.791 0 5.801-9 0-9-5.791 0-5.8 9 0 9M231.80135 230.46531c5.791 0 5.801-9 0-9-5.791 0-5.801 9 0 9M179.93413 379.69971c5.791 0 5.801-9 0-9-5.791 0-5.801 9 0 9M208.72025 151.98579c5.791 0 5.801-9 0-9-5.791 0-5.801 9 0 9M401.23914 83.99452c5.791 0 5.801-9 0-9-5.791 0-5.801 9 0 9M345.896 137.71339c5.791 0 5.801-9 0-9-5.791 0-5.801 9 0 9M509.01046 342.93676c5.792 0 5.801-9 0-9-5.791 0-5.8 9 0 9M454.7432 282.69191c5.792 0 5.801-9 0-9-5.791 0-5.8 9 0 9M486.68123 394.05711c5.791 0 5.801-9 0-9-5.791 0-5.801 9 0 9"/><path fill="#e4ebf1" d="M530.22885,308.69557c3.86,0,3.867-6,0-6-3.86,0-3.867,6,0,6"/><rect width="32.217" height="65.261" x="320.151" y="434.439" fill="#d27c2a"/><path fill="#9f5325" d="M320.151,458.05121a11.2086,11.2086,0,0,1,4.48,8.964,11.2375,11.2375,0,0,1,22.475,0,11.21767,11.21767,0,0,1,5.263-9.505v-31.485H320.151Z"/><path fill="#82c56d" d="M448.23973,441.4594a11.23705,11.23705,0,0,0-11.237,11.237,11.23749,11.23749,0,0,0-22.475,0,11.237,11.237,0,1,0-22.474,0,11.237,11.237,0,1,0-22.474,0,11.237,11.237,0,1,0-22.474,0,11.237,11.237,0,1,0-22.474,0,11.237,11.237,0,1,0-22.474,0,11.23751,11.23751,0,0,0-22.475,0,11.2365,11.2365,0,1,0-22.473,0,11.2375,11.2375,0,0,0-22.475,0,11.237,11.237,0,0,0-11.237-11.237c-6.206,0-12.002,11.237-12.002,11.237l122.39-250.82s128.613,252.885,127.125,250.82c0-.017-6.565-11.237-12.771-11.237"/><path fill="#4da258" d="M268.064,385.603a11.237,11.237,0,0,1,11.237,11.237,11.237,11.237,0,1,1,22.474,0,11.23749,11.23749,0,0,1,22.475,0,11.23651,11.23651,0,1,1,22.473,0,11.2375,11.2375,0,0,1,22.475,0,11.2365,11.2365,0,1,1,22.473,0,11.2375,11.2375,0,0,1,22.475,0,11.23639,11.23639,0,0,1,11.237-11.237,5.74042,5.74042,0,0,1,2.016.39c-37.667-74.309-93.514-184.117-93.514-184.117L243.919,386.249c11.117-2.056,12.908,4.828,12.908,10.591a11.237,11.237,0,0,1,11.237-11.237"/><polygon fill="#0b1436" points="369.564 113.034 369.488 113.034 369.488 112.27 369.564 113.034"/><polygon fill="#0b1436" points="347.093 113.034 347.016 113.034 347.016 112.27 347.093 113.034"/><path fill="#82c56d" d="M241.19194,337.8764c13.565-3.762,15.635,3.752,15.635,9.958a11.237,11.237,0,0,1,22.474,0,11.237,11.237,0,0,1,22.474,0,11.2375,11.2375,0,0,1,22.475,0,11.2365,11.2365,0,1,1,22.473,0,11.2375,11.2375,0,0,1,22.475,0,11.237,11.237,0,1,1,22.474,0,11.237,11.237,0,0,1,22.474,0,11.23618,11.23618,0,0,1,11.236-11.237c6.206,0,11.304,11.237,11.304,11.237.015,0-101.588-206.466-101.588-206.466l-96.426,197.613-4.319,8.853s4.712-9.368,6.839-9.958"/><path fill="#4da258" d="M357.85216,288.9311a11.18326,11.18326,0,0,1,11.183,11.183,11.1825,11.1825,0,1,1,22.365,0,11.18308,11.18308,0,0,1,11.182-11.183c2.74,0,5.353,2.198,7.414,4.646-28.371-57.661-69.8-141.849-74.464-151.327l-35.844,71.689-38.774,79.46c1.982-2.309,4.602-4.468,7.476-4.468a11.18327,11.18327,0,0,1,11.183,11.183,11.18251,11.18251,0,1,1,22.365,0,11.1825,11.1825,0,1,1,22.365,0,11.1825,11.1825,0,1,1,22.365,0,11.18413,11.18413,0,0,1,11.184-11.183"/><path fill="#303443" d="M347.169,300.11426h-1a10.69529,10.69529,0,0,0-10.68262-10.6836v-1a11.70427,11.70427,0,0,1,11.18262,8.29786,11.70425,11.70425,0,0,1,11.18261-8.29786v1A10.69528,10.69528,0,0,0,347.169,300.11426Z"/><path fill="#82c56d" d="M414.29835,261.0102c.931,1.29-78.326-158.745-78.326-158.745l-78.765,157.531s5.006-9.969,11.183-9.969a11.18238,11.18238,0,0,1,11.182,11.183,11.183,11.183,0,0,1,22.366,0,11.1825,11.1825,0,1,1,22.365,0,11.183,11.183,0,0,1,22.366,0,11.1825,11.1825,0,1,1,22.365,0,11.183,11.183,0,0,1,22.366,0,11.18239,11.18239,0,0,1,11.182-11.183c6.176,0,11.716,11.172,11.716,11.183"/><path fill="#4da258" d="M380.76225,195.36772a4.66823,4.66823,0,0,1,1.394.254c-21.618-43.753-46.183-93.357-46.183-93.357l-46.666,93.332a5.78293,5.78293,0,0,1,1.558-.229,11.23036,11.23036,0,0,1,11.197,10.356c.023.291.039.582.039.88,0-.298.015-.589.038-.88a11.23168,11.23168,0,0,1,22.395,0c.024.291.04.582.04.88,0-.298.014-.589.038-.88a11.236,11.236,0,0,1,22.403,0c.023.291.038.582.038.88,0-.298.016-.589.038-.88a11.23277,11.23277,0,0,1,22.397,0c.023.291.038.582.038.88,0-.298.015-.589.038-.88a11.23132,11.23132,0,0,1,11.198-10.356"/><path fill="#82c56d" d="M391.479,178.9839c-.353-1.117-6.937-7.848-10.717-7.848a11.23141,11.23141,0,0,0-11.198,10.357c-.022.29-.038.581-.038.879,0-.298-.015-.589-.038-.879a11.23214,11.23214,0,0,0-22.396,0c-.023.29-.039.581-.039.879,0-.298-.014-.589-.038-.879a11.23592,11.23592,0,0,0-22.403,0c-.024.29-.038.581-.038.879,0-.298-.016-.589-.039-.879a11.23215,11.23215,0,0,0-22.396,0c-.023.29-.038.581-.038.879,0-.298-.016-.589-.039-.879a11.22976,11.22976,0,0,0-11.197-10.357c-5.906,0-12.132,10.357-12.132,10.357l57-114,54.193,108.378c.007,0,.007.008.007.015Z"/><path fill="#82c56d" d="M391.479,178.9839c-.353-1.117-6.937-7.848-10.717-7.848a11.23141,11.23141,0,0,0-11.198,10.357c-.022.29-.038.581-.038.879,0-.298-.015-.589-.038-.879a11.23214,11.23214,0,0,0-22.396,0c-.023.29-.039.581-.039.879,0-.298-.014-.589-.038-.879a11.23592,11.23592,0,0,0-22.403,0c-.024.29-.038.581-.038.879,0-.298-.016-.589-.039-.879a11.23215,11.23215,0,0,0-22.396,0c-.023.29-.038.581-.038.879,0-.298-.016-.589-.039-.879a11.22976,11.22976,0,0,0-11.197-10.357c-5.906,0-12.132,10.357-12.132,10.357l57-114,54.193,108.378c.007,0,.007.008.007.015Z"/><path fill="#303443" d="M325.07422,182.37109h-1c0-.28369-.01563-.563-.03711-.84033a10.772,10.772,0,0,0-10.69922-9.89453v-1a11.79559,11.79559,0,0,1,11.23535,8.35449,11.801,11.801,0,0,1,11.24414-8.35449v1a10.77212,10.77212,0,0,0-10.70605,9.894C325.08691,181.81055,325.07422,182.08838,325.07422,182.37109Z"/><path fill="#4da258" d="M437.00246 452.69671a11.23639 11.23639 0 0111.237-11.237c6.206 0 12.771 11.219 12.771 11.237.79 1.096-35.074-69.637-68.904-136.255-.177 24.729-1.237 49.324-4.618 53.745 0 0-1.779 25.89 27.809 78.447a11.23182 11.23182 0 0121.705 4.063M436.24373 346.93211c.291.593.443.902.442.902 0 0-.156-.343-.442-.902"/><path fill="#4da258" d="M436.24373,346.93211c-4.193-8.536-37.458-76.141-64.714-131.528a116.01968,116.01968,0,0,0,19.87,45.606s1.684,51.741-.046,84.212a11.19282,11.19282,0,0,1,.318,2.612,11.237,11.237,0,0,1,22.474,0,11.23724,11.23724,0,0,1,11.238-11.237c5.129,0,9.499,7.673,10.86,10.335"/><path fill="#4da258" d="M369.48784,181.49272s-4.607,34.732,15.276,69.308a11.17606,11.17606,0,0,1,6.636,10.21,11.18324,11.18324,0,0,1,11.183-11.183c6.176,0,11.716,11.172,11.716,11.183.752,1.044-51.069-103.686-70.816-143.576,6.734,28.742,26.005,64.058,26.005,64.058"/><path fill="#4da258" d="M369.564 181.49272a11.2305 11.2305 0 0111.198-10.356c3.779 0 10.364 6.73 10.717 7.847l-1.545-3.097c0-.008 0-.016-.008-.016l-53.195-106.382c1.364 3.451 3.729 12.249 4.497 32.776.835 22.335 16.647 56.34 24.245 71.482a11.187 11.187 0 014.015 7.746c.023.29.038.581.038.879 0-.298.016-.589.038-.879M302.61183 203.9712l.344-8.264h-1.53l.214 9.374c.038 1.196.059 7.019-.101 8.203-.067.495.184 1.171.652 1.171.415 0 .605-.558.559-1.044-.166-1.783-.212-7.651-.138-9.44M347.731 208.13621l.428-10.281h-1.904l.267 11.663c.047 1.487.072 8.733-.126 10.208-.083.613.23 1.456.812 1.456.515 0 .751-.695.694-1.3-.207-2.218-.264-9.519-.171-11.746"/><path fill="#82c56d" d="M302.61183 175.33149l.344-8.264h-1.53l.214 9.374c.038 1.196.059 7.019-.101 8.203-.067.494.184 1.171.652 1.171.415 0 .605-.558.559-1.044-.166-1.783-.212-7.651-.138-9.44M347.731 179.49659l.428-10.281h-1.904l.267 11.663c.047 1.487.072 8.732-.126 10.207-.083.614.23 1.457.812 1.457.515 0 .751-.695.694-1.3-.207-2.218-.264-9.519-.171-11.746M280.60994 258.06779l.428-10.281h-1.904l.267 11.663c.047 1.487.072 8.733-.126 10.207-.083.614.23 1.457.812 1.457.515 0 .751-.695.694-1.3-.207-2.218-.264-9.519-.171-11.746"/><path fill="#4da258" d="M325.02693 298.70851l.344-8.263h-1.53l.214 9.374c.037 1.195.059 7.018-.101 8.203-.067.494.184 1.17.652 1.17.415 0 .604-.558.559-1.044-.167-1.783-.212-7.651-.138-9.44M280.50734 298.70851l.344-8.263h-1.531l.215 9.374c.037 1.195.059 7.018-.101 8.203-.067.494.184 1.17.652 1.17.414 0 .604-.558.559-1.044-.167-1.783-.212-7.651-.138-9.44M370.146 302.87451l.428-10.281H368.67l.267 11.663c.046 1.487.072 8.732-.127 10.207-.082.614.231 1.456.812 1.456.516 0 .752-.694.695-1.299-.207-2.219-.264-9.52-.171-11.746M302.71535 302.87451l.428-10.281h-1.904l.266 11.663c.047 1.487.073 8.732-.126 10.207-.083.614.231 1.456.812 1.456.516 0 .752-.694.695-1.299-.207-2.219-.264-9.52-.171-11.746"/><path fill="#82c56d" d="M325.02693 258.687l.344-8.263h-1.53l.214 9.373c.037 1.196.059 7.019-.101 8.204-.067.494.184 1.17.652 1.17.415 0 .604-.558.559-1.044-.167-1.783-.212-7.651-.138-9.44M370.146 262.853l.428-10.282H368.67l.267 11.664c.046 1.487.072 8.732-.127 10.207-.082.614.231 1.456.812 1.456.516 0 .752-.694.695-1.299-.207-2.219-.264-9.52-.171-11.746M302.71535 262.853l.428-10.282h-1.904l.266 11.664c.047 1.487.073 8.732-.126 10.207-.083.614.231 1.456.812 1.456.516 0 .752-.694.695-1.299-.207-2.219-.264-9.52-.171-11.746"/><path fill="#4da258" d="M302.07964 395.4253l.345-8.263h-1.531l.214 9.374c.038 1.196.059 7.018-.101 8.203-.067.494.185 1.17.652 1.17.415 0 .605-.557.559-1.044-.166-1.783-.212-7.651-.138-9.44M369.856 395.4253l.344-8.263h-1.53l.214 9.374c.038 1.196.059 7.018-.101 8.203-.067.494.184 1.17.652 1.17.415 0 .604-.557.559-1.044-.166-1.783-.212-7.651-.138-9.44M257.56013 395.4253l.344-8.263h-1.53l.214 9.374c.038 1.196.059 7.018-.101 8.203-.067.494.184 1.17.652 1.17.415 0 .605-.557.559-1.044-.166-1.783-.212-7.651-.138-9.44M347.19875 399.59131l.428-10.281h-1.904l.267 11.663c.047 1.487.073 8.732-.126 10.207-.083.614.23 1.456.812 1.456.515 0 .751-.694.695-1.299-.207-2.219-.265-9.519-.172-11.746"/><path fill="#9f5325" d="M347.55324 460.3061l.344-8.264h-1.53l.214 9.374c.038 1.196.059 7.019-.101 8.203-.067.494.184 1.171.652 1.171.415 0 .604-.558.559-1.045-.166-1.782-.212-7.65-.138-9.439M324.896 464.4712l.428-10.281H323.42l.267 11.663c.047 1.487.073 8.732-.126 10.207-.083.614.23 1.457.812 1.457.515 0 .751-.695.695-1.3-.207-2.219-.265-9.519-.172-11.746"/><path fill="#82c56d" d="M347.55324 442.04631l.344-8.264h-1.53l.214 9.374c.038 1.196.059 7.019-.101 8.203-.067.495.184 1.171.652 1.171.415 0 .604-.558.559-1.044-.166-1.783-.212-7.651-.138-9.44M324.896 446.21141l.428-10.281H323.42l.267 11.663c.047 1.487.073 8.733-.126 10.208-.083.613.23 1.456.812 1.456.515 0 .751-.695.695-1.3-.207-2.218-.265-9.519-.172-11.746"/><path fill="#4da258" d="M279.76814,399.59131l.428-10.281h-1.904l.267,11.663c.047,1.487.072,8.732-.126,10.207-.083.614.23,1.456.812,1.456.515,0,.751-.694.694-1.299-.207-2.219-.264-9.519-.171-11.746"/><path fill="#82c56d" d="M302.07964 449.9526l.345-8.263h-1.531l.214 9.374c.038 1.196.059 7.018-.101 8.203-.067.494.185 1.17.652 1.17.415 0 .605-.557.559-1.044-.166-1.782-.212-7.65-.138-9.44M257.56013 449.9526l.344-8.263h-1.53l.214 9.374c.038 1.196.059 7.018-.101 8.203-.067.494.184 1.17.652 1.17.415 0 .605-.557.559-1.044-.166-1.782-.212-7.65-.138-9.44M279.76814 454.1186l.428-10.281h-1.904l.267 11.663c.047 1.487.072 8.732-.126 10.207-.083.614.23 1.456.812 1.456.515 0 .751-.694.694-1.299-.207-2.219-.264-9.519-.171-11.746M234.773 454.1186l.428-10.281h-1.904l.267 11.663c.047 1.487.073 8.732-.126 10.207-.083.614.23 1.456.812 1.456.515 0 .751-.694.694-1.299-.207-2.219-.264-9.519-.171-11.746"/><path fill="#4da258" d="M437.75246,449.9526l.344-8.263h-1.531l.215,9.374c.037,1.196.059,7.018-.101,8.203-.067.494.184,1.17.652,1.17.414,0,.604-.557.559-1.044-.167-1.782-.212-7.65-.138-9.44"/><path fill="#82c56d" d="M392.46733,449.9526l.345-8.263h-1.531l.214,9.374c.038,1.196.059,7.018-.101,8.203-.067.494.185,1.17.652,1.17.415,0,.605-.557.559-1.044-.166-1.782-.212-7.65-.138-9.44"/><path fill="#4da258" d="M415.44093,454.1186l.428-10.281h-1.905l.267,11.663c.047,1.487.073,8.732-.126,10.207-.083.614.23,1.456.812,1.456.516,0,.751-.694.695-1.299-.207-2.219-.264-9.519-.171-11.746"/><path fill="#82c56d" d="M302.07964 343.04541l.345-8.263h-1.531l.214 9.373c.038 1.196.059 7.019-.101 8.204-.067.494.185 1.17.652 1.17.415 0 .605-.558.559-1.044-.166-1.783-.212-7.651-.138-9.44M369.856 343.04541l.344-8.263h-1.53l.214 9.373c.038 1.196.059 7.019-.101 8.204-.067.494.184 1.17.652 1.17.415 0 .604-.558.559-1.044-.166-1.783-.212-7.651-.138-9.44M257.56013 343.04541l.344-8.263h-1.53l.214 9.373c.038 1.196.059 7.019-.101 8.204-.067.494.184 1.17.652 1.17.415 0 .605-.558.559-1.044-.166-1.783-.212-7.651-.138-9.44M347.19875 347.21141l.428-10.282h-1.904l.267 11.664c.047 1.487.073 8.732-.126 10.207-.083.613.23 1.456.812 1.456.515 0 .751-.695.695-1.299-.207-2.219-.265-9.52-.172-11.746M279.76814 347.21141l.428-10.282h-1.904l.267 11.664c.047 1.487.072 8.732-.126 10.207-.083.613.23 1.456.812 1.456.515 0 .751-.695.694-1.299-.207-2.219-.264-9.52-.171-11.746"/><polygon fill="#ffcc5d" points="335.002 40.546 328.82 59.299 308.625 59.917 324.492 72.487 319.547 91.652 335.002 79.7 352.106 90.622 346.749 71.475 361.586 59.093 342.215 59.093 335.002 40.546"/><polygon fill="#f39821" points="308.626 59.917 335.106 68.366 324.493 72.487 308.626 59.917"/><polygon fill="#f39821" points="319.547 91.653 335.106 68.367 335.002 79.701 319.547 91.653"/><polygon fill="#f39821" points="352.107 90.623 335.106 68.367 346.75 71.476 352.107 90.623"/><polygon fill="#f39821" points="361.586 59.093 335.106 68.366 342.215 59.093 361.586 59.093"/><polygon fill="#f39821" points="335.002 40.546 335.106 68.366 328.82 59.299 335.002 40.546"/><path fill="#cf2633" d="M309.70564,233.5132a8.81151,8.81151,0,1,1-8.812-8.812,8.8123,8.8123,0,0,1,8.812,8.812"/><path fill="#303443" d="M300.89355,242.8252v-1a8.32123,8.32123,0,0,0,8.3125-8.312h1A9.32284,9.32284,0,0,1,300.89355,242.8252Z"/><path fill="#f15b43" d="M292.08253,233.5132a8.78988,8.78988,0,0,0,.414,2.67,8.80935,8.80935,0,0,0,10.875-11.122,8.798,8.798,0,0,0-11.289,8.452"/><path fill="#cf2633" d="M364.83064,151.062a8.81151,8.81151,0,1,1-8.812-8.812,8.81229,8.81229,0,0,1,8.812,8.812"/><path fill="#f15b43" d="M347.20753,151.062a8.78321,8.78321,0,0,0,.414,2.669,8.80933,8.80933,0,0,0,10.875-11.122,8.80092,8.80092,0,0,0-11.289,8.453"/><path fill="#303443" d="M347.14453,153.88184a9.31715,9.31715,0,0,1,4.27637-10.91846l.49414.86914a8.31856,8.31856,0,0,0-3.81738,9.74756Z"/><path fill="#f39821" d="M332.25935,116.51121a5.8515,5.8515,0,1,1-5.852-5.852,5.85262,5.85262,0,0,1,5.852,5.852"/><path fill="#ffcc5d" d="M320.55623,116.51121a5.86024,5.86024,0,0,0,.275,1.772,5.85127,5.85127,0,0,0,7.222-7.385,5.84288,5.84288,0,0,0-7.497,5.613"/><path fill="#f39821" d="M374.52205,233.5132a5.8515,5.8515,0,1,1-5.852-5.852,5.85264,5.85264,0,0,1,5.852,5.852"/><path fill="#ffcc5d" d="M362.81895,233.5132a5.86681,5.86681,0,0,0,.275,1.773,5.84916,5.84916,0,0,0,7.221-7.385,5.79389,5.79389,0,0,0-1.644-.24,5.8526,5.8526,0,0,0-5.852,5.852"/><path fill="#f39821" d="M306.74565,320.521a5.8515,5.8515,0,1,1-5.852-5.852,5.85262,5.85262,0,0,1,5.852,5.852"/><path fill="#ffcc5d" d="M295.04256,320.521a5.86691,5.86691,0,0,0,.275,1.773,5.8513,5.8513,0,0,0,7.222-7.385,5.84,5.84,0,0,0-7.497,5.612"/><path fill="#f39821" d="M368.67046,370.6997a5.85151,5.85151,0,1,1-5.852-5.852,5.85263,5.85263,0,0,1,5.852,5.852"/><path fill="#ffcc5d" d="M356.96733,370.6997a5.86681,5.86681,0,0,0,.275,1.773,5.84914,5.84914,0,0,0,7.221-7.385,5.79417,5.79417,0,0,0-1.644-.24,5.8526,5.8526,0,0,0-5.852,5.852"/><path fill="#cf2633" d="M396.89214,304.2563a8.812,8.812,0,1,1-8.813-8.812,8.81252,8.81252,0,0,1,8.813,8.812"/><path fill="#f15b43" d="M379.26814,304.2563a8.82537,8.82537,0,0,0,.414,2.67,8.80935,8.80935,0,0,0,10.875-11.122,8.798,8.798,0,0,0-11.289,8.452"/><path fill="#cf2633" d="M276.90974,385.3628a8.81151,8.81151,0,1,1-8.812-8.812,8.811,8.811,0,0,1,8.812,8.812"/><path fill="#f15b43" d="M259.28664,385.3628a8.78994,8.78994,0,0,0,.414,2.67,8.80935,8.80935,0,0,0,10.875-11.122,8.798,8.798,0,0,0-11.289,8.452"/><path fill="#cf2633" d="M396.89214,425.1557a8.812,8.812,0,1,1-8.812-8.812,8.81231,8.81231,0,0,1,8.812,8.812"/><path fill="#f15b43" d="M379.26814,425.1557a8.82537,8.82537,0,0,0,.414,2.67,8.80934,8.80934,0,0,0,10.875-11.122,8.798,8.798,0,0,0-11.289,8.452"/><path fill="#fdeba9" d="M297.93416 161.78459c4.43 0 4.437-6.885 0-6.885-4.43 0-4.437 6.885 0 6.885M316.99565 151.6128c4.43 0 4.437-6.885 0-6.885-4.43 0-4.437 6.885 0 6.885M335.106 138.65379c4.43 0 4.437-6.884 0-6.884-4.43 0-4.437 6.884 0 6.884"/><path fill="#e9d495" d="M349.07573,123.96821c4.43,0,4.437-6.885,0-6.885-4.43,0-4.437,6.885,0,6.885"/><path fill="#fdeba9" d="M294.59914,198.86671c4.43,0,4.437-6.885,0-6.885-4.429,0-4.437,6.885,0,6.885"/><path fill="#e9d495" d="M294.60014,191.98191a3.25015,3.25015,0,0,0-3.322,3.405,11.1581,11.1581,0,0,1,6.062,2.048c1.301-2.015.398-5.453-2.74-5.453"/><path fill="#fdeba9" d="M321.03474 213.185c4.43 0 4.437-6.884 0-6.884-4.43 0-4.437 6.884 0 6.884M354.44484 222.36369c4.43 0 4.437-6.884 0-6.884-4.43 0-4.437 6.884 0 6.884"/><path fill="#e9d495" d="M387.48885,233.3784c4.429,0,4.437-6.884,0-6.884-4.43,0-4.437,6.884,0,6.884"/><path fill="#fdeba9" d="M254.76424 323.5131c4.43 0 4.437-6.884 0-6.884-4.43 0-4.437 6.884 0 6.884M291.66264 308.644c4.43 0 4.437-6.884 0-6.884-4.43 0-4.437 6.884 0 6.884"/><path fill="#e9d495" d="M324.70564 291.57179c4.43 0 4.437-6.885 0-6.885-4.43 0-4.437 6.885 0 6.885M354.44484 279.34031c4.43 0 4.437-6.885 0-6.885-4.43 0-4.437 6.885 0 6.885M381.43025 259.62941c4.43 0 4.437-6.884 0-6.884-4.43 0-4.437 6.884 0 6.884M265.228 362.6147c4.429 0 4.437-6.884 0-6.884-4.43 0-4.437 6.884 0 6.884M292.76424 379.687c4.43 0 4.437-6.884 0-6.884-4.43 0-4.437 6.884 0 6.884"/><path fill="#fdeba9" d="M325.25645 398.9624c4.43 0 4.437-6.884 0-6.884-4.43 0-4.437 6.884 0 6.884M360.50246 416.03561c4.43 0 4.437-6.885 0-6.885-4.429 0-4.437 6.885 0 6.885M402.358 437.5131c4.43 0 4.437-6.884 0-6.884-4.43 0-4.437 6.884 0 6.884"/><path fill="#e9d495" d="M435.401,443.57171c4.43,0,4.437-6.885,0-6.885-4.429,0-4.437,6.885,0,6.885"/><path fill="#303443" d="M414.64648,396.83984h-1a10.73779,10.73779,0,0,0-21.47558,0h-1a10.74884,10.74884,0,0,0-10.73633-10.7373v-1a11.75823,11.75823,0,0,1,11.23633,8.34375,11.7386,11.7386,0,0,1,22.97558,3.39355Z"/><path fill="#303443" d="M414.64648 396.83984h-1a11.7493 11.7493 0 0111.73633-11.73632 6.27069 6.27069 0 012.19141.41992l-.34961.9375a5.20253 5.20253 0 00-1.8418-.35742A10.74863 10.74863 0 00414.64648 396.83984zM276.67676 388.9873l-.91992-.39062a8.31511 8.31511 0 00-7.65918-11.5459v-1a9.31386 9.31386 0 018.5791 12.93652zM335.10645 68.86621a.49949.49949 0 01-.39649-.8042l7.10938-9.273.793.6084-6.08886 7.94287 24.89746-8.71875.33008.94336-26.4795 9.273A.493.493 0 01335.10645 68.86621z"/><rect width="69.479" height="65.88" x="402.327" y="429.578" fill="#ffcc5d"/><rect width="69.48" height="12.6" x="402.326" y="432.639" fill="#f39821"/><path fill="#f15b43" d="M428.36574 471.519a1.50088 1.50088 0 000-3 1.50088 1.50088 0 000 3M455.72615 474.6391a1.50088 1.50088 0 000-3 1.50088 1.50088 0 000 3M465.08644 457.1186a1.5009 1.5009 0 000-3 1.5009 1.5009 0 000 3M417.08644 491.9184a1.5009 1.5009 0 000-3 1.5009 1.5009 0 000 3M414.20656 451.3286a.75045.75045 0 000-1.5.75045.75045 0 000 1.5M417.32674 465.729a.75046.75046 0 000-1.5.75046.75046 0 000 1.5M411.56593 479.4087a.75044.75044 0 000-1.5.75044.75044 0 000 1.5M442.526 451.3286a.75044.75044 0 000-1.5.75044.75044 0 000 1.5M442.526 465.2485a.75044.75044 0 000-1.5.75044.75044 0 000 1.5M445.16655 481.08931a.75045.75045 0 000-1.5.75045.75045 0 000 1.5M431.72615 487.0893a.75044.75044 0 000-1.5.75044.75044 0 000 1.5M459.32674 488.2885a.75046.75046 0 000-1.5.75046.75046 0 000 1.5M429.32674 463.7192c5.791 0 5.8-9 0-9-5.792 0-5.801 9 0 9M422.12654 485.0786c5.791 0 5.801-9 0-9-5.791 0-5.801 9 0 9M451.646 460.83931c5.791 0 5.801-9 0-9-5.791 0-5.801 9 0 9M466.48585 475.23871c5.791 0 5.801-9 0-9-5.791 0-5.801 9 0 9M448.76613 494.8393c5.791 0 5.801-9 0-9-5.791 0-5.801 9 0 9M408.28664 464.27881c5.791 0 5.8-9 0-9-5.792 0-5.801 9 0 9"/><rect width="3" height="65.881" x="435.566" y="429.578" fill="#f15b43"/><rect width="75.146" height="12.601" x="399.493" y="429.578" fill="#f15b43"/><path fill="#f15b43" d="M437.00293,430.69336a8.67725,8.67725,0,0,1-2.88672-.89941,33.94377,33.94377,0,0,0-7.12793-2.28321,23.70022,23.70022,0,0,0-7.18848-.52636,21.68677,21.68677,0,0,0-3.49316.63476,7.35512,7.35512,0,0,1-4.36133.1377,8.56137,8.56137,0,0,1-1.59765-.67774,7.66839,7.66839,0,0,1-2.61133,1.11817,6.39746,6.39746,0,0,1-4.85938-.99512.99974.99974,0,0,1,1.13868-1.64356,4.37283,4.37283,0,0,0,3.2998.6836,5.77884,5.77884,0,0,0,1.24121-.43457c-1.24219-1.13282-2.01562-2.52735-1.69726-3.75782a2.71947,2.71947,0,0,1,2.6582-1.917,2.53909,2.53909,0,0,1,1.76269.98047,4.33375,4.33375,0,0,1,.96094,3.09082,3.44363,3.44363,0,0,1-.44531,1.36621,6.38243,6.38243,0,0,0,.73047.27246,5.38717,5.38717,0,0,0,3.29785-.16406,23.739,23.739,0,0,1,3.78906-.68652,22.31934,22.31934,0,0,1,4.49805.03613,10.21989,10.21989,0,0,1-2.4082-2.12012c-2.68458-3.502-3.48438-5.8955-2.44532-7.31836,1.21094-1.65625,4.1836-1.00293,6.31348-.36914C431.55078,417,434.74805,422.00781,436.6582,425c1.40625,2.20117,2.51856,3.94336,1.5625,5.11816-.01269.01563-.02539.03028-.03808.04493A1.46524,1.46524,0,0,1,437.00293,430.69336Zm-15.165-14.15625c-.7793,0-.95312.2168-.96582.2334-.00586.00781-.57715,1.01367,2.41895,4.9209,1.168,1.52636,5.23144,4.06054,12.89648,6.39746-.35352-.66407-.873-1.47852-1.21484-2.0127-1.874-2.93554-4.70606-7.37207-9.97071-8.93847A11.70647,11.70647,0,0,0,421.83789,416.53711ZM409.36328,422.127a.73674.73674,0,0,0-.56738.4209c-.09961.38477.4082,1.20215,1.2998,1.95606a1.45814,1.45814,0,0,0,.15723-.51075,2.341,2.341,0,0,0-.50391-1.59277.67949.67949,0,0,0-.37109-.27246Z"/><path fill="#f15b43" d="M438.25,430.69238a1.4711,1.4711,0,0,1-1.17871-.52636c-.01367-.01563-.02637-.03125-.04-.04786-.95508-1.17187.15723-2.915,1.5625-5.11816,1.91113-2.99219,5.11035-8.001,11.08691-9.77832,2.13282-.63672,5.1045-1.28711,6.31348.36816,1.03809,1.4209.23828,3.81348-2.44336,7.31641a10.25717,10.25717,0,0,1-2.41015,2.12207,22.24738,22.24738,0,0,1,4.498-.03613,23.72752,23.72752,0,0,1,3.791.68652,5.39815,5.39815,0,0,0,3.29687.16406,6.38243,6.38243,0,0,0,.73047-.27246,3.43963,3.43963,0,0,1-.44531-1.36426,4.33091,4.33091,0,0,1,.96-3.09179,2.5455,2.5455,0,0,1,1.76758-.98242,2.71594,2.71594,0,0,1,2.65527,1.91894c.31641,1.23047-.457,2.625-1.69922,3.75684a5.78549,5.78549,0,0,0,1.24219.43457,4.368,4.368,0,0,0,3.30078-.68457.99958.99958,0,1,1,1.13672,1.64453,6.40391,6.40391,0,0,1-4.8584.99512,7.66446,7.66446,0,0,1-2.6123-1.11817,8.59045,8.59045,0,0,1-1.59668.67774,7.35153,7.35153,0,0,1-4.36035-.13672,21.57345,21.57345,0,0,0-3.49512-.63574,23.7588,23.7588,0,0,0-7.18164.52539,33.86007,33.86007,0,0,0-7.13281,2.28418A8.66882,8.66882,0,0,1,438.25,430.69238Zm15.165-14.15527a11.69036,11.69036,0,0,0-3.16211.60059c-5.26465,1.5664-8.09863,6.00293-9.97363,8.93847-.34082.53418-.86035,1.34863-1.21387,2.0127,7.66406-2.33594,11.72754-4.8711,12.89648-6.39746,2.99317-3.90918,2.42383-4.91309,2.417-4.92188C454.36719,416.75391,454.19336,416.53711,453.415,416.53711Zm12.47754,5.58984h-.01465a.68314.68314,0,0,0-.375.27344A2.34112,2.34112,0,0,0,465,423.99414a1.45316,1.45316,0,0,0,.15723.50977c.89062-.75293,1.39843-1.57129,1.2998-1.95508A.73806.73806,0,0,0,465.89258,422.127Z"/><rect width="2.97" height="3.06" x="435.542" y="442.179" fill="#cf2633"/><path fill="#1b5490" d="M353.32863,503.979h-34.362a4.00025,4.00025,0,0,1-3.963-3.452l-4.523-32.725h51.333l-4.523,32.725a4.00072,4.00072,0,0,1-3.962,3.452"/><path fill="#0e395c" d="M363.814,479.979H308.481a2.00008,2.00008,0,0,1-2-2v-8.177a1.99944,1.99944,0,0,1,2-2h55.333a2.0001,2.0001,0,0,1,2,2v8.177a2.00075,2.00075,0,0,1-2,2"/></svg>