<svg xmlns="http://www.w3.org/2000/svg" data-name="Layer 1" viewBox="0 0 700 550"><path fill="#edf2fa" d="M511.24355,355.00345c-31.87759,51.71536-92.65459,96.458-162.69218,98.43782-126.00155,3.56056-238.71763-132.50435-218.55156-225.16,6.586-30.25414,29.7201-66.82332,64.78949-78.68214,55.64582-18.81692,85.75378,43.37441,180.91884,54.41136,85.3423,9.8992,124.41186-32.77813,153.31123-6.29592,32.39478,29.68528,11.74978,109.38823-17.77582,157.28891"/><path fill="#edf2fa" d="M497.26368,128.543c6.64555,5.59438,9.63612,16.00628,7.34149,24.13138-8.414,29.78419-87.97985,29.18833-94.133,29.095-75.6421-1.14788-137.25219-39.7947-134.94178-46.50324,2.24291-6.50954,60.07766,30.45088,133.54543,12.50978,40.75143-9.95094,71.59471-33.202,88.18783-19.23293"/><path fill="#fff" d="M477.32469 169.1148a.53365.53365 0 00-.22375-.72038l-5.6576-2.98435-1.43716-4.83434 4.735 2.49855a.53388.53388 0 00.779-.414l.04309-.40327a.52525.52525 0 00-.0072-.16751l-1.06259-5.07963 4.51722 2.44706 1.2469 5.964a.502.502 0 00.10889.22857.53274.53274 0 00.93453-.44636l-1.06139-5.07963 1.58911.86036a1.45989 1.45989 0 00.33147 1.27082 1.60179 1.60179 0 002.47818-2.02707 1.51743 1.51743 0 00-2.24844-.15316l-1.67526-.90823 5.06649-1.5664a.53366.53366 0 00-.31592-1.0195l-6.06324 1.87508-4.43348-2.4028 5.06648-1.56516a.53443.53443 0 00.25727-.8448l-.25369-.31471-.00237-.00362a.58367.58367 0 00-.12088-.10889l-4.36286-2.85391 5.11433-1.51973 5.22205 3.15431a.53336.53336 0 10.55164-.913l-4.3916-2.65291 2.0905-.61986c.01555.01917.02392.04189.04068.06223a1.6014 1.6014 0 002.47821-2.02587 1.62221 1.62221 0 00-2.8336.94293l-2.22931.66295 2.32984-4.82956a.53333.53333 0 10-.96089-.46308l-2.751 5.70306-4.97073 1.47784 2.46382-4.66921a.53933.53933 0 00-.00117-.50018.52466.52466 0 00-.414-.28l-.40327-.04309a.54853.54853 0 00-.16513.0084l-5.0892 1.0638 2.44706-4.51605 5.97352-1.24928a.53367.53367 0 00-.219-1.04463l-5.08924 1.065.92737-1.71236a1.62319 1.62319 0 001.35938-2.6062 1.60181 1.60181 0 00-2.47821 2.02707 1.97267 1.97267 0 00.14121.14118l-.901 1.66331-1.56278-5.05692a.53368.53368 0 10-1.01954.31592l1.87271 6.05367-2.4028 4.43349-1.564-5.05692a.52884.52884 0 00-.41521-.36737l-.41163-.07417a.53021.53021 0 00-.55164.24891l-2.74146 4.53876-1.45148-4.88221 3.244-5.36922a.53368.53368 0 00-.913-.55285l-2.74147 4.54-.5313-1.78657a1.51615 1.51615 0 00.30515-2.24 1.60188 1.60188 0 00-2.47938 2.02587 1.46234 1.46234 0 001.16908.578l.49062 1.65371L457.419 135.436a.533.533 0 10-.46429.95968l5.5475 2.67683 1.45151 4.881-4.674-2.25443a.53419.53419 0 00-.5385.04429l-.33742.23693a.53149.53149 0 00-.2118.56479l1.25884 5.10238-4.47654-2.42676-1.49219-6.0441a.53314.53314 0 00-1.03507.2561l1.25764 5.10117-1.50417-.81372a1.45857 1.45857 0 00-.33384-1.25885 1.60092 1.60092 0 00-2.477 2.0259 1.5161 1.5161 0 002.25684.1448l1.54.83523-4.9432 1.7243a.53315.53315 0 00-.3291.67971.509.509 0 00.091.16152.53213.53213 0 00.58874.16634l5.85983-2.045 4.47771 2.42555-4.942 1.72554a.52978.52978 0 00-.35061.41043l-.07183.40805a.53545.53545 0 00.2489.54923l4.47895 2.70436-4.69674 1.39644-5.20047-3.40317a.53336.53336 0 00-.584.89268l4.44543 2.909-1.87986.55883c-.02633-.03951-.04551-.07778-.07541-.11489a1.60187 1.60187 0 00-2.47938 2.02587 1.62245 1.62245 0 002.83-.8807l1.78178-.52889-2.41478 4.57583a.53356.53356 0 00.05982.58637.53494.53494 0 00.88432-.08976l2.90178-5.49846 4.74936-1.412-2.2855 4.73739a.531.531 0 00.04425.53849l.23693.33863.02392.03111a.53418.53418 0 00.5409.18069l5.09278-1.25763-2.42555 4.47774-6.0357 1.48978a.53274.53274 0 00-.39012.645.53853.53853 0 00.10411.20943.53148.53148 0 00.54207.18065l5.09281-1.25643-.77783 1.436a1.62209 1.62209 0 00-1.48737 2.58948 1.60228 1.60228 0 002.47938-2.02707c-.01793-.02034-.0371-.03353-.05386-.05266l.77783-1.43833 1.72791 4.95277a.5334.5334 0 001.00753-.35061l-2.04862-5.8694 2.42556-4.47771 1.72911 4.9516a.533.533 0 00.8436.23572l.30993-.25726a.59194.59194 0 00.10652-.11847l2.81564-4.30545 1.46345 4.9253-3.311 5.06046a.53518.53518 0 00.03353.62943.52241.52241 0 00.12084.10769.53187.53187 0 00.73831-.15436l2.81684-4.30422.53609 1.80691a1.51354 1.51354 0 00-.286 2.2281 1.60094 1.60094 0 002.477-2.0259 1.45583 1.45583 0 00-1.18825-.57677l-.54565-1.8344 4.735 2.49852a.53461.53461 0 00.72156-.22375m-2.94487-7.43817l-4.79841-2.532-1.69921-5.71624 5.3824 2.915zm4.41073-7.9228l-5.13466 1.5879-5.26515-2.85153 5.82157-1.73149zm-2.48179-8.72094l-2.49734 4.73261-5.72461 1.70158 2.88027-5.31656zm-8.01252-4.7051l1.67525 5.41947-2.82283 5.21127L465.41 145.10706zm-8.91 2.60741l4.97793 2.40163 1.76144 5.92564-5.40512-2.92811zm-4.4478 8.16813l5.26149-1.83681 5.4171 2.9341-5.93879 1.76622zm2.629 8.922l2.43271-5.04132 5.92085-1.76023-2.964 5.47092zm8.0688 4.16541l-1.7399-4.9875 2.96281-5.47092 1.75545 5.9053zM230.82189 339.82733a1.12234 1.12234 0 00-.46789-1.5149l-11.89317-6.27386-3.02026-10.16288 9.95226 5.25315a1.12239 1.12239 0 001.63817-.87114l.09093-.84719a1.17921 1.17921 0 00-.01674-.34942l-2.2317-10.67981 9.49276 5.14427 2.6218 12.53814a1.11359 1.11359 0 00.22855.47864 1.12126 1.12126 0 001.96723-.93814L236.951 320.92438l3.341 1.81049a3.077 3.077 0 00.69643 2.67086c2.74025 3.35051 7.9551-.90106 5.21006-4.25877a3.18874 3.18874 0 00-4.72663-.32428l-3.524-1.9086 10.65348-3.29309a1.12184 1.12184 0 10-.66414-2.14314l-12.74635 3.94164-9.32044-5.04972 10.65108-3.29309a1.12208 1.12208 0 00.54205-1.77458l-.53369-.66293-.006-.006a1.10514 1.10514 0 00-.25487-.22857l-9.17088-5.99982 10.7504-3.195L248.825 303.8403a1.12184 1.12184 0 001.16191-1.91938l-9.23069-5.57624 4.39277-1.30431c.03231.04308.05145.08856.08735.13163 2.74026 3.35292 7.95391-.90106 5.20888-4.25876-2.13118-2.60623-5.74137-.61027-5.958 1.98279l-4.686 1.39286 4.89776-10.15209a1.12124 1.12124 0 00-2.0199-.974l-5.78444 11.99009-10.44766 3.10522 5.179-9.81585a1.11612 1.11612 0 00-.0036-1.04943 1.09281 1.09281 0 00-.86874-.58754l-.846-.09094a1.14119 1.14119 0 00-.3494.01676l-10.699 2.23648 5.14306-9.494 12.55849-2.62418a1.12168 1.12168 0 10-.45949-2.1958l-10.69775 2.23648 1.94808-3.59823c2.49614.06462 4.91809-2.95922 2.85872-5.47811-2.74026-3.35292-7.95391.90106-5.20887 4.25756a3.51761 3.51761 0 00.29795.29915l-1.89423 3.49653L220.11814 265.235a1.12184 1.12184 0 00-2.14314.66413l3.93567 12.72722-5.04972 9.31924-3.2871-10.63074a1.11813 1.11813 0 00-.87113-.77182l-.86876-.15794a1.12034 1.12034 0 00-1.15952.52291l-5.76289 9.54421-3.05019-10.261 6.81833-11.29007a1.12152 1.12152 0 00-1.91937-1.16072l-5.76292 9.543-1.11644-3.755a3.18676 3.18676 0 00.64019-4.70868c-2.74024-3.35293-7.95391.90106-5.20887 4.25756a3.06771 3.06771 0 002.45546 1.21337l1.03267 3.47617-9.823-4.73979a1.12124 1.12124 0 00-.974 2.01989l11.661 5.62767 3.05019 10.2598-9.823-4.73861a1.11892 1.11892 0 00-1.13081.09215l-.712.499a1.1231 1.1231 0 00-.44513 1.18826l2.64811 10.72406-9.4114-5.09878-3.13872-12.70688a1.121 1.121 0 10-2.17665.53729l2.64813 10.72408-3.16266-1.71235a3.07015 3.07015 0 00-.70122-2.64572c-2.74145-3.35174-7.95512.901-5.21007 4.25875a3.19129 3.19129 0 004.74578.30633l3.23565 1.753L169.68914 293.742a1.12114 1.12114 0 10.7395 2.11683l12.318-4.29945 9.41379 5.09879-10.39261 3.62693a1.1254 1.1254 0 00-.73593.86516l-.15076.85678a1.12475 1.12475 0 00.52412 1.15473l9.41616 5.68632-9.87208 2.93292-10.93469-7.15339a1.12164 1.12164 0 00-1.22773 1.87749l9.34678 6.11352-3.95481 1.17508c-.055-.08018-.09454-.16154-.15916-.24053-2.74024-3.35051-7.95271.90106-5.20887 4.25877 2.09529 2.56315 5.6241.67848 5.94958-1.85117l3.74542-1.11286-5.07606 9.61842a1.12286 1.12286 0 00.12446 1.2337 1.136 1.136 0 00.34461.2812 1.12239 1.12239 0 001.51612-.46907l6.09676-11.55811 9.98577-2.96761-4.80442 9.957a1.11871 1.11871 0 00.09095 1.13079l.50018.712c.01556.02394.0323.04428.04907.067a1.12485 1.12485 0 001.138.37814l10.70612-2.64214-5.1 9.4114-12.68772 3.13274a1.12088 1.12088 0 00-.8197 1.357 1.13983 1.13983 0 00.22018.44035 1.12144 1.12144 0 001.138.37933l10.70493-2.64212-1.63457 3.01667c-2.58351-.29916-5.25795 2.836-3.12438 5.44461 2.74026 3.35171 7.95392-.90227 5.20887-4.25877-.0359-.04307-.07658-.073-.11368-.11368l1.637-3.02026 3.63293 10.41056a1.1215 1.1215 0 002.118-.7383L196.0506 331.0693l5.09877-9.41138 3.63294 10.41056a1.12037 1.12037 0 001.77577.493l.65215-.54087a1.12789 1.12789 0 00.22138-.2489l5.91967-9.05 3.0777 10.35314-6.96072 10.63792a1.12215 1.12215 0 00.07059 1.32346 1.08932 1.08932 0 00.25489.22855 1.12057 1.12057 0 001.552-.32428l5.91965-9.05122 1.12842 3.79807a3.18283 3.18283 0 00-.60309 4.68356c2.74025 3.35172 7.9539-.90106 5.20887-4.25756a3.05826 3.05826 0 00-2.49853-1.211l-1.14637-3.85789 9.95347 5.252a1.12037 1.12037 0 001.51372-.46909m-6.19011-15.63617l-10.08507-5.32136-3.57191-12.01762 11.31281 6.12906zm9.27378-16.65332l-10.79349 3.33736L212.04458 304.879l12.23659-3.63771zm-5.21725-18.33336L223.44 299.152l-12.03557 3.57669 6.05488-11.1764zm-16.84358-9.89364l3.52165 11.39419-5.93522 10.95623-3.65566-12.30242zm-18.72943 5.48411l10.46322 5.04733 3.70232 12.45676-11.36307-6.15539zm-9.35277 17.17025l11.06273-3.86149 11.3882 6.16856-12.48669 3.7107zm5.52838 18.75457l5.11434-10.59724 12.446-3.7-6.22959 11.50069zM206.253 329.4754l-3.65927-10.48475 6.22959-11.49948 3.69037 12.4149zM274.31814 225.01416a.71657.71657 0 00-.29915-.96684l-7.58534-4.00148-1.92654-6.4809 6.34805 3.35052a.7153.7153 0 001.04346-.55759l.05861-.5397a.7034.7034 0 00-.01078-.22375l-1.42277-6.81 6.05367 3.27992 1.67289 7.99817a.69644.69644 0 00.146.30515.71518.71518 0 001.25405-.59831l-1.424-6.81233 2.13118 1.15473a1.95612 1.95612 0 00.44395 1.704c1.74825 2.13714 5.07243-.57438 3.32177-2.71634a2.03158 2.03158 0 00-3.01305-.20581l-2.24727-1.21817 6.792-2.1a.71517.71517 0 10-.42244-1.36653l-8.12978 2.51286-5.94361-3.2189 6.7932-2.10123a.71573.71573 0 00.34582-1.132l-.341-.4224-.00241-.00358a.68112.68112 0 00-.16393-.146l-5.84906-3.82557 6.85663-2.03784 7.00021 4.22763a.71569.71569 0 10.7419-1.22411l-5.88737-3.55516 2.80008-.83286c.02154.02753.03472.05623.05623.085 1.7483 2.13717 5.07368-.57559 3.323-2.7163-1.35934-1.66211-3.66165-.39012-3.79925 1.26479l-2.98916.8879 3.12319-6.47487a.715.715 0 00-1.28759-.62227l-3.68914 7.64757-6.66279 1.9804 3.30147-6.25949a.7142.7142 0 00-.00117-.6701.69746.69746 0 00-.554-.37453l-.54086-.05744a.68893.68893 0 00-.22137.01077l-6.82311 1.42635 3.27993-6.05487 8.00894-1.67526a.71521.71521 0 10-.29316-1.40006l-6.82311 1.4276 1.24329-2.29515a2.17693 2.17693 0 001.82363-3.4941c-1.74826-2.13717-5.07364.57439-3.323 2.71514a2.19836 2.19836 0 00.18909.19026l-1.20618 2.23167-2.09649-6.78a.71574.71574 0 00-1.36774.42243l2.51049 8.11664-3.22127 5.94361-2.09529-6.78005a.717.717 0 00-.55521-.493l-.55405-.09933a.71375.71375 0 00-.74069.33264l-3.676 6.0872-1.9445-6.54429 4.34851-7.2a.71458.71458 0 00-1.223-.73952l-3.676 6.086-.712-2.39441a2.035 2.035 0 00.40805-3.00472c-1.74825-2.13713-5.07244.57559-3.32181 2.71751a1.965 1.965 0 001.5664.773l.65812 2.21736-6.26427-3.02386a.71583.71583 0 00-.86518 1.09729.70821.70821 0 00.24292.19026l7.437 3.58985 1.9457 6.54312-6.26427-3.02149a.71613.71613 0 00-.72276.05865l-.45351.31829a.71713.71713 0 00-.2836.75629l1.6884 6.83986-6.00222-3.25122-2.00074-8.10349a.71483.71483 0 10-1.38808.34224l1.68844 6.83987-2.01629-1.09254a1.95931 1.95931 0 00-.44873-1.6872c-1.74826-2.13837-5.07248.57556-3.32181 2.71631a2.03535 2.03535 0 003.02623.195l2.06417 1.11763L235.33 195.62168a.71524.71524 0 10.47024 1.351l7.857-2.74263 6.00222 3.25238-6.62686 2.31188a.71915.71915 0 00-.46907.55163l-.09571.54686a.71882.71882 0 00.33385.73711l6.00342 3.62575-6.29422 1.8703-6.97388-4.56148a.7154.7154 0 10-.78258 1.19782l5.96033 3.89857-2.52126.74909c-.0359-.05029-.061-.10174-.1017-.152-1.74826-2.13834-5.07244.57439-3.32181 2.71514a2.17514 2.17514 0 003.79329-1.18106l2.38845-.70961-3.23566 6.13386a.71617.71617 0 00.07778.78619.69666.69666 0 00.22137.18066.71345.71345 0 00.96447-.29916l3.889-7.37112 6.36958-1.893-3.06454 6.35041a.7112.7112 0 00.05865.7216l.3195.45468a.41051.41051 0 00.03111.04189.71644.71644 0 00.72393.24054l6.82909-1.68486-3.25239 6.00225-8.09272 1.99713a.71489.71489 0 00-.52173.86635.6949.6949 0 00.14.28.71269.71269 0 00.72514.24171l6.82792-1.68483L248.92 222.37206c-1.649-.19146-3.35412 1.80687-1.99358 3.47139 1.74826 2.13713 5.07248-.5756 3.32181-2.71635-.02154-.02749-.049-.04546-.07179-.07179l1.04346-1.92653 2.31782 6.63879a.71469.71469 0 101.34981-.47024l-2.745-7.869 3.25122-6.00342 2.31783 6.64a.71564.71564 0 001.132.31592l.41521-.347a.711.711 0 00.14122-.15794l3.77532-5.77131 1.96243 6.60176-4.43943 6.7848a.71451.71451 0 00.04546.84363.65861.65861 0 00.16276.146.71369.71369 0 00.9896-.207l3.77532-5.77128.72035 2.42076a2.03161 2.03161 0 00-.3865 2.988c1.74825 2.13834 5.07364-.57439 3.323-2.71635a1.9559 1.9559 0 00-1.59269-.7718l-.73233-2.459 6.34805 3.34931a.71618.71618 0 00.96684-.29916m-3.94882-9.97258l-6.43181-3.3936-2.27715-7.66554 7.2144 3.90935zm5.9137-10.62118l-6.88416 2.12877-7.05762-3.82316 7.8043-2.32144zm-3.32663-11.69213l-3.34693 6.34446-7.67627 2.28076 3.86267-7.12825zm-10.74322-6.30978l2.24727 7.26706-3.78609 6.98706-2.331-7.84622zm-11.94341 3.49772l6.67232 3.2189 2.36212 7.94555-7.24788-3.92731zm-5.96395 10.95024l7.05408-2.46262 7.26343 3.93327-7.96348 2.3669zm3.52525 11.96018l3.26079-6.7573 7.93715-2.35971-3.97278 7.33406zm10.81742 5.5846l-2.33341-6.68668 3.97277-7.33406 2.35372 7.918zM461.434 373.74342a.71658.71658 0 00-.29916-.96684l-7.58534-4.00148-1.92653-6.48089 6.348 3.35051a.7153.7153 0 001.04346-.55759l.05861-.5397a.70339.70339 0 00-.01077-.22375l-1.42277-6.81 6.05367 3.27992 1.67288 7.99817a.69655.69655 0 00.146.30515.71519.71519 0 001.25406-.59831l-1.424-6.81233 2.13119 1.15473a1.95617 1.95617 0 00.44394 1.704c1.74826 2.13713 5.07244-.57439 3.32178-2.71635a2.03159 2.03159 0 00-3.01306-.20581l-2.24727-1.21816 6.792-2.1a.71517.71517 0 10-.42244-1.36653l-8.12978 2.51287-5.94361-3.21891 6.79319-2.10123a.71572.71572 0 00.34583-1.132l-.341-.4224-.00241-.00358a.68112.68112 0 00-.16393-.146l-5.84906-3.82557 6.85662-2.03784 7.00022 4.22763a.71569.71569 0 10.74189-1.22411l-5.88737-3.55516 2.80008-.83286c.02155.02753.03473.05623.05624.085 1.74829 2.13717 5.07368-.57559 3.323-2.7163-1.35934-1.66211-3.66164-.39012-3.79924 1.26479l-2.98917.8879 3.12319-6.47487a.715.715 0 00-1.28758-.62226l-3.68914 7.64756-6.66279 1.9804 3.30147-6.25949a.71423.71423 0 00-.00117-.6701.69748.69748 0 00-.55405-.37453l-.54087-.05744a.68894.68894 0 00-.22137.01077l-6.8231 1.42635 3.27992-6.05487 8.00895-1.67526a.71521.71521 0 10-.29317-1.40006l-6.8231 1.4276 1.24329-2.29515a2.17693 2.17693 0 001.82363-3.4941c-1.74826-2.13717-5.07365.57439-3.323 2.71514a2.19551 2.19551 0 00.18909.19026l-1.20618 2.23167-2.09649-6.78a.71574.71574 0 00-1.36774.42243L455.75 334.711l-3.22128 5.94361-2.09528-6.78005a.717.717 0 00-.55522-.493l-.55405-.09933a.71376.71376 0 00-.74069.33264l-3.676 6.0872-1.9445-6.54429 4.3485-7.2a.71458.71458 0 00-1.22294-.73952l-3.676 6.086-.712-2.39441a2.03505 2.03505 0 00.408-3.00472c-1.74826-2.13713-5.07244.57559-3.32181 2.71751a1.965 1.965 0 001.5664.773l.65812 2.21736-6.26427-3.02386a.71582.71582 0 00-.86518 1.09729.70821.70821 0 00.24292.19026l7.437 3.58985 1.94571 6.54312-6.26427-3.02148a.71613.71613 0 00-.72276.05864l-.45352.31829a.71712.71712 0 00-.28359.75629l1.6884 6.83986L431.46951 341.71l-2.00074-8.10349a.71483.71483 0 10-1.38808.34225l1.68844 6.83986-2.0163-1.09254a1.95927 1.95927 0 00-.44873-1.6872c-1.74825-2.13837-5.07247.57556-3.32181 2.71631a2.03536 2.03536 0 003.02624.195l2.06417 1.11763-6.62686 2.31308a.71524.71524 0 10.47024 1.351l7.857-2.74263 6.00222 3.25239-6.62686 2.31187a.71913.71913 0 00-.46907.55164l-.09571.54685a.71881.71881 0 00.33384.73711l6.00343 3.62575-6.29422 1.8703-6.97388-4.56148a.7154.7154 0 10-.78258 1.19782l5.96033 3.89857-2.52126.74909c-.0359-.05028-.061-.10174-.10171-.152-1.74825-2.13834-5.07243.57439-3.32181 2.71514a2.17515 2.17515 0 003.7933-1.18106l2.38844-.70961-3.23566 6.13386a.71619.71619 0 00.07778.78619.69681.69681 0 00.22138.18066.71345.71345 0 00.96447-.29916l3.889-7.37112 6.36959-1.89305-3.06454 6.35042a.71119.71119 0 00.05865.72159l.31949.45468a.412.412 0 00.03111.04189.71644.71644 0 00.72393.24054l6.8291-1.68486-3.25239 6.00226-8.09272 1.99712a.71488.71488 0 00-.52173.86635.69477.69477 0 00.14.28.71268.71268 0 00.72513.24171l6.82793-1.68482-1.04226 1.92536c-1.649-.19146-3.35413 1.80687-1.99358 3.47139 1.74825 2.13713 5.07247-.5756 3.32181-2.71634-.02155-.0275-.049-.04547-.0718-.0718l1.04346-1.92653 2.31783 6.63879a.71469.71469 0 101.34981-.47024l-2.745-7.869 3.25122-6.00342 2.31782 6.64a.71565.71565 0 001.132.31592l.41521-.347a.71068.71068 0 00.14121-.15794l3.77533-5.77131 1.96243 6.60176-4.43944 6.7848a.71452.71452 0 00.04547.84363.65843.65843 0 00.16276.146.71368.71368 0 00.98959-.207l3.77533-5.77128.72035 2.42077a2.03159 2.03159 0 00-.38651 2.988c1.74826 2.13834 5.07365-.57439 3.323-2.71635a1.95591 1.95591 0 00-1.59269-.7718l-.73233-2.459 6.348 3.34931a.7162.7162 0 00.96685-.29916m-3.94882-9.97258l-6.43182-3.3936-2.27714-7.66554 7.21439 3.90935zm5.9137-10.62118l-6.88416 2.12877-7.05762-3.82316 7.8043-2.32144zm-3.32663-11.69213l-3.34693 6.34446-7.67627 2.28076 3.86267-7.12825zM449.329 335.14776l2.24727 7.267-3.7861 6.98706-2.331-7.84622zm-11.94342 3.49771l6.67232 3.2189 2.36212 7.94555-7.24787-3.92731zm-5.96394 10.95024l7.05407-2.46262 7.26344 3.93327-7.96348 2.3669zm3.52525 11.96018l3.26078-6.7573 7.93716-2.35971-3.97278 7.33406zm10.81742 5.5846l-2.33342-6.68667 3.97278-7.33406 2.35372 7.918zM523.229 265.36264a.71556.71556 0 00-.29915-.96568l-7.58534-4.00268-1.92654-6.48088 6.348 3.35053a.7141.7141 0 001.04346-.55642l.05862-.53968a.70375.70375 0 00-.01078-.22376l-1.42277-6.81 6.05367 3.27994 1.67289 7.997a.6947.6947 0 00.146.30633.71534.71534 0 001.25406-.59951l-1.424-6.81115 2.13118 1.15475a1.95371 1.95371 0 00.44395 1.70277c1.74825 2.13836 5.07243-.57437 3.32177-2.71511a2.03171 2.03171 0 00-3.01305-.207l-2.24727-1.21815 6.792-2.10007a.7146.7146 0 10-.42244-1.36533l-8.12978 2.51289-5.94361-3.22009 6.7932-2.10007a.71571.71571 0 00.34582-1.132l-.341-.4224-.00241-.00478a.70179.70179 0 00-.16393-.1448l-5.84906-3.82677 6.85663-2.03784 7.00021 4.22883a.71621.71621 0 00.7419-1.22533l-5.88737-3.554 2.80008-.834c.02154.02872.03472.05743.05623.085 1.74829 2.13836 5.07368-.57439 3.323-2.71632-1.35934-1.66091-3.66165-.3889-3.79925 1.26483l-2.98916.88788 3.12318-6.47369a.715.715 0 00-1.28758-.62224l-3.68914 7.64756-6.66279 1.9804 3.30147-6.25948a.71666.71666 0 00-.00117-.67131.69622.69622 0 00-.554-.37334l-.54086-.05865a.69043.69043 0 00-.22138.012l-6.8231 1.42516 3.27992-6.05367 8.009-1.67527a.7152.7152 0 10-.29316-1.4l-6.82311 1.42637 1.24329-2.29393a2.1771 2.1771 0 001.82363-3.49412c-1.74826-2.13715-5.07365.57439-3.323 2.71514a2.04756 2.04756 0 00.19026.19026l-1.20735 2.23168-2.09649-6.7812a.71574.71574 0 00-1.36774.4224l2.51049 8.11664-3.22127 5.94479-2.09529-6.78123a.71362.71362 0 00-.55521-.49181l-.55405-.10051a.71727.71727 0 00-.74069.33385l-3.67483 6.086-1.94567-6.54309 4.34851-7.2a.71458.71458 0 00-1.22295-.73952l-3.676 6.086-.712-2.39563a2.03265 2.03265 0 00.40805-3.0035c-1.74826-2.13713-5.07244.5756-3.32181 2.71633a1.96172 1.96172 0 001.5664.773l.65812 2.21853-6.26427-3.02386a.71584.71584 0 00-.86518 1.09731.72323.72323 0 00.24292.19025l7.437 3.58865 1.9457 6.54431-6.26427-3.02147a.71331.71331 0 00-.72276.05865l-.45351.3171a.71963.71963 0 00-.2836.75745l1.6884 6.83987-6.00222-3.25241-2.00074-8.10349a.715.715 0 10-1.38808.34343l1.68844 6.83986-2.01629-1.0937a1.96022 1.96022 0 00-.44874-1.68724c-1.74825-2.13715-5.07247.57558-3.3218 2.71751a2.03625 2.03625 0 003.02623.19506l2.06417 1.11644-6.62686 2.31425a.71524.71524 0 10.47024 1.351l7.857-2.74264 6.00222 3.25241-6.62686 2.31185a.71736.71736 0 00-.46907.55164l-.09571.54685a.71886.71886 0 00.33384.73714l6.00463 3.62574-6.29542 1.8703-6.97388-4.5615a.7149.7149 0 10-.78258 1.19662l5.96033 3.89977-2.52126.7491c-.0359-.05027-.061-.10293-.1017-.15318-1.74826-2.13715-5.07244.57437-3.32181 2.71512a2.17487 2.17487 0 003.79329-1.17985l2.38845-.7096-3.23567 6.13385a.71641.71641 0 00.07779.78619.72974.72974 0 00.22137.18067.71347.71347 0 00.96447-.29915l3.889-7.37115 6.36959-1.89305-3.06454 6.34925a.71309.71309 0 00.05865.72276l.31949.45352a.25168.25168 0 00.03112.04187.71474.71474 0 00.72393.24173l6.82909-1.68485-3.25239 6.00224-8.09272 1.99714a.71433.71433 0 00-.52173.86635.695.695 0 00.14.28.71277.71277 0 00.72514.24171l6.82792-1.68484-1.04226 1.92537c-1.649-.19267-3.35412 1.80688-1.99358 3.47138 1.74826 2.13715 5.07247-.57557 3.32181-2.71632-.02155-.02752-.049-.04667-.07179-.0718l1.04346-1.92655 2.31782 6.63882a.71469.71469 0 101.34981-.47026l-2.745-7.869 3.25122-6.00342 2.31783 6.64a.71457.71457 0 001.132.31471l.41521-.34582a.73859.73859 0 00.14122-.15794l3.77532-5.77249 1.96243 6.60294-4.43823 6.78481a.71255.71255 0 00.04426.84362.68354.68354 0 00.16276.146.71293.71293 0 00.9896-.20821l3.77532-5.77009.72035 2.42075a2.0304 2.0304 0 00-.3865 2.98676c1.74825 2.13956 5.07364-.57437 3.323-2.71512a1.95259 1.95259 0 00-1.59269-.77183l-.73233-2.46024 6.348 3.34934a.71625.71625 0 00.96685-.29915m-3.94882-9.97141l-6.43181-3.39481-2.27715-7.66433 7.21439 3.90934zm5.9137-10.62116l-6.88416 2.12877-7.05762-3.82439 7.8043-2.32023zm-3.32663-11.69335l-3.34693 6.34447-7.67627 2.28194 3.86267-7.12824zM511.124 226.76816l2.24727 7.26586-3.78609 6.987-2.331-7.845zm-11.94341 3.49771l6.67232 3.2177 2.36212 7.94553-7.24788-3.92729zm-5.964 10.949l7.05408-2.46264 7.26343 3.93447-7.96348 2.36692zm3.52525 11.96138l3.26078-6.7573 7.93716-2.35973-3.97278 7.33407zm10.81742 5.5846l-2.33342-6.68669 3.97278-7.33525 2.35372 7.918z"/><path fill="#e4ebf1" d="M330.00688 92.55335a1.796 1.796 0 000-3.58985 1.796 1.796 0 000 3.58985M218.4286 220.03488a1.796 1.796 0 000-3.58985 1.796 1.796 0 000 3.58985M529.09047 141.992a1.796 1.796 0 000-3.58985 1.796 1.796 0 000 3.58985M252.2515 108.51714c4.62013 0 4.62728-7.1797 0-7.1797-4.619 0-4.62732 7.1797 0 7.1797M437.74326 97.38013c4.62013 0 4.62728-7.1797 0-7.1797-4.619 0-4.62732 7.1797 0 7.1797M140.7793 364.98873c4.62013 0 4.62729-7.1797 0-7.1797-4.619 0-4.62732 7.1797 0 7.1797M568.88282 287.2736c4.62013 0 4.62729-7.1797 0-7.1797-4.619 0-4.62732 7.1797 0 7.1797"/><path fill="#fff" d="M360.36356 186.79514c4.62012 0 4.62728-7.1797 0-7.1797-4.619 0-4.62733 7.1797 0 7.1797M154.33867 220.4027c4.62013 0 4.62729-7.1797 0-7.1797-4.619 0-4.62732 7.1797 0 7.1797M317.69559 212.79628c4.62013 0 4.62728-7.1797 0-7.1797-4.619 0-4.62732 7.1797 0 7.1797M200.99543 176.45814c4.61892 0 4.6273-7.1797 0-7.1797-4.61894 0-4.62733 7.1797 0 7.1797"/><path fill="#e4ebf1" d="M368.6761 63.3908c4.61892 0 4.62728-7.1797 0-7.1797-4.62017 0-4.62732 7.1797 0 7.1797M539.28433 202.4173c4.61892 0 4.62728-7.1797 0-7.1797-4.62017 0-4.62733 7.1797 0 7.1797M150.87155 287.2736c4.61893 0 4.62729-7.1797 0-7.1797-4.62016 0-4.62732 7.1797 0 7.1797"/><path fill="#afc4db" d="M365.00932,371.866c4.61892,0,4.62729-7.1797,0-7.1797-4.62016,0-4.62732,7.1797,0,7.1797"/><path fill="#e4ebf1" d="M137.31218 183.20529c4.61893 0 4.62729-7.1797 0-7.1797-4.62016 0-4.62732 7.1797 0 7.1797M530.82505 349.373c4.61892 0 4.62729-7.1797 0-7.1797-4.62016 0-4.62732 7.1797 0 7.1797"/><path fill="#fff" d="M363.83112 243.66035c4.61893 0 4.62729-7.1797 0-7.1797-4.61895 0-4.62732 7.1797 0 7.1797M340.82753 106.95561a1.6874 1.6874 0 000-3.37282 1.6874 1.6874 0 000 3.37282"/><path fill="#fff" d="M359.558,241.95269c4.33967,0,4.34643-6.74562,0-6.74562-4.34083,0-4.34756,6.74562,0,6.74562"/><rect width="55.243" height="8.993" x="199.561" y="460.497" fill="#303443" transform="rotate(-61.614 227.183 464.993)"/><rect width="8.993" height="55.551" x="434.567" y="438.013" fill="#303443" transform="rotate(-32.194 439.064 465.788)"/><path fill="#303443" d="M493.89117,493.7889H163.36861a4.49709,4.49709,0,1,1,0-8.99417H493.89117c13.61532,0,24.00715-3.91958,30.88562-11.65,12.16826-13.67571,9.84287-34.89852,9.81871-35.11152a4.37737,4.37737,0,0,1-.03074-.52261,15.33357,15.33357,0,0,0-30.66713,0v3.30474a4.49709,4.49709,0,1,1-8.99417,0v-3.30474a24.32784,24.32784,0,0,1,48.65437-.25142c.29315,2.90619,2.10472,25.94278-12.06176,41.86373C522.83677,488.85484,510.18542,493.7889,493.89117,493.7889Z"/><rect width="56.91" height="169.949" x="335.628" y="305.465" fill="#f15b43" transform="rotate(-89.884 364.082 390.44)"/><rect width="13.535" height="169.949" x="357.323" y="301.567" fill="#65cade" transform="rotate(-89.885 364.09 386.541)"/><path fill="#f6978f" d="M425.36083 405.98544a9.61489 9.61489 0 004.035-3.49985c.787-1.22995 1.782-2.78145 1.17711-3.8956-.71393-1.31314-3.19293-1.18048-4.41615-.91853a6.58085 6.58085 0 00-4.686 4.01927c-.5925 1.54812-.869 4.14407.38 4.9378.89267.56663 2.18108-.02924 3.51-.64309M431.44222 407.024q-.5127 2.21932-1.19286 4.39254c-.62287 1.98883-3.75733 1.13326-3.13-.86908q.6813-2.17377 1.19173-4.39252c.46881-2.03718 3.59991-1.16812 3.1311.86906"/><rect width="56.91" height="13.534" x="286.514" y="383.573" fill="#65cade" transform="rotate(-89.886 314.969 390.34)"/><path fill="#cf2633" d="M419.10052,362.09491s-75.88272,7.13014-97.34279,17.59372l-2.87027-.00561.036-17.79047Z"/><rect width="17.789" height="2.87" x="311.446" y="369.356" fill="#46c2cc" transform="rotate(-89.888 320.34 370.79)"/><polygon fill="#303443" points="322.013 418.81 321.343 418.807 321.459 361.899 322.129 361.901 322.013 418.81"/><polygon fill="#303443" points="432.013 382.993 411.726 382.953 411.728 382.283 432.016 382.324 432.013 382.993"/><path fill="#fff" d="M368.6763,187.643a1.00516,1.00516,0,0,0,0-2.00906,1.00516,1.00516,0,0,0,0,2.00906"/><rect width="76.789" height="100.176" x="330.695" y="92.651" fill="#82c56d" transform="rotate(-89.884 369.09 142.74)"/><path fill="#4da258" d="M331.69173,104.269s27.11292,75.25649,87.43119,66.02283l-.0225,10.94254L318.92448,181.032l.154-76.78772Z"/><rect width="31.963" height="210.097" x="314.11" y="240.888" fill="#ffcc5d" transform="rotate(-89.885 330.091 345.937)"/><rect width="23.776" height="232.316" x="317.674" y="201.908" fill="#65cade" transform="rotate(-89.885 329.561 318.066)"/><rect width="68.214" height="150.46" x="357.914" y="196.966" fill="#ffcc5d" transform="rotate(-89.884 392.021 272.196)"/><rect width="56.91" height="169.949" x="335.628" y="124.604" fill="#f15b43" transform="rotate(-89.884 364.082 209.579)"/><rect width="2.869" height="132.139" x="381.492" y="173.436" fill="#f39821" transform="rotate(-89.885 382.927 239.506)"/><rect width="2.869" height="132.139" x="381.492" y="173.436" fill="#f39821" transform="rotate(-89.885 382.927 239.506)"/><rect width="13.534" height="169.949" x="357.323" y="120.706" fill="#65cade" transform="rotate(-89.884 364.09 205.68)"/><polygon fill="#82c56d" points="428.813 306.278 418.177 306.255 436.244 238.079 446.88 238.1 428.813 306.278"/><polygon fill="#4da258" points="446.12 240.968 435.485 240.945 436.245 238.08 446.88 238.1 446.12 240.968"/><polygon fill="#82c56d" points="467.22 287.497 316.81 263.026 316.831 252.608 467.241 277.078 467.22 287.497"/><polygon fill="#46c2cc" points="438.728 306.397 282.762 329.861 213.381 329.72 213.429 305.944 438.728 306.397"/><polygon fill="#f39821" points="281.92 361.821 281.971 336.096 435.159 336.404 435.171 330.168 225.074 329.745 225.061 336.37 271.447 336.464 271.395 361.8 281.92 361.821"/><path fill="#a5ddea" d="M424.61092 320.03794a9.607 9.607 0 004.035-3.49985c.78811-1.22994 1.7831-2.78257 1.17824-3.89672-.71392-1.31315-3.19292-1.18049-4.41614-.91853a6.58079 6.58079 0 00-4.686 4.01926c-.59364 1.54814-.86908 4.1452.38 4.93782.89155.56663 2.18-.02812 3.50886-.642M430.69234 321.07543q-.511 2.21933-1.19176 4.39254c-.62283 1.98883-3.7573 1.13326-3.13107-.86908q.683-2.17377 1.19282-4.39252c.46885-2.03718 3.59882-1.16812 3.13.86906"/><path fill="#feecaa" d="M410.9572 350.27577a9.61486 9.61486 0 004.035-3.49873c.787-1.22995 1.782-2.78256 1.17711-3.89671-.71279-1.31315-3.19179-1.18049-4.41615-.91853a6.58086 6.58086 0 00-4.686 4.01926c-.5925 1.54812-.869 4.14407.38 4.9378.89268.56663 2.18109-.02923 3.51-.64309M417.03862 351.31439q-.51268 2.21933-1.19285 4.39254c-.62287 1.98883-3.75733 1.13326-3.13-.86908q.683-2.17377 1.19172-4.39252c.46882-2.03718 3.59992-1.16812 3.1311.86906"/><path fill="#f6978f" d="M425.36083 214.41357a9.61489 9.61489 0 004.035-3.49983c.787-1.22994 1.782-2.78144 1.17711-3.89559-.71393-1.31315-3.19293-1.18051-4.41615-.91855a6.57848 6.57848 0 00-4.686 4.01928c-.5925 1.54811-.869 4.14407.38 4.93667.89267.56663 2.18108-.0281 3.51-.642M431.44222 215.45217q-.5127 2.21933-1.19286 4.39254c-.62287 1.98885-3.75733 1.13326-3.13-.87017q.6813-2.17213 1.19173-4.39141c.46881-2.03719 3.59991-1.16812 3.1311.869"/><path fill="#bcda86" d="M409.4607 117.14106a9.59953 9.59953 0 004.035-3.49983c.7881-1.22995 1.78309-2.78145 1.17824-3.8956-.71392-1.31315-3.19292-1.18051-4.41615-.91855a6.57841 6.57841 0 00-4.686 4.01929c-.59363 1.5481-.86907 4.14406.38 4.93779.89264.5655 2.18-.02923 3.50885-.6431M415.54209 118.17965q-.511 2.21934-1.19176 4.39255c-.62283 1.98885-3.75729 1.13326-3.13107-.86908q.683-2.17377 1.19283-4.3925c.46884-2.0372 3.59881-1.16812 3.13.869"/><path fill="#fff" d="M317.377,142.63468a1.62375,1.62375,0,0,0,1.62121,1.62685l48.02774.09668a13.62037,13.62037,0,0,0-6.116,11.80372.81139.81139,0,0,0,.80162.82182h.00786a.81188.81188,0,0,0,.814-.80158,12.28356,12.28356,0,0,1,7.70463-11.81723l4.04511.009-.07417,36.77041a1.624,1.624,0,0,0,3.248.00672l.07308-36.106c4.55781,4.32732,4.559,11.08081,4.55781,11.15951a.81316.81316,0,0,0,.80272.82187h.00676a.812.812,0,0,0,.814-.80162c.0045-.34853.02134-7.08966-4.51506-11.84084l39.978.07984a1.624,1.624,0,1,0,.00672-3.248l-34.86249-.06969A34.701,34.701,0,0,0,398.05021,129.248c1.16023-1.8337,3.87649-6.12389,2.07429-8.81092-.86681-1.29177-2.58245-1.95059-4.98728-1.92925-1.62008.02024-3.97766.48905-7.85078,3.96645-2.23506,2.00905-4.05524,4.14856-8.35333,10.87617-.50707.79486-.96576,1.51328-1.3851,2.171l.06406-31.1603a1.62457,1.62457,0,0,0-3.24913-.00673l-.06409,32.35876c-.85782-.905-1.89889-1.98319-3.17944-3.30646-5.5539-5.73606-7.76422-7.46967-10.3534-8.99081-4.49036-2.63865-6.89515-2.6263-8.48487-2.32275-2.35425.44973-3.91021,1.447-4.50158,2.88489-1.23108,2.99169,2.28563,6.6557,3.78766,8.21955a33.39893,33.39893,0,0,0,12.61655,7.90812l-45.17993-.09106a1.62274,1.62274,0,0,0-1.62684,1.62m56.91623-3.54481-.00337,2.02481-.00449.01012-3.91361-.00786c-5.18624-.92527-12.575-3.77644-17.63306-9.04478-1.17148-1.21982-4.2846-4.46222-3.45711-6.47691.362-.87919,1.56608-1.5751,3.30309-1.90791,1.31315-.24844,3.33573-.23382,7.35837,2.12825,2.46213,1.44583,4.587,3.11985,10.01051,8.721,1.67179,1.72685,3.221,3.3267,4.33967,4.55328m5.90132,2.04728-2.53973-.00559a1.53216,1.53216,0,0,0-.11583-.45084l.00453-2.09452c.778-1.26367,1.73811-2.7657,2.7578-4.361,4.19691-6.56913,5.94741-8.63439,8.07-10.54117,3.4695-3.11762,5.44936-3.53582,6.78612-3.55157.04834-.00113.09555-.00113.14276-.00113,1.69653.00336,2.9591.44184,3.47513,1.212,1.212,1.80669-1.19173,5.6056-2.09676,7.03455-4.18229,6.60622-11.535,11.03812-16.48405,12.75935"/><path fill="#e4ebf1" d="M374.25044 160.50228q1.59027 1.02874 3.24463 1.98323l-.03709 18.66517-3.24916-.00676zM319.00408 141.01415h0l34.062.06858q1.33733 1.63583 2.7612 3.25366l-36.82887-.07421h-.00113zM362.53339 156.182a.8119.8119 0 01-.814.80162h-.00786a.81143.81143 0 01-.80159-.82183 15.6041 15.6041 0 01.99832-5.48531q.6375.60877 1.29068 1.21083a14.57781 14.57781 0 00-.66555 4.29469"/><path fill="#f15b43" d="M401.17469,262.34112s-9.84976-4.62749-19.18569-4.56454c-9.3382.06523-19.86925-2.20356-34.02608-9.42249l6.96373-1.59761-1.65381-7.26165s12.9696,9.32131,27.42772,9.88235c14.45927.56213,19.69838,2.38681,21.61189,3.29184Z"/><path fill="#cf2633" d="M401.17469,262.34112s-1.79661-.8432-4.57692-1.8033c-.13041-.42609-.23835-.8466-.34067-1.25358-.85332-3.42116.67794-3.75507,2.80169-7.74848a19.24476,19.24476,0,0,1,3.25366,1.13326Z"/><path fill="#f15b43" d="M457.48058,280.22839s10.69969,1.99111,18.24467,7.491c7.54272,5.50217,17.41945,9.807,33.12888,12.20621l-4.72305-5.3628,5.58087-4.931s-15.97026,0-28.03933-7.9812c-12.07017-7.98233-17.38908-9.55743-19.47235-9.93855Z"/><path fill="#cf2633" d="M462.20048,271.71181a23.38,23.38,0,0,1,5.157,1.74151c-.18774,3.01194.20912,4.14071-2.06416,6.0677a12.53489,12.53489,0,0,1-2.86688,1.96634c-2.91525-.88143-4.94569-1.25918-4.94569-1.25918Z"/><path fill="#f15b43" d="M427.34042,255.54166s-6.67032-11.49228-13.80609-14.20065c-7.13686-2.70949-6.54886.25184-9.32131,7.26505s-5.21887,6.63656-4.18792,10.76827,2.66342,9.58664,22.346,9.04475c19.68374-.53963,4.9693-12.87742,4.9693-12.87742"/><path fill="#cf2633" d="M419.35551 248.60445c-.06149-.05709-6.10225-5.63892-9.80883-5.63892-.03184 0-.06258 0-.09442.00109l-.011-.39744c.03513-.0011.07026-.0011.1054-.0011 3.86248 0 9.82529 5.50827 10.07891 5.74432zM401.772 263.31059c3.8956-8.38706 20.63261 5.02662 20.63261 5.02662-13.543.37213-18.51338-2.10238-20.63261-5.02662"/><path fill="#f15b43" d="M442.62019,260.46361s12.123-5.44034,19.49935-3.47509,5.17165,4.02714,3.3301,11.34049c-1.84269,7.31339.36423,8.4343-2.88489,11.18765-3.248,2.75334-7.75637,6.22957-23.42532-5.6967-15.66785-11.92627,3.48076-13.35635,3.48076-13.35635"/><path fill="#cf2633" d="M458.81116 281.681c1.33-6.97046-10.97966-7.93059-16.77414-7.99918-1.755-.02134-2.91413.04049-2.91413.04049 10.78066 8.20493 16.26149 9.09648 19.68827 7.95869M444.53818 265.08153a10.4785 10.4785 0 006.06544 1.31428 42.0852 42.0852 0 00-5.03562 1.85957c-.93876.58461-.0315.94549 3.04454 2.41378 0 0-5.30207-1.059-7.55061 1.54478zM423.47573 258.29858a10.49239 10.49239 0 01-5.6922-2.47225 42.21123 42.21123 0 013.00292 4.44761c.4205 1.02309-.52615.78587-3.881.18325 0 0 4.92318 2.23393 5.23011 5.66071z"/><path fill="#f15b43" d="M434.343,272.722s2.19457,4.50048-.8792,15.31819c0,0,1.3019.82862,4.45211-2.59366a11.95522,11.95522,0,0,1,2.79606,4.24634s3.26378-10.85483-.507-16.79771Z"/><path fill="#cf2633" d="M440.43779,286.35317l-.39086-.07465c.011-.06039,1.13964-6.08468-.03623-8.14878l.34694-.19762C441.60378,280.12357,440.4861,286.09955,440.43779,286.35317Z"/><path fill="#f15b43" d="M428.0529,270.6062s-4.3723,2.442-8.02731,13.07755c0,0-1.54251-.06409-2.17324-4.67135a11.95659,11.95659,0,0,0-4.71968,1.88654s3.519-10.77277,10.01053-13.498Z"/><path fill="#cf2633" d="M415.62916 278.47669l-.36451-.16249c.1054-.235 2.59988-5.77836 4.87587-6.8675l.17127.359C418.16755 272.83228 415.65332 278.42069 415.62916 278.47669zM423.14306 267.40137l4.90967 3.20531a10.44478 10.44478 0 00-2.551 2.43969 3.40384 3.40384 0 01-2.16534-.86458 6.01019 6.01019 0 01-1.79212-3.91357 9.70631 9.70631 0 011.59874-.86685M440.20469 272.89544a9.94516 9.94516 0 01.94775 1.9731 6.00526 6.00526 0 01-2.75109 1.55037 4.51579 4.51579 0 01-3.38969-.62959 9.81093 9.81093 0 00-.66894-3.067z"/><path fill="#f15b43" d="M438.4063,273.78915c2.70273-.62733,4.20249-3.26261,4.74778-4.22052.63522-1.11638,2.12826-3.74267,1.01747-6.34649a5.13561,5.13561,0,0,0-3.33909-3.02653c-1.05232-.22037-1.35363.23832-2.904.09106a8.321,8.321,0,0,1-3.25589-1.04783c-2.20805-1.20407-3.18167-2.29012-4.76017-3.07376a4.18731,4.18731,0,0,0-4.41611.32268c-3.2469,1.6954-3.763,5.41447-3.89224,6.34537-.08546.61387-.64084,4.60952,1.73812,6.71979,1.384,1.23,2.39806.606,5.9159,1.393,5.49657,1.22885,6.34314,3.49424,9.14823,2.84328"/><path fill="#cf2633" d="M421.31177 268.43894c-12.42658.21025-17.2958-2.07764-19.45554-4.82872l-.0843-.30018 19.77253 4.95917zM458.81116 281.681s.0798.02587.217.07085c-3.24916 1.15124-8.36458.48679-18.238-6.704l1.24456-.40809 9.55744 3.82924z"/><path fill="#f15b43" d="M401.17469,262.34112s-9.84976-4.62749-19.18569-4.56454c-9.3382.06523-19.86925-2.20356-34.02608-9.42249l6.96373-1.59761-1.65381-7.26165s12.9696,9.32131,27.42772,9.88235c14.45927.56213,19.69838,2.38681,21.61189,3.29184Z"/><path fill="#cf2633" d="M353.58856 240.88116l-.31593-1.3862s.769.55088 2.13162 1.38959zM401.17469 262.34112s-1.79661-.8432-4.57692-1.8033c-.13041-.42609-.23835-.8466-.34067-1.25358-.85332-3.42116.67794-3.75507 2.80169-7.74848a19.24476 19.24476 0 013.25366 1.13326z"/><path fill="#f15b43" d="M457.48058,280.22839s10.69969,1.99111,18.24467,7.491c7.54272,5.50217,17.41945,9.807,33.12888,12.20621l-4.72305-5.3628,5.58087-4.931s-15.97026,0-28.03933-7.9812c-12.07017-7.98233-17.38908-9.55743-19.47235-9.93855Z"/><path fill="#cf2633" d="M462.20048,271.71181a23.38,23.38,0,0,1,5.157,1.74151c-.18774,3.01194.20912,4.14071-2.06416,6.0677a12.53489,12.53489,0,0,1-2.86688,1.96634c-2.91525-.88143-4.94569-1.25918-4.94569-1.25918Z"/><path fill="#f15b43" d="M427.34042,255.54166s-6.67032-11.49228-13.80609-14.20065c-7.13686-2.70949-6.54886.25184-9.32131,7.26505s-5.21887,6.63656-4.18792,10.76827,2.66342,9.58664,22.346,9.04475c19.68374-.53963,4.9693-12.87742,4.9693-12.87742"/><path fill="#cf2633" d="M412.58213 240.99966l-5.00416-.01008c.97925-.83761 2.406-.86908 5.00416.01008M419.35551 248.60445c-.06149-.05709-6.10225-5.63892-9.80883-5.63892-.03184 0-.06258 0-.09442.00109l-.011-.39744c.03513-.0011.07026-.0011.1054-.0011 3.86248 0 9.82529 5.50827 10.07891 5.74432zM401.772 263.31059c3.8956-8.38706 20.63261 5.02662 20.63261 5.02662-13.543.37213-18.51338-2.10238-20.63261-5.02662"/><path fill="#f15b43" d="M442.62019,260.46361s12.123-5.44034,19.49935-3.47509,5.17165,4.02714,3.3301,11.34049c-1.84269,7.31339.36423,8.4343-2.88489,11.18765-3.248,2.75334-7.75637,6.22957-23.42532-5.6967-15.66785-11.92627,3.48076-13.35635,3.48076-13.35635"/><path fill="#cf2633" d="M458.81116 281.681c1.33-6.97046-10.97966-7.93059-16.77414-7.99918-1.755-.02134-2.91413.04049-2.91413.04049 10.78066 8.20493 16.26149 9.09648 19.68827 7.95869M444.53818 265.08153a10.4785 10.4785 0 006.06544 1.31428 42.0852 42.0852 0 00-5.03562 1.85957c-.93876.58461-.0315.94549 3.04454 2.41378 0 0-5.30207-1.059-7.55061 1.54478zM423.47573 258.29858a10.49239 10.49239 0 01-5.6922-2.47225 42.21123 42.21123 0 013.00292 4.44761c.4205 1.02309-.52615.78587-3.881.18325 0 0 4.92318 2.23393 5.23011 5.66071z"/><path fill="#f15b43" d="M434.343,272.722s2.19457,4.50048-.8792,15.31819c0,0,1.3019.82862,4.45211-2.59366a11.95522,11.95522,0,0,1,2.79606,4.24634s3.26378-10.85483-.507-16.79771Z"/><path fill="#cf2633" d="M440.43779,286.35317l-.39086-.07465c.011-.06039,1.13964-6.08468-.03623-8.14878l.34694-.19762C441.60378,280.12357,440.4861,286.09955,440.43779,286.35317Z"/><path fill="#f15b43" d="M428.0529,270.6062s-4.3723,2.442-8.02731,13.07755c0,0-1.54251-.06409-2.17324-4.67135a11.95659,11.95659,0,0,0-4.71968,1.88654s3.519-10.77277,10.01053-13.498Z"/><path fill="#cf2633" d="M415.62916 278.47669l-.36451-.16249c.1054-.235 2.59988-5.77836 4.87587-6.8675l.17127.359C418.16755 272.83228 415.65332 278.42069 415.62916 278.47669zM423.14306 267.40137l4.90967 3.20531a10.44478 10.44478 0 00-2.551 2.43969 3.40384 3.40384 0 01-2.16534-.86458 6.01019 6.01019 0 01-1.79212-3.91357 9.70631 9.70631 0 011.59874-.86685M440.20469 272.89544a9.94516 9.94516 0 01.94775 1.9731 6.00526 6.00526 0 01-2.75109 1.55037 4.51579 4.51579 0 01-3.38969-.62959 9.81093 9.81093 0 00-.66894-3.067z"/><path fill="#f15b43" d="M438.4063,273.78915c2.70273-.62733,4.20249-3.26261,4.74778-4.22052.63522-1.11638,2.12826-3.74267,1.01747-6.34649a5.13561,5.13561,0,0,0-3.33909-3.02653c-1.05232-.22037-1.35363.23832-2.904.09106a8.321,8.321,0,0,1-3.25589-1.04783c-2.20805-1.20407-3.18167-2.29012-4.76017-3.07376a4.18731,4.18731,0,0,0-4.41611.32268c-3.2469,1.6954-3.763,5.41447-3.89224,6.34537-.08546.61387-.64084,4.60952,1.73812,6.71979,1.384,1.23,2.39806.606,5.9159,1.393,5.49657,1.22885,6.34314,3.49424,9.14823,2.84328"/><path fill="#cf2633" d="M421.31177 268.43894c-12.42658.21025-17.2958-2.07764-19.45554-4.82872l-.0843-.30018 19.77253 4.95917zM458.81116 281.681s.0798.02587.217.07085c-3.24916 1.15124-8.36458.48679-18.238-6.704l1.24456-.40809 9.55744 3.82924z"/><rect width="56.91" height="13.534" x="286.514" y="202.713" fill="#65cade" transform="rotate(-89.886 314.969 209.48)"/><rect width="55.74" height="21.655" x="238.904" y="323.094" fill="#f15b43" transform="rotate(-89.887 266.774 333.921)"/><path fill="#cf2633" d="M275.81519 316.5202a10.56173 10.56173 0 011.81569 2.58133l-.02251 11.24834a7.45615 7.45615 0 00-1.42218-1.07481c-2.36884 4.00129-3.81579 3.46164-3.81579 3.46164.75777-11.22135-2.32386-15.16642-2.32386-15.16642zM255.96912 322.61039a13.46472 13.46472 0 012.86238-6.08118l5.80572.82747s-2.9287 4.06087-1.74147 15.244c0 0-1.42445.59475-3.94621-3.31435a11.09616 11.09616 0 00-3.00067 3.02992z"/><path fill="#cf2633" d="M270.04668,317.56983a20.59148,20.59148,0,0,0-5.41-.21248c-2.42956.3283-8.65014-3.63028-8.65014-3.63028l13.18658-4.6466,8.07453,4.25986s-1.963,5.30207-4.243,5.37964c-2.28.07869-2.95794-1.15014-2.95794-1.15014"/><path fill="#f15b43" d="M258.83915,299.84827s-9.82389-8.88736-17.424-9.29322c-7.6012-.40362-6.14416,2.23057-6.6467,9.73283-.50142,7.50112-2.93884,7.88675-.70492,11.49678s5.44034,8.29375,23.96834,1.80334c18.5291-6.49266.80723-13.73973.80723-13.73973"/><path fill="#f6978f" d="M249.11625,295.72064c-.07576-.03514-7.66349-3.57154-11.14939-2.35395l-.13175-.37549c3.64839-1.27358,11.134,2.2211,11.45022,2.36932Z"/><path fill="#f15b43" d="M274.84463,299.88121s9.861-8.848,17.46216-9.22237,6.134,2.253,6.60623,9.75867c.47217,7.50336,2.90736,7.898.65882,11.499s-5.473,8.27128-23.9751,1.70665c-18.50212-6.56687-.75211-13.742-.75211-13.742"/><path fill="#cf2633" d="M278.12186 303.74366a10.48156 10.48156 0 006.17673-.59473 42.1348 42.1348 0 00-4.2295 3.30423c-.71506.84209.25856.90954 3.63587 1.37161 0 0-5.37289.606-6.72089 3.76968zM255.99329 303.69981a10.48151 10.48151 0 01-6.1745-.6217 41.97889 41.97889 0 014.216 3.32221c.71279.84545-.26195.90954-3.64039 1.357 0 0 5.36952.62847 6.704 3.79779z"/><path fill="#f15b43" d="M270.73947,314.12675s3.46047,3.619,3.827,14.85837c0,0,1.49413.39237,3.45262-3.82589a11.95147,11.95147,0,0,1,3.95519,3.19068s-.19787-11.33153-5.6-15.84323Z"/><path fill="#f6978f" d="M280.3016,325.30083c-.00769-.06149-.76854-6.14287-2.51534-7.75242l.27009-.29205c1.85329,1.70727,2.60866,7.74034,2.6405,7.99616Z"/><path fill="#f15b43" d="M264.10367,314.02792s-3.42119,3.65726-3.66176,14.90111c0,0-1.48854.40923-3.49312-3.78768a11.94266,11.94266,0,0,0-3.92145,3.23565s.07083-11.33264,5.42349-15.90619Z"/><path fill="#f15b43" d="M264.10367,314.02792s-3.42119,3.65726-3.66176,14.90111c0,0-1.48854.40923-3.49312-3.78768a11.94266,11.94266,0,0,0-3.92145,3.23565s.07083-11.33264,5.42349-15.90619Z"/><path fill="#f6978f" d="M254.66734,325.30961l-.39525-.04392c.02854-.25581.71365-6.29767,2.55047-8.0258l.27228.28985C255.36452,319.158,254.67393,325.24813,254.66734,325.30961Z"/><path fill="#cf2633" d="M257.49857 313.41418a9.30842 9.30842 0 01.95224-.94325l5.65286 1.55711a9.19478 9.19478 0 00-1.33453 2.26429 3.6521 3.6521 0 01-2.57457-.10794 5.74619 5.74619 0 01-2.696-2.77021M276.37407 312.50622a9.63145 9.63145 0 011.26254 1.28729 5.71362 5.71362 0 01-1.84832 1.83707c-1.31088.78249-2.352.61161-3.87648.35751a8.39014 8.39014 0 00-1.17262-1.86179z"/><path fill="#f15b43" d="M274.89071,313.816c2.37669-1.4177,2.99955-4.37567,3.22665-5.45046.26306-1.25357.88366-4.20029-.96126-6.33526a5.11454,5.11454,0,0,0-4.0901-1.86067c-1.06581.11017-1.2131.63744-2.73084.96912a8.32774,8.32774,0,0,1-3.40994-.00676c-2.46216-.47218-3.718-1.20744-5.45495-1.47279a4.17811,4.17811,0,0,0-4.09571,1.64818c-2.56785,2.596-1.92925,6.28356-1.76848,7.2077.10455.60823.7926,4.57241,3.691,5.85408,1.68979.74652,2.46214-.154,6.04294-.47557,5.59213-.50142,7.08516,1.393,9.55072-.07757"/><path fill="#cf2633" d="M275.59677 313.62274s.27654-.10455.74875-.2687a1.20221 1.20221 0 01.0281-.8477c.97139-.35415 6.35662-.96912 6.35662-.96912v.00113c5.88331-1.30754 13.3721-1.84044 14.0433 3.66737-2.7084 1.97646-7.64842 2.81742-18.56509-.70154v.00449l-1.43683-.37439.07534-.08543c-.41487-.14053-.81737-.27208-1.25019-.42611M236.84886 315.08518c.66218-5.2582 7.52024-4.97938 13.25739-3.78429l-.00449-.00225s5.29757 1.09954 7.5596 1.8618v.29006c.23272.08432.371.136.371.136-.12817.0461-.24509.08207-.37214.12592v.00449l-.69367.23722-.01461-.00336c-12.00385 4.05074-17.27893 3.2109-20.10309 1.13437M419.10052 181.2344s-75.88272 7.13014-97.34279 17.5926l-2.87027-.00449.036-17.79047z"/><rect width="17.789" height="2.87" x="311.446" y="188.495" fill="#46c2cc" transform="rotate(-89.888 320.34 189.93)"/><polygon fill="#303443" points="362.073 144.731 335.318 144.676 335.321 144.007 362.075 144.061 362.073 144.731"/><polygon fill="#303443" points="322.013 237.949 321.343 237.947 321.459 181.037 322.129 181.039 322.013 237.949"/><rect width=".669" height="58.612" x="376.194" y="243.351" fill="#303443" transform="rotate(-80.922 376.529 272.657)"/><polygon fill="#303443" points="342.474 321.217 342.375 320.553 369.846 316.42 369.945 317.083 342.474 321.217"/><polygon fill="#303443" points="282.255 361.822 281.585 361.82 281.637 335.76 293.335 335.784 293.333 336.454 282.306 336.432 282.255 361.822"/><path fill="#303443" d="M409.04383,171.64128A56.68567,56.68567,0,0,1,392.74958,169.25l.19324-.64119a52.91613,52.91613,0,0,0,26.09429,1.35923l.17127.64777A44.73735,44.73735,0,0,1,409.04383,171.64128Z"/><polygon fill="#303443" points="432.013 202.132 411.726 202.092 411.728 201.422 432.016 201.462 432.013 202.132"/><path fill="#f15b43" d="M483.42435,387.38111l-9.91385,29.728c-8.61528,25.83577-28.54409,43.552-55.76722,42.76728l-161.18674-4.64211a73.40715,73.40715,0,0,1-70.35576-61.68539l-9.61141-59.57176s50.76984-2.93548,87.08268,18.62356,55.04208,67.83178,55.04208,67.83178l90.34305,7.71361s30.298-31.95065,74.36717-40.76495"/><path fill="#cf2633" d="M304.04384,455.23369a73.40611,73.40611,0,0,1-70.35578-61.68425l-8.9357-55.3951a202.98722,202.98722,0,0,0-48.16265-4.17779l9.61139,59.57289a73.40521,73.40521,0,0,0,70.35577,61.68425l161.18676,4.64325a56.23277,56.23277,0,0,0,12.49176-1.00848Z"/><path fill="#fff" d="M409.05777,440.3877c-.34743,0-.69368-.01573-1.04221-.045l-90.34195-7.71137a12.24234,12.24234,0,0,1-10.54115-8.2353,114.91375,114.91375,0,0,0-105.80741-77.41731l-34.37234-.76225a12.24147,12.24147,0,0,1,.26757-24.47989c.09219,0,.18326.00112.2777.00225l34.369.76338a139.531,139.531,0,0,1,125.58671,86.39013l77.70739,6.63544c12.90774-10.19263,53.88181-39.92062,93.92948-40.93359a12.24049,12.24049,0,1,1,.61947,24.47315c-38.71314.98035-82.24157,37.99025-82.67665,38.36575a12.25033,12.25033,0,0,1-7.97557,2.95458"/><path fill="#d4e5f0" d="M503.95658,375.45439a12.23714,12.23714,0,0,1-11.89817,11.372c-38.712.97925-82.23934,37.99025-82.67665,38.36463a12.24591,12.24591,0,0,1-7.97558,2.95459c-.34629,0-.69258-.01462-1.0411-.045L310.022,420.38927a12.22471,12.22471,0,0,1-4.97152-1.54025c.733,1.82806,1.43906,3.67075,2.08217,5.54716a12.23944,12.23944,0,0,0,10.54114,8.23415l90.342,7.71251c.34852.02923.69478.045,1.0422.045a12.25038,12.25038,0,0,0,7.97558-2.95459c.43508-.37551,43.9635-37.3854,82.67665-38.36576a12.24983,12.24983,0,0,0,4.24638-23.61308"/><path fill="#edf2fa" d="M321.794,396.82105a138.41044,138.41044,0,0,0-9.07964-14.89659,137.63844,137.63844,0,0,1,7.08852,14.728Z"/><path fill="#d4e5f0" d="M193.67314,334.73689l-34.37009-.76225a12.19265,12.19265,0,0,1-4.27224-.88255c-.01461.20462-.03935.40587-.04384.61385a12.2419,12.2419,0,0,0,11.9656,12.5109l34.37236.76225A114.95258,114.95258,0,0,1,291.967,395.00233a114.992,114.992,0,0,0-98.29391-60.26544"/><path fill="#f7f7f7" d="M187.60713 365.98927c2.95346 0 2.95907-4.59039 0-4.59039-2.95348 0-2.95909 4.59039 0 4.59039M226.7194 366.54039c2.95346 0 2.958-4.59152 0-4.59152-2.95459 0-2.95908 4.59152 0 4.59152M211.84586 378.65924c2.95346 0 2.958-4.59039 0-4.59039-2.95459 0-2.95908 4.59039 0 4.59039"/><path fill="#fff" d="M255.36415,397.93982c2.95346,0,2.95907-4.59039,0-4.59039-2.95348,0-2.95909,4.59039,0,4.59039"/><path fill="#f7f7f7" d="M231.67653 426.03344c2.95458 0 2.95907-4.59039 0-4.59039-2.95347 0-2.95908 4.59039 0 4.59039M211.84586 417.29392c2.95346 0 2.958-4.59039 0-4.59039-2.95459 0-2.95908 4.59039 0 4.59039M227.55609 444.76391c2.95457 0 2.95906-4.59153 0-4.59153-2.95348 0-2.958 4.59153 0 4.59153"/><path fill="#fff" d="M254.46934 378.56705c2.95346 0 2.95907-4.59039 0-4.59039-2.95459 0-2.95909 4.59039 0 4.59039M254.263 424.93223c2.95346 0 2.958-4.59039 0-4.59039-2.95459 0-2.95908 4.59039 0 4.59039M280.7042 422.17753c2.95344 0 2.95907-4.5904 0-4.5904-2.95348 0-2.9591 4.5904 0 4.5904"/><path fill="#f7f7f7" d="M204.133,402.53021c8.86149,0,8.87724-13.77232,0-13.77232-8.86151,0-8.87613,13.77232,0,13.77232"/><path fill="#fff" d="M229.473,385.45321c8.86149,0,8.87724-13.77232,0-13.77232-8.86151,0-8.87613,13.77232,0,13.77232"/><path fill="#f0efef" d="M229.473,385.45321a7.00182,7.00182,0,0,0,2.81854-.56213l-2.12038-13.14047c-.23384-.02024-.4497-.06972-.69816-.06972-8.86151,0-8.87613,13.77232,0,13.77232"/><path fill="#f7f7f7" d="M234.98236,414.64908c8.86149,0,8.8761-13.77119,0-13.77119-8.86151,0-8.87726,13.77119,0,13.77119"/><path fill="#f0efef" d="M234.98236,414.64908a6.35288,6.35288,0,0,0,4.62861-1.81569,73.1534,73.1534,0,0,1-4.333-11.9274c-.10229-.00336-.19-.0281-.29566-.0281-8.86265,0-8.87726,13.77119,0,13.77119"/><path fill="#f7f7f7" d="M259.77129,449.35432c8.86147,0,8.87609-13.77233,0-13.77233-8.86151,0-8.87726,13.77233,0,13.77233"/><path fill="#f0efef" d="M266.33794 443.509a73.591 73.591 0 01-9.51135-7.31337c-5.77425 2.66565-4.804 13.15846 2.94447 13.15846a6.38442 6.38442 0 006.56688-5.84509M206.33648 363.96906c8.86149 0 8.87724-13.77119 0-13.77119-8.86151 0-8.87613 13.77119 0 13.77119"/></svg>