<svg xmlns="http://www.w3.org/2000/svg" data-name="Layer 1" viewBox="0 0 700 550"><defs><clipPath id="a"><path fill="none" d="M238.85365,279.33909a46.71166,46.71166,0,1,0,46.71156-46.80858,46.76012,46.76012,0,0,0-46.71156,46.80858"/></clipPath></defs><path fill="#afc4db" d="M448.38075,445.05753h-98.8445a.59887.59887,0,0,1,0-1.19774h98.8445a.59887.59887,0,0,1,0,1.19774Z"/><path fill="#afc4db" d="M424.89514 468.78643a.59853.59853 0 01-.59887-.59887V444.385a.59887.59887 0 011.19774 0v23.80259A.59853.59853 0 01424.89514 468.78643zM448.38075 421.10288h-98.8445a.59887.59887 0 010-1.19773h98.8445a.59887.59887 0 110 1.19773z"/><path fill="#afc4db" d="M448.38426 421.10288H350.45911a.59887.59887 0 010-1.19773h97.92515a.59887.59887 0 110 1.19773zM447.45672 469.01217H349.53157a.59887.59887 0 010-1.19773h97.92515a.59887.59887 0 110 1.19773z"/><path fill="#afc4db" d="M388.96317 444.89494a.59852.59852 0 01-.59887-.59886V420.48179a.59887.59887 0 111.19774 0v23.81429A.59852.59852 0 01388.96317 444.89494zM365.00852 468.78643a.59852.59852 0 01-.59886-.59887V444.385a.59887.59887 0 111.19773 0v23.80259A.59852.59852 0 01365.00852 468.78643z"/><path fill="#edf2fa" d="M565.8098,203.94423c29.17915,25.12244,24.4864,80.48763,13.193,112.84077-3.00507,8.60451-20.84291,59.69737-63.70135,72.35381-44.81675,13.23613-65.03448-30.8979-124.40126-32.23217-66.16875-1.48759-79.254,52.47863-136.04325,51.40906-62.65337-1.181-147.05757-68.757-142.42952-156.54361,3.60636-68.39411,60.30821-131.12293,114.18939-133.59025,60.68911-2.77875,70.453,73.06525,154.874,94.10342,87.54466,21.81669,143.99018-43.06207,184.31905-8.341"/><path fill="#f15b43" d="M400.201,394.79066A56.56831,56.56831,0,1,1,343.63333,338.223,56.56828,56.56828,0,0,1,400.201,394.79066"/><path fill="#ffcc5d" d="M328.00616 449.15417l49.68071-99.53035A56.28621 56.28621 0 00354.6485 339.303l-48.66029 97.699a56.42659 56.42659 0 0022.018 12.15218M350.15953 450.97185a56.1547 56.1547 0 0021.14-6.84623l28.50363-55.94968a56.17167 56.17167 0 00-7.19-21.67057z"/><path fill="#edf2fa" d="M327.13589,121.74517c-6.433,12.9511,40.33483,62.37313,101.01554,69.32475,31.9579,3.66148,75.07148-3.62192,76.25722-15.846,2.40025-24.75594-166.66445-74.83433-177.27276-53.47878"/><path fill="#afc4db" d="M212.99827,316.86156h-98.8445a.59887.59887,0,0,1,0-1.19773h98.8445a.59887.59887,0,1,1,0,1.19773Z"/><path fill="#afc4db" d="M213.003 316.86156H115.07664a.59887.59887 0 110-1.19773H213.003a.59887.59887 0 110 1.19773zM212.99827 340.81621h-98.8445a.59887.59887 0 010-1.19773h98.8445a.59887.59887 0 110 1.19773z"/><path fill="#afc4db" d="M153.58069 340.6548a.59853.59853 0 01-.59887-.59887V316.24047a.59887.59887 0 011.19774 0v23.81546A.59853.59853 0 01153.58069 340.6548zM129.626 364.54628a.59852.59852 0 01-.59886-.59886V340.14483a.59887.59887 0 111.19773 0v23.80259A.59852.59852 0 01129.626 364.54628zM189.51266 364.54628a.59852.59852 0 01-.59887-.59886V340.14483a.59887.59887 0 011.19774 0v23.80259A.59852.59852 0 01189.51266 364.54628z"/><path fill="#afc4db" d="M212.07541 364.77086H114.15026a.59887.59887 0 010-1.19773h97.92515a.59887.59887 0 110 1.19773zM537.51473 232.63431h-78.8012a.59887.59887 0 010-1.19773h78.8012a.59887.59887 0 110 1.19773z"/><path fill="#afc4db" d="M537.51707 232.63431H459.44925a.59887.59887 0 110-1.19773h78.06782a.59887.59887 0 110 1.19773zM537.51473 251.73136h-78.8012a.59887.59887 0 010-1.19773h78.8012a.59887.59887 0 110 1.19773z"/><path fill="#afc4db" d="M490.14465 251.60036a.59853.59853 0 01-.59887-.59887V232.0179a.59887.59887 0 111.19774 0v18.98359A.59853.59853 0 01490.14465 251.60036zM471.0476 270.64828a.59852.59852 0 01-.59886-.59887V251.07284a.59887.59887 0 111.19773 0v18.97657A.59852.59852 0 01471.0476 270.64828zM518.79081 270.64828a.59852.59852 0 01-.59887-.59887V251.07284a.59887.59887 0 111.19773 0v18.97657A.59852.59852 0 01518.79081 270.64828z"/><path fill="#afc4db" d="M536.77785,270.82841H458.71119a.59887.59887,0,0,1,0-1.19774h78.06666a.59887.59887,0,0,1,0,1.19774Z"/><path fill="#cf2633" d="M310.82611,394.79066a56.581,56.581,0,0,1,44.68739-55.30887,56.5683,56.5683,0,1,0,0,110.61656,56.57969,56.57969,0,0,1-44.68739-55.30769"/><path fill="#1b202b" d="M343.63271,338.22235a56.76818,56.76818,0,0,1,11.01554,1.08037l-1.3786-13.1487H333.69272l-1.38338,13.2038a56.79423,56.79423,0,0,1,11.32337-1.13547"/><path fill="#303443" d="M343.47858 327.35108a7.68409 7.68409 0 117.68467-7.6835A7.69244 7.69244 0 01343.47858 327.35108zm0-12.9727a5.28862 5.28862 0 105.28921 5.2892A5.29485 5.29485 0 00343.47858 314.37838zM342.28553 307.63528a1.19083 1.19083 0 011.186-1.19773h0a1.20258 1.20258 0 011.20943 1.19773h0a1.20333 1.20333 0 01-1.20943 1.19773h0A1.19158 1.19158 0 01342.28553 307.63528zm0-4.80379a1.19158 1.19158 0 011.186-1.19774h0a1.20333 1.20333 0 011.20943 1.19774h0a1.20605 1.20605 0 01-1.20943 1.2106h0A1.1945 1.1945 0 01342.28553 302.83149zm0-4.79093a1.19158 1.19158 0 011.186-1.19773h0a1.20333 1.20333 0 011.20943 1.19773h0a1.20258 1.20258 0 01-1.20943 1.19773h0A1.19083 1.19083 0 01342.28553 298.04056zm0-4.79093a1.18419 1.18419 0 011.186-1.19773h0a1.19591 1.19591 0 011.20943 1.19773h0a1.20258 1.20258 0 01-1.20943 1.19773h0A1.19083 1.19083 0 01342.28553 293.24963zm0-4.80263a1.19158 1.19158 0 011.186-1.19773h0A1.20333 1.20333 0 01344.681 288.447h0a1.20333 1.20333 0 01-1.20943 1.19773h0A1.19158 1.19158 0 01342.28553 288.447zm0-4.80262a1.18159 1.18159 0 011.186-1.186h0a1.1935 1.1935 0 011.20943 1.186h0a1.19591 1.19591 0 01-1.20943 1.19773h0A1.18419 1.18419 0 01342.28553 283.64438zm0-4.79093a1.19158 1.19158 0 011.186-1.19774h0a1.20333 1.20333 0 011.20943 1.19774h0a1.20333 1.20333 0 01-1.20943 1.19773h0A1.19158 1.19158 0 01342.28553 278.85345zm0-4.79093a1.19423 1.19423 0 011.186-1.20943h0a1.20579 1.20579 0 011.20943 1.20943h0a1.20333 1.20333 0 01-1.20943 1.19773h0A1.19158 1.19158 0 01342.28553 274.06252zm0-4.80263a1.19158 1.19158 0 011.186-1.19773h0a1.20333 1.20333 0 011.20943 1.19773h0a1.20333 1.20333 0 01-1.20943 1.19773h0A1.19158 1.19158 0 01342.28553 269.25989zm0-4.80379a1.1806 1.1806 0 011.186-1.18487h0a1.19252 1.19252 0 011.20943 1.18487h0a1.206 1.206 0 01-1.20943 1.21059h0A1.1945 1.1945 0 01342.28553 264.4561zm0-4.79093a1.19158 1.19158 0 011.186-1.19774h0a1.20333 1.20333 0 011.20943 1.19774h0a1.20258 1.20258 0 01-1.20943 1.19773h0A1.19084 1.19084 0 01342.28553 259.66517zm0-4.79093a1.1842 1.1842 0 011.186-1.19774h0a1.19591 1.19591 0 011.20943 1.19774h0a1.19275 1.19275 0 01-1.20943 1.186h0A1.18085 1.18085 0 01342.28553 254.87424zm0-4.80263a1.19158 1.19158 0 011.186-1.19773h0a1.20333 1.20333 0 011.20943 1.19773h0a1.20333 1.20333 0 01-1.20943 1.19773h0A1.19158 1.19158 0 01342.28553 250.07161zm0-4.79093a1.18419 1.18419 0 011.186-1.19773h0a1.19591 1.19591 0 011.20943 1.19773h0a1.1935 1.1935 0 01-1.20943 1.186h0A1.18159 1.18159 0 01342.28553 245.28068zm0-4.80262a1.19158 1.19158 0 011.186-1.19774h0a1.20333 1.20333 0 011.20943 1.19774h0a1.20333 1.20333 0 01-1.20943 1.19773h0A1.19158 1.19158 0 01342.28553 240.47806zm0-4.79093a1.19423 1.19423 0 011.186-1.20943h0a1.20579 1.20579 0 011.20943 1.20943h0a1.20333 1.20333 0 01-1.20943 1.19773h0A1.19158 1.19158 0 01342.28553 235.68713zm0-4.80263a1.19158 1.19158 0 011.186-1.19773h0a1.20333 1.20333 0 011.20943 1.19773h0a1.20333 1.20333 0 01-1.20943 1.19773h0A1.19158 1.19158 0 01342.28553 230.8845zm0-4.80263a1.18085 1.18085 0 011.186-1.186h0a1.19275 1.19275 0 011.20943 1.186h0a1.19591 1.19591 0 01-1.20943 1.19774h0A1.1842 1.1842 0 01342.28553 226.08187zm0-4.79093a1.19084 1.19084 0 011.186-1.19773h0a1.20258 1.20258 0 011.20943 1.19773h0a1.20333 1.20333 0 01-1.20943 1.19774h0A1.19158 1.19158 0 01342.28553 221.29094zm0-4.79093a1.1945 1.1945 0 011.186-1.21059h0A1.206 1.206 0 01344.681 216.5h0a1.20333 1.20333 0 01-1.20943 1.19774h0A1.19158 1.19158 0 01342.28553 216.5zm0-4.80379a1.19158 1.19158 0 011.186-1.19773h0a1.20333 1.20333 0 011.20943 1.19773h0a1.20333 1.20333 0 01-1.20943 1.19773h0A1.19158 1.19158 0 01342.28553 211.69622zm0-4.79093a1.18419 1.18419 0 011.186-1.19773h0a1.19591 1.19591 0 011.20943 1.19773h0a1.1935 1.1935 0 01-1.20943 1.186h0A1.18159 1.18159 0 01342.28553 206.90529zm0-4.80263a1.19158 1.19158 0 011.186-1.19773h0a1.20333 1.20333 0 011.20943 1.19773h0a1.20333 1.20333 0 01-1.20943 1.19774h0A1.19158 1.19158 0 01342.28553 202.10266zm0-4.80262a1.19158 1.19158 0 011.186-1.19773h0A1.20333 1.20333 0 01344.681 197.3h0a1.2058 1.2058 0 01-1.20943 1.20943h0A1.19423 1.19423 0 01342.28553 197.3zm0-4.79093a1.19158 1.19158 0 011.186-1.19773h0a1.20333 1.20333 0 011.20943 1.19773h0a1.20333 1.20333 0 01-1.20943 1.19773h0A1.19158 1.19158 0 01342.28553 192.50911zm0-4.79093a1.18346 1.18346 0 011.186-1.19773h0a1.19517 1.19517 0 011.20943 1.19773h0a1.19349 1.19349 0 01-1.20943 1.186h0A1.18159 1.18159 0 01342.28553 187.71818zm0-4.80263a1.19083 1.19083 0 011.186-1.19773h0a1.20258 1.20258 0 011.20943 1.19773h0a1.20333 1.20333 0 01-1.20943 1.19774h0A1.19158 1.19158 0 01342.28553 182.91555zm0-4.80379a1.19158 1.19158 0 011.186-1.19774h0a1.20333 1.20333 0 011.20943 1.19774h0a1.20605 1.20605 0 01-1.20943 1.2106h0A1.1945 1.1945 0 01342.28553 178.11176zm0-4.79093a1.19158 1.19158 0 011.186-1.19773h0a1.20333 1.20333 0 011.20943 1.19773h0a1.20258 1.20258 0 01-1.20943 1.19773h0A1.19083 1.19083 0 01342.28553 173.32083zm0-4.79093a1.18419 1.18419 0 011.186-1.19773h0a1.19591 1.19591 0 011.20943 1.19773h0a1.20258 1.20258 0 01-1.20943 1.19773h0A1.19083 1.19083 0 01342.28553 168.5299zm0-4.80263a1.19158 1.19158 0 011.186-1.19773h0a1.20333 1.20333 0 011.20943 1.19773h0a1.20333 1.20333 0 01-1.20943 1.19773h0A1.19158 1.19158 0 01342.28553 163.72727zm0-4.80262a1.18159 1.18159 0 011.186-1.186h0a1.1935 1.1935 0 011.20943 1.186h0a1.19591 1.19591 0 01-1.20943 1.19773h0A1.18419 1.18419 0 01342.28553 158.92465zm0-4.79093a1.19158 1.19158 0 011.186-1.19774h0a1.20333 1.20333 0 011.20943 1.19774h0a1.20333 1.20333 0 01-1.20943 1.19773h0A1.19158 1.19158 0 01342.28553 154.13372zm0-4.79093a1.19349 1.19349 0 011.186-1.20943h0a1.20505 1.20505 0 011.20943 1.20943h0a1.19349 1.19349 0 01-1.20943 1.186h0A1.18159 1.18159 0 01342.28553 149.34279zm0-4.80263a1.19083 1.19083 0 011.186-1.19773h0a1.20258 1.20258 0 011.20943 1.19773h0a1.20333 1.20333 0 01-1.20943 1.19773h0A1.19158 1.19158 0 01342.28553 144.54016zm0-4.80379a1.19158 1.19158 0 011.186-1.19774h0a1.20333 1.20333 0 011.20943 1.19774h0a1.206 1.206 0 01-1.20943 1.21059h0A1.1945 1.1945 0 01342.28553 139.73637zm0-4.79093a1.19158 1.19158 0 011.186-1.19774h0a1.20333 1.20333 0 011.20943 1.19774h0a1.20258 1.20258 0 01-1.20943 1.19773h0A1.19084 1.19084 0 01342.28553 134.94544zm0-4.79093a1.1842 1.1842 0 011.186-1.19774h0a1.19591 1.19591 0 011.20943 1.19774h0a1.20258 1.20258 0 01-1.20943 1.19773h0A1.19083 1.19083 0 01342.28553 130.15451zm0-4.80263a1.19158 1.19158 0 011.186-1.19773h0a1.20333 1.20333 0 011.20943 1.19773h0a1.20333 1.20333 0 01-1.20943 1.19773h0A1.19158 1.19158 0 01342.28553 125.35188zm0-4.80262a1.18159 1.18159 0 011.186-1.186h0a1.1935 1.1935 0 011.20943 1.186h0a1.19591 1.19591 0 01-1.20943 1.19773h0A1.18419 1.18419 0 01342.28553 120.54926zm0-4.79093a1.19158 1.19158 0 011.186-1.19774h0a1.20333 1.20333 0 011.20943 1.19774h0a1.20333 1.20333 0 01-1.20943 1.19773h0A1.19158 1.19158 0 01342.28553 115.75833zm0-4.79093a1.19349 1.19349 0 011.186-1.20943h0a1.20505 1.20505 0 011.20943 1.20943h0a1.20333 1.20333 0 01-1.20943 1.19773h0A1.19158 1.19158 0 01342.28553 110.9674zm0-4.80263a1.19083 1.19083 0 011.186-1.19773h0a1.20258 1.20258 0 011.20943 1.19773h0a1.20333 1.20333 0 01-1.20943 1.19773h0A1.19158 1.19158 0 01342.28553 106.16477zm0-4.8038a1.1806 1.1806 0 011.186-1.18486h0A1.19252 1.19252 0 01344.681 101.361h0a1.19518 1.19518 0 01-1.20943 1.19774h0A1.18346 1.18346 0 01342.28553 101.361zm0-4.79092a1.19158 1.19158 0 011.186-1.19774h0a1.20333 1.20333 0 011.20943 1.19774h0a1.20258 1.20258 0 01-1.20943 1.19773h0A1.19084 1.19084 0 01342.28553 96.57005zm0-4.79093a1.19423 1.19423 0 011.186-1.20943h0a1.20579 1.20579 0 011.20943 1.20943h0a1.20258 1.20258 0 01-1.20943 1.19773h0A1.19084 1.19084 0 01342.28553 91.77912zm0-4.80263a1.19158 1.19158 0 011.186-1.19773h0a1.20333 1.20333 0 011.20943 1.19773h0a1.20333 1.20333 0 01-1.20943 1.19773h0A1.19158 1.19158 0 01342.28553 86.97649zm0-4.79093a1.18419 1.18419 0 011.186-1.19773h0a1.19591 1.19591 0 011.20943 1.19773h0a1.20333 1.20333 0 01-1.20943 1.19773h0A1.19158 1.19158 0 01342.28553 82.18556z"/><path fill="#f39821" d="M287.1709 398.14179a56.30356 56.30356 0 003.55127 16.66885L325.763 341.12136a56.337 56.337 0 00-14.94767 7.60679zM332.82044 439.508a56.67994 56.67994 0 01-17.16831-21.90891l-9.6633 19.40207.01795.01557c.74021.66113 1.502 1.30074 2.2781 1.92115.0958.07906.194.15332.29106.23117q1.06179.839 2.16069 1.62532c.109.08025.22037.15811.33058.236q1.14441.80665 2.32839 1.55824c.06586.04072.12936.085.19405.12576a56.463 56.463 0 0014.40989 6.439l.006.0012zM354.6405 339.3184l-.224.448c.35693-.08264.70187-.19762 1.06117-.27429-.13173-.02874-.2623-.06228-.394-.08982-.14613-.02994-.29585-.0539-.44315-.08385"/><path fill="#303443" d="M344.62134 338.23718l-45.00971 92.08167c-.4199-.515-.827-1.03-1.22229-1.569l44.23188-90.51265c.33569-.012.67139-.012 1.00708-.012C343.96282 338.22519 344.28682 338.22519 344.62134 338.23718zM386.37471 357.74822l-48.23212 93.35126c-.64682-.05987-1.28195-.13173-1.91707-.21558l48.86724-94.561C385.53606 356.79005 385.96767 357.26917 386.37471 357.74822zM312.31883 347.66333l-25.02021 52.293q-.18072-1.83256-.21522-3.701v-.012l22.20483-46.41213C310.27075 349.07665 311.28952 348.358 312.31883 347.66333zM326.94309 340.72849L291.16668 415.97c-.32282-.76656-.61056-1.54512-.88543-2.3236L324.58389 341.507h.01169C325.37458 341.23151 326.1407 340.96805 326.94309 340.72849zM355.55767 339.4828L306.67755 437.625c-.46669-.40719-.92169-.81445-1.37669-1.24561l48.43564-97.25589C354.34707 339.23132 354.94593 339.35107 355.55767 339.4828zM378.42219 350.17861l-49.53863 99.2321c-.59887-.15571-1.186-.32341-1.772-.49111l49.8369-99.843C377.45137 349.436 377.94263 349.80725 378.42219 350.17861zM393.15406 367.4379L351.23343 450.848c-.70647.10776-1.42582.17962-2.144.25148l42.9862-85.51805C392.44759 366.19229 392.80667 366.81506 393.15406 367.4379zM399.98137 389.81154l-27.26011 53.50268c-.92286.551-1.85742 1.09-2.81537 1.581l29.70353-58.3056C399.765 387.65563 399.88546 388.73355 399.98137 389.81154z"/><path fill="#ffcc5d" d="M332.27655,279.33945A46.71166,46.71166,0,1,1,285.565,232.53088a46.76013,46.76013,0,0,1,46.71156,46.80857"/><path fill="#f39821" d="M261.83492,279.33945a46.80588,46.80588,0,0,1,35.22048-45.37727,46.80858,46.80858,0,1,0,0,90.75456,46.80693,46.80693,0,0,1-35.22048-45.37729"/><g clip-path="url(#a)"><polygon fill="#f15b43" points="281.94 263.979 268.072 255.556 276.477 241.657 290.347 250.081 281.94 263.979"/><path fill="#cf2633" d="M268.07151,255.55546l.18082.11021a47.01948,47.01948,0,0,1,10.68258-12.51511l-2.45654-1.49355Z"/><path fill="#4da258" d="M275.507,237.6889l4.03394-6.67013a47.93511,47.93511,0,0,0-10.667,2.64219Z"/><polygon fill="#82c56d" points="288.428 290.489 274.559 282.065 282.964 268.165 296.835 276.59 288.428 290.489"/><polygon fill="#82c56d" points="294.915 316.997 281.047 308.573 289.452 294.674 303.322 303.098 294.915 316.997"/><path fill="#f15b43" d="M295.85446,320.83535l-3.834,6.33841a47.94213,47.94213,0,0,0,10.22024-2.46133Z"/><path fill="#cf2633" d="M297.05581,324.71636c-1.0205-.2587-2.0218-.55934-3.01473-.88392l-1.02645,1.69838c1.36543-.22039,2.71888-.47908,4.04118-.81446"/><polygon fill="#f15b43" points="308.41 257.544 294.541 249.12 302.947 235.222 316.816 243.645 308.41 257.544"/><polygon fill="#82c56d" points="314.898 284.052 301.028 275.628 309.434 261.73 323.305 270.153 314.898 284.052"/><polygon fill="#f15b43" points="321.385 310.561 307.516 302.137 315.922 288.238 329.792 296.663 321.385 310.561"/><polygon fill="#4da258" points="253.949 273.114 240.08 264.691 248.486 250.792 262.356 259.216 253.949 273.114"/><polygon fill="#f15b43" points="260.437 299.622 246.567 291.199 254.973 277.3 268.844 285.724 260.437 299.622"/><path fill="#cf2633" d="M260.43717 299.62244l3.62314-5.99224a46.71554 46.71554 0 01-2.17389-12.13181l-6.91332-4.19806-8.40569 13.89847zM254.20873 315.79888a48.34629 48.34629 0 0013.87572 8.41288l7.24627-11.97972L261.461 303.8084z"/><path fill="#f15b43" d="M331.38531,262.76532l-3.3441,5.52877,5.60421,3.40393a48.24924,48.24924,0,0,0-2.26011-8.9327"/></g><path fill="#1b202b" d="M285.565,232.53073a46.83218,46.83218,0,0,1,9.09674.89472l-1.13782-10.88018H277.3581l-1.14382,10.92452a46.89337,46.89337,0,0,1,9.35071-.93906"/><path fill="#303443" d="M285.43769 223.74255a6.56473 6.56473 0 116.55478-6.5653A6.56653 6.56653 0 01285.43769 223.74255zm0-10.734a4.16927 4.16927 0 104.15931 4.16867A4.16846 4.16846 0 00285.43769 213.00858zM284.24346 204.86891a1.18674 1.18674 0 011.19774-1.19773h0a1.19332 1.19332 0 011.19773 1.19773h0a1.2 1.2 0 01-1.19773 1.19773h0A1.19332 1.19332 0 01284.24346 204.86891zm0-5.58045a1.19332 1.19332 0 011.19774-1.19773h0a1.2 1.2 0 011.19773 1.19773h0a1.20079 1.20079 0 01-1.19773 1.19773h0A1.19406 1.19406 0 01284.24346 199.28846zm0-5.56992a1.19665 1.19665 0 011.19774-1.20943h0a1.20332 1.20332 0 011.19773 1.20943h0a1.19083 1.19083 0 01-1.19773 1.186h0A1.1842 1.1842 0 01284.24346 193.71854zm0-5.58162a1.19406 1.19406 0 011.19774-1.19773h0a1.20079 1.20079 0 011.19773 1.19773h0a1.20079 1.20079 0 01-1.19773 1.19773h0A1.19406 1.19406 0 01284.24346 188.13692zm0-5.58162a1.19406 1.19406 0 011.19774-1.19773h0a1.20079 1.20079 0 011.19773 1.19773h0a1.19258 1.19258 0 01-1.19773 1.19773h0A1.186 1.186 0 01284.24346 182.5553zm0-5.56876a1.186 1.186 0 011.19774-1.19773h0a1.19258 1.19258 0 011.19773 1.19773h0a1.2008 1.2008 0 01-1.19773 1.19774h0A1.19407 1.19407 0 01284.24346 176.98654zm0-5.58162a1.19406 1.19406 0 011.19774-1.19773h0a1.2008 1.2008 0 011.19773 1.19773h0a1.2008 1.2008 0 01-1.19773 1.19774h0A1.19407 1.19407 0 01284.24346 171.40492zm0-5.58162a1.1842 1.1842 0 011.19774-1.186h0a1.19084 1.19084 0 011.19773 1.186h0a1.20258 1.20258 0 01-1.19773 1.20943h0A1.19591 1.19591 0 01284.24346 165.8233zm0-5.56992a1.19406 1.19406 0 011.19774-1.19773h0a1.20079 1.20079 0 011.19773 1.19773h0a1.2 1.2 0 01-1.19773 1.19773h0A1.19332 1.19332 0 01284.24346 160.25338zm0-5.58045a1.19332 1.19332 0 011.19774-1.19773h0a1.2 1.2 0 011.19773 1.19773h0a1.20079 1.20079 0 01-1.19773 1.19773h0A1.19406 1.19406 0 01284.24346 154.67293zm0-5.56992a1.18674 1.18674 0 011.19774-1.19774h0a1.19332 1.19332 0 011.19773 1.19774h0a1.20079 1.20079 0 01-1.19773 1.19773h0A1.19406 1.19406 0 01284.24346 149.103zm0-5.58162a1.19407 1.19407 0 011.19774-1.19774h0a1.2008 1.2008 0 011.19773 1.19774h0a1.20079 1.20079 0 01-1.19773 1.19773h0A1.19406 1.19406 0 01284.24346 143.52139zm0-5.56876a1.19692 1.19692 0 011.19774-1.2106h0a1.20359 1.20359 0 011.19773 1.2106h0a1.18985 1.18985 0 01-1.19773 1.18487h0A1.18322 1.18322 0 01284.24346 137.95263zm0-5.58162a1.19406 1.19406 0 011.19774-1.19773h0a1.20079 1.20079 0 011.19773 1.19773h0a1.2008 1.2008 0 01-1.19773 1.19774h0A1.19407 1.19407 0 01284.24346 132.371zm0-5.58162a1.19406 1.19406 0 011.19774-1.19773h0a1.20079 1.20079 0 011.19773 1.19773h0a1.19332 1.19332 0 01-1.19773 1.19774h0A1.18674 1.18674 0 01284.24346 126.78939zm0-5.56992a1.19406 1.19406 0 011.19774-1.19773h0a1.20079 1.20079 0 011.19773 1.19773h0a1.2 1.2 0 01-1.19773 1.19773h0A1.19332 1.19332 0 01284.24346 121.21947zm0-5.58162a1.19406 1.19406 0 011.19774-1.19773h0a1.20079 1.20079 0 011.19773 1.19773h0a1.2 1.2 0 01-1.19773 1.19773h0A1.19332 1.19332 0 01284.24346 115.63785zm0-5.58045a1.19332 1.19332 0 011.19774-1.19773h0a1.2 1.2 0 011.19773 1.19773h0a1.20332 1.20332 0 01-1.19773 1.20943h0A1.19665 1.19665 0 01284.24346 110.0574zm0-5.56992a1.19407 1.19407 0 011.19774-1.19774h0a1.2008 1.2008 0 011.19773 1.19774h0a1.20079 1.20079 0 01-1.19773 1.19773h0A1.19406 1.19406 0 01284.24346 104.48748zm0-5.58162a1.19407 1.19407 0 011.19774-1.19774h0a1.2008 1.2008 0 011.19773 1.19774h0a1.20079 1.20079 0 01-1.19773 1.19773h0A1.19406 1.19406 0 01284.24346 98.90586zm0-5.56876a1.186 1.186 0 011.19774-1.19773h0a1.19258 1.19258 0 011.19773 1.19773h0a1.2008 1.2008 0 01-1.19773 1.19774h0A1.19407 1.19407 0 01284.24346 93.3371zm0-5.58162a1.19406 1.19406 0 011.19774-1.19773h0a1.20079 1.20079 0 011.19773 1.19773h0a1.2008 1.2008 0 01-1.19773 1.19774h0A1.19407 1.19407 0 01284.24346 87.75548zm0-5.56992a1.18673 1.18673 0 011.19774-1.19773h0a1.19331 1.19331 0 011.19773 1.19773h0a1.19084 1.19084 0 01-1.19773 1.186h0A1.1842 1.1842 0 01284.24346 82.18556zM222.31345 286.10651a5.15354 5.15354 0 115.143-5.15469A5.15534 5.15534 0 01222.31345 286.10651zm0-7.91158a2.75808 2.75808 0 102.74753 2.75689A2.75551 2.75551 0 00222.31345 278.19493zM221.111 271.78636a1.20155 1.20155 0 011.19773-1.19773h0a1.20433 1.20433 0 011.2106 1.19773h0a1.20358 1.20358 0 01-1.2106 1.19773h0A1.20079 1.20079 0 01221.111 271.78636zm0-5.58045a1.20079 1.20079 0 011.19773-1.19773h0a1.20358 1.20358 0 011.2106 1.19773h0a1.20433 1.20433 0 01-1.2106 1.19773h0A1.20155 1.20155 0 01221.111 266.20591zm0-5.56993a1.20156 1.20156 0 011.19773-1.19773h0a1.20434 1.20434 0 011.2106 1.19773h0a1.20434 1.20434 0 01-1.2106 1.19774h0A1.20156 1.20156 0 01221.111 260.636zm0-5.58162a1.20156 1.20156 0 011.19773-1.19773h0a1.20434 1.20434 0 011.2106 1.19773h0a1.20434 1.20434 0 01-1.2106 1.19774h0A1.20156 1.20156 0 01221.111 255.05436zm0-5.56992a1.19406 1.19406 0 011.19773-1.19773h0a1.19691 1.19691 0 011.2106 1.19773h0a1.19376 1.19376 0 01-1.2106 1.186h0A1.19083 1.19083 0 01221.111 249.48444zm0-5.58045a1.20079 1.20079 0 011.19773-1.19773h0a1.20358 1.20358 0 011.2106 1.19773h0a1.20433 1.20433 0 01-1.2106 1.19773h0A1.20155 1.20155 0 01221.111 243.904zm0-5.58162a1.20155 1.20155 0 011.19773-1.19773h0a1.20433 1.20433 0 011.2106 1.19773h0a1.1969 1.1969 0 01-1.2106 1.19773h0A1.194 1.194 0 01221.111 238.32237zm0-5.56992a1.194 1.194 0 011.19773-1.19773h0a1.1969 1.1969 0 011.2106 1.19773h0a1.20433 1.20433 0 01-1.2106 1.19773h0A1.20155 1.20155 0 01221.111 232.75245zm0-5.58162a1.20155 1.20155 0 011.19773-1.19773h0a1.20433 1.20433 0 011.2106 1.19773h0a1.20358 1.20358 0 01-1.2106 1.19773h0A1.20079 1.20079 0 01221.111 227.17083zm0-5.58045a1.19083 1.19083 0 011.19773-1.186h0a1.19376 1.19376 0 011.2106 1.186h0a1.19691 1.19691 0 01-1.2106 1.19773h0A1.19406 1.19406 0 01221.111 221.59038zm0-5.56993a1.20156 1.20156 0 011.19773-1.19773h0a1.20434 1.20434 0 011.2106 1.19773h0a1.20434 1.20434 0 01-1.2106 1.19774h0A1.20156 1.20156 0 01221.111 216.02045zm0-5.58162a1.20156 1.20156 0 011.19773-1.19773h0a1.20434 1.20434 0 011.2106 1.19773h0a1.20434 1.20434 0 01-1.2106 1.19774h0A1.20156 1.20156 0 01221.111 210.43883zm0-5.56992a1.19406 1.19406 0 011.19773-1.19773h0a1.19691 1.19691 0 011.2106 1.19773h0a1.20358 1.20358 0 01-1.2106 1.19773h0A1.20079 1.20079 0 01221.111 204.86891zm0-5.58045a1.20079 1.20079 0 011.19773-1.19773h0a1.20358 1.20358 0 011.2106 1.19773h0a1.20433 1.20433 0 01-1.2106 1.19773h0A1.20155 1.20155 0 01221.111 199.28846zm0-5.58162a1.19158 1.19158 0 011.19773-1.186h0a1.19451 1.19451 0 011.2106 1.186h0a1.1969 1.1969 0 01-1.2106 1.19773h0A1.194 1.194 0 01221.111 193.70684zm0-5.56992a1.20155 1.20155 0 011.19773-1.19773h0a1.20433 1.20433 0 011.2106 1.19773h0a1.20433 1.20433 0 01-1.2106 1.19773h0A1.20155 1.20155 0 01221.111 188.13692zm0-5.58162a1.20155 1.20155 0 011.19773-1.19773h0a1.20433 1.20433 0 011.2106 1.19773h0a1.20358 1.20358 0 01-1.2106 1.19773h0A1.20079 1.20079 0 01221.111 182.5553zm0-5.56876a1.19331 1.19331 0 011.19773-1.19773h0a1.19617 1.19617 0 011.2106 1.19773h0a1.20434 1.20434 0 01-1.2106 1.19774h0A1.20156 1.20156 0 01221.111 176.98654zm0-5.58162a1.20156 1.20156 0 011.19773-1.19773h0a1.20434 1.20434 0 011.2106 1.19773h0a1.20434 1.20434 0 01-1.2106 1.19774h0A1.20156 1.20156 0 01221.111 171.40492zm0-5.56992a1.20408 1.20408 0 011.19773-1.20943h0a1.20679 1.20679 0 011.2106 1.20943h0a1.20358 1.20358 0 01-1.2106 1.19773h0A1.20079 1.20079 0 01221.111 165.835zm0-5.58162a1.20155 1.20155 0 011.19773-1.19773h0a1.20433 1.20433 0 011.2106 1.19773h0a1.20358 1.20358 0 01-1.2106 1.19773h0A1.20079 1.20079 0 01221.111 160.25338zm0-5.58045a1.20079 1.20079 0 011.19773-1.19773h0a1.20358 1.20358 0 011.2106 1.19773h0a1.20433 1.20433 0 01-1.2106 1.19773h0A1.20155 1.20155 0 01221.111 154.67293zm0-5.56992a1.19406 1.19406 0 011.19773-1.19774h0a1.19691 1.19691 0 011.2106 1.19774h0a1.20433 1.20433 0 01-1.2106 1.19773h0A1.20155 1.20155 0 01221.111 149.103zm0-5.58162a1.20156 1.20156 0 011.19773-1.19774h0a1.20434 1.20434 0 011.2106 1.19774h0a1.20433 1.20433 0 01-1.2106 1.19773h0A1.20155 1.20155 0 01221.111 143.52139zm0-5.56876a1.20434 1.20434 0 011.19773-1.2106h0a1.207 1.207 0 011.2106 1.2106h0a1.20434 1.20434 0 01-1.2106 1.19774h0A1.20156 1.20156 0 01221.111 137.95263zm0-5.58162a1.20155 1.20155 0 011.19773-1.19773h0a1.20433 1.20433 0 011.2106 1.19773h0a1.20434 1.20434 0 01-1.2106 1.19774h0A1.20156 1.20156 0 01221.111 132.371zm0-5.58162a1.20155 1.20155 0 011.19773-1.19773h0a1.20433 1.20433 0 011.2106 1.19773h0a1.20434 1.20434 0 01-1.2106 1.19774h0A1.20156 1.20156 0 01221.111 126.78939zm0-5.56992a1.20155 1.20155 0 011.19773-1.19773h0a1.20433 1.20433 0 011.2106 1.19773h0a1.20358 1.20358 0 01-1.2106 1.19773h0A1.20079 1.20079 0 01221.111 121.21947zm0-5.58162a1.20155 1.20155 0 011.19773-1.19773h0a1.20433 1.20433 0 011.2106 1.19773h0a1.20358 1.20358 0 01-1.2106 1.19773h0A1.20079 1.20079 0 01221.111 115.63785zm0-5.56875a1.19332 1.19332 0 011.19773-1.19774h0a1.19618 1.19618 0 011.2106 1.19774h0a1.20433 1.20433 0 01-1.2106 1.19773h0A1.20155 1.20155 0 01221.111 110.0691zm0-5.58162a1.20156 1.20156 0 011.19773-1.19774h0a1.20434 1.20434 0 011.2106 1.19774h0a1.20433 1.20433 0 01-1.2106 1.19773h0A1.20155 1.20155 0 01221.111 104.48748zm0-5.56993a1.20408 1.20408 0 011.19773-1.20943h0a1.20679 1.20679 0 011.2106 1.20943h0a1.19376 1.19376 0 01-1.2106 1.186h0A1.19083 1.19083 0 01221.111 98.91755zm0-5.58045a1.20079 1.20079 0 011.19773-1.19773h0a1.20358 1.20358 0 011.2106 1.19773h0a1.20434 1.20434 0 01-1.2106 1.19774h0A1.20156 1.20156 0 01221.111 93.3371zm0-5.58162a1.20155 1.20155 0 011.19773-1.19773h0a1.20433 1.20433 0 011.2106 1.19773h0a1.20434 1.20434 0 01-1.2106 1.19774h0A1.20156 1.20156 0 01221.111 87.75548zm0-5.56992a1.194 1.194 0 011.19773-1.19773h0a1.1969 1.1969 0 011.2106 1.19773h0a1.19451 1.19451 0 01-1.2106 1.186h0A1.19158 1.19158 0 01221.111 82.18556z"/><path fill="#f15b43" d="M222.31322,440.74428c53.07031-63.83314,0-154.88832,0-154.88832s-53.07153,91.05518,0,154.88832"/><path fill="#cf2633" d="M228.14164,297.42112c-3.34888-7.30855-5.8282-11.56527-5.8282-11.56527s-53.0715,91.05518,0,154.88832c2.11281-2.54278,4.04118-5.13228,5.8282-7.75411-33.3856-48.97288-11.53417-110.39739,0-135.56894"/><path fill="#ffcc5d" d="M208.41186,317.76508c3.78362,27.83171,26.43274,37.17284,36.73924,40.01266-.45756-4.51066-1.10672-8.92431-1.89843-13.20859-27.53586-13.5727-29.85347-40.06416-29.85347-40.06656-1.6301,3.93456-3.33689,8.38773-4.98734,13.26249"/><path fill="#f39821" d="M218.92366,321.26a48.71453,48.71453,0,0,1-5.524-16.75748v.00121c-.39166.94381-.7881,1.92-1.18575,2.92126-.03951.10061-.07906.20362-.11857.30423q-.58386,1.475-1.17258,3.02668l-.012.03353q-.59472,1.57021-1.187,3.2207c-.0503.13893-.09939.28028-.14972.41921-.38924,1.08992-.77729,2.199-1.16177,3.33567a46.8464,46.8464,0,0,0,6.3827,18.39957c1.23008-5.252,2.64219-10.2442,4.12861-14.90458"/><path fill="#ffcc5d" d="M200.526,373.214s-.74739-1.75228-1.76905-3.66506c-.3198,16.30114,2.24574,33.37721,9.84654,49.64a60.06387,60.06387,0,0,0,19.63082,13.66611,98.53313,98.53313,0,0,0,7.11932-12.29231C203.23405,404.49038,200.526,373.214,200.526,373.214"/><path fill="#f39821" d="M214.80645,404.61817a61.65031,61.65031,0,0,1-14.28057-31.40453s-.74739-1.75229-1.76785-3.66387c-.018.91387-.024,1.83133-.024,2.75,0,.12934-.0012.2587-.0012.39045.00239.83841.018,1.67923.03593,2.52124.006.21319.00838.42638.01438.63958.02157.79291.0551,1.587.091,2.38109.012.26231.02276.52581.03712.78932.03953.76055.08983,1.51991.14374,2.28167.02036.30183.04072.60245.06468.90428.05748.733.12455,1.46723.194,2.20145.03353.33055.06468.66234.09942.9941.07546.71505.15929,1.43009.24672,2.14753q.06648.52281.13415,1.04562.14015,1.05462.30183,2.11161c.0551.36171.11259.72583.17007,1.08875q.1689,1.04022.35693,2.07925c.06828.37369.13775.74619.21081,1.11988q.19582,1.02585.4132,2.05413c.08025.38087.1641.76055.25033,1.14142.15213.68032.30782,1.36183.47311,2.041.09222.37968.19044.76176.28865,1.14142.17368.67912.34975,1.35823.53779,2.03616.1054.37968.21679.757.327,1.13545.19643.68151.39526,1.36181.60726,2.04214.11618.3689.23835.73659.35812,1.1043.22278.6899.448,1.37739.68631,2.06489.12216.34973.25391.69948.37848,1.0492.25392.70429.509,1.40855.77972,2.11042.121.31261.25272.62522.37729.939.29223.7354.58569,1.472.89709,2.20621.10182.23957.2144.47671.3174.715.35094.80489.70427,1.611,1.078,2.41224a59.94388,59.94388,0,0,0,19.3685,13.54516,99.13315,99.13315,0,0,1-13.16544-28.11558"/><path fill="#303443" d="M244.65916 389.85947c-22.27782-13.00738-37.525-40.02822-42.42368-49.634l-.3713 1.7966c5.59341 10.69575 20.76868 36.51886 42.60334 49.07109zM238.11954 414.34112c-19.28349-9.522-34.94983-43.13034-38.99817-52.49661l-.16768 2.56315c5.18618 11.66591 20.086 41.89667 38.73467 50.99944zM240.32337 331.47h-.012c-9.53395-7.28222-20.3854-25.00866-24.6134-32.30285l-.58689 1.32949c4.70709 8.07271 15.858 26.02672 25.65543 32.71007z"/><path fill="#1b202b" d="M222.40687,297.84692a20.29777,20.29777,0,0,1,6.70127,1.1594l-.83839-14.09848h-11.909l-.842,14.15719a20.33961,20.33961,0,0,1,6.88817-1.21811"/><path fill="#303443" d="M471.657,83.44061H171.48936a1.19774,1.19774,0,0,1,0-2.39547H471.657a1.19774,1.19774,0,0,1,0,2.39547Z"/><path fill="#f15b43" d="M417.332,203.4389a42.61772,42.61772,0,1,1-42.61771-42.61771A42.61831,42.61831,0,0,1,417.332,203.4389"/><path fill="#cf2633" d="M351.507,203.4389a42.62452,42.62452,0,0,1,32.91245-41.49542,42.61829,42.61829,0,1,0,0,82.98968A42.62318,42.62318,0,0,1,351.507,203.4389"/><path fill="#1b202b" d="M374.71414,160.82119a42.69365,42.69365,0,0,1,8.30027.81448l-1.03964-9.90644H367.2259l-1.042,9.94716a42.7658,42.7658,0,0,1,8.53026-.8552"/><path fill="#303443" d="M374.59857,152.92663a6.084,6.084,0,1,1,6.08457-6.08458A6.09206,6.09206,0,0,1,374.59857,152.92663Zm0-9.77252a3.68853,3.68853,0,1,0,3.68911,3.68794A3.69247,3.69247,0,0,0,374.59857,143.15411Z"/><path fill="#303443" d="M373.40318 139.0065a1.20433 1.20433 0 011.19773-1.2106h0a1.20433 1.20433 0 011.19773 1.2106h0a1.19058 1.19058 0 01-1.19773 1.18486h0A1.19058 1.19058 0 01373.40318 139.0065zm0-6.32436a1.19158 1.19158 0 011.19773-1.186h0a1.19158 1.19158 0 011.19773 1.186h0a1.19406 1.19406 0 01-1.19773 1.19774h0A1.19406 1.19406 0 01373.40318 132.68214zm0-6.31148a1.2008 1.2008 0 011.19773-1.19774h0a1.2008 1.2008 0 011.19773 1.19774h0a1.19406 1.19406 0 01-1.19773 1.19773h0A1.19406 1.19406 0 01373.40318 126.37066zm0-6.31266a1.20155 1.20155 0 011.19773-1.19773h0a1.20155 1.20155 0 011.19773 1.19773h0a1.20155 1.20155 0 01-1.19773 1.19773h0A1.20155 1.20155 0 01373.40318 120.058zm0-6.31149a1.20079 1.20079 0 011.19773-1.19773h0a1.20079 1.20079 0 011.19773 1.19773h0a1.20155 1.20155 0 01-1.19773 1.19773h0A1.20155 1.20155 0 01373.40318 113.74651zm0-6.31266a1.20155 1.20155 0 011.19773-1.19773h0a1.20155 1.20155 0 011.19773 1.19773h0a1.20155 1.20155 0 01-1.19773 1.19773h0A1.20155 1.20155 0 01373.40318 107.43385zm0-6.31149a1.2008 1.2008 0 011.19773-1.19773h0a1.2008 1.2008 0 011.19773 1.19773h0a1.20156 1.20156 0 01-1.19773 1.19774h0A1.20156 1.20156 0 01373.40318 101.12236zm0-6.31265a1.19406 1.19406 0 011.19773-1.19774h0a1.19406 1.19406 0 011.19773 1.19774h0a1.20156 1.20156 0 01-1.19773 1.19773h0A1.20156 1.20156 0 01373.40318 94.80971zm0-6.31149a1.19331 1.19331 0 011.19773-1.19773h0a1.19331 1.19331 0 011.19773 1.19773h0a1.20155 1.20155 0 01-1.19773 1.19773h0A1.20155 1.20155 0 01373.40318 88.49822zm0-6.31266a1.194 1.194 0 011.19773-1.19773h0a1.194 1.194 0 011.19773 1.19773h0a1.20155 1.20155 0 01-1.19773 1.19773h0A1.20155 1.20155 0 01373.40318 82.18556zM416.81142 196.78119a42.2843 42.2843 0 00-1.94993-7.65707l-72.40531-13.51883a42.57647 42.57647 0 00-6.67734 10.50893z"/><path fill="#1b202b" d="M342.45607,175.60577h0a42.62648,42.62648,0,0,0-3.71181,4.98857l-.00358.006a42.64536,42.64536,0,0,0-2.962,5.51316l18.41634,2.42423a42.45614,42.45614,0,0,1,5.19216-9.77113Z"/><path fill="#303443" d="M401.78132,170.52005l-45.57253-5.482a42.61854,42.61854,0,0,0-6.62466,3.98727L409.98218,179.509a42.789,42.789,0,0,0-8.20086-8.989"/><path fill="#1b202b" d="M356.21011,165.03781c-.23478.11379-.46235.23719-.6935.35576-.34735.17487-.69708.34615-1.03723.53059a43.16592,43.16592,0,0,0-4.89514,3.10092l16.00051,2.77754a42.81441,42.81441,0,0,1,6.54319-4.8496Z"/><path fill="#303443" d="M332.15377,201.2213l82.09138,18.14088a42.29673,42.29673,0,0,0,2.80269-11.05508L333.1766,193.92232a42.55215,42.55215,0,0,0-1.02283,7.299"/><path fill="#1b202b" d="M351.55957,205.51037c-.03234-.6863-.0527-1.37618-.0527-2.07085a42.868,42.868,0,0,1,.47071-6.29171l-18.802-3.22549q-.19223.85159-.35451,1.71754c-.012.0659-.02394.133-.03593.20005-.09464.5198-.17966,1.0444-.2563,1.57023-.02877.20838-.05392.418-.07907.62639-.0527.412-.10658.82165-.1473,1.23608-.06349.64558-.115,1.29474-.14855,1.94869Z"/><path fill="#303443" d="M334.47665,217.48543,407.42691,230.748a42.74926,42.74926,0,0,0,4.45556-6.46179l-79.44319-15.5238a42.37852,42.37852,0,0,0,2.03737,8.72307"/><path fill="#1b202b" d="M355.42176,221.29267a42.24377,42.24377,0,0,1-2.90811-8.60808l-20.074-3.92256.0012.006q.14015,1.11926.33657,2.22177l.006.03114q.194,1.08516.44432,2.15353l.0132.06229q.24792,1.05461.54857,2.09124c.006.02273.01316.04551.02036.06828q.3072,1.05456.66714,2.08642l.00117.00241Z"/><path fill="#303443" d="M400.29936,237.52288l-60.79091-10.06811a42.94569,42.94569,0,0,0,4.78135,5.81618l47.35353,9.28242a42.58641,42.58641,0,0,0,8.656-5.03049"/><path fill="#1b202b" d="M339.53433,227.49067a42.86608,42.86608,0,0,0,4.75617,5.78028l25.22186,4.94422a42.85811,42.85811,0,0,1-7.76011-7.07619l-22.2431-3.683c.0072.01079.01677.02277.02518.03473"/><path fill="#82c56d" d="M200.10725,166.90927s0,9.56271,19.08466,19.43563c19.08345,9.87051,29.54924,41.02712,2.15353,54.29319-27.39455,13.2649-27.70235,19.12541-27.70235,19.12541s-.30782-5.86051-27.70235-19.12541c-27.39573-13.26607-16.93-44.42268,2.15351-54.29319,19.08467-9.87292,19.08467-19.43563,19.08467-19.43563Z"/><path fill="#4da258" d="M180.90139,240.63772c-27.39454-13.26486-16.93-44.42147,2.15472-54.29319,11.90546-6.15874,16.38378-12.19652,18.06778-15.86637a9.58151,9.58151,0,0,1-1.01687-3.56922H187.1787s0,9.56388-19.08346,19.43559c-19.08468,9.87172-29.55045,41.02833-2.15474,54.29319,27.39455,13.2649,27.70235,19.12662,27.70235,19.12662s.14014-2.42182,7.481-7.6631a141.66494,141.66494,0,0,0-20.2225-11.46352"/><path fill="#f15b43" d="M153.46816,200.93H233.818a37.7134,37.7134,0,0,0-4.27708-6.20545H157.74526a37.71351,37.71351,0,0,0-4.2771,6.20545"/><path fill="#cf2633" d="M157.74562,194.72493l-.00241.00362q-.59826.70606-1.16178,1.43967c-.01557.02156-.03235.04313-.04911.06466q-.539.70788-1.048,1.44087c-.03595.05271-.07067.10542-.1066.15813q-.4815.70245-.93065,1.4253c-.04311.06945-.08383.14011-.12575.2108-.29465.48029-.58209.96775-.8528,1.46244h14.96208a37.56784,37.56784,0,0,1,4.2771-6.20549Z"/><path fill="#f15b43" d="M154.473,231.71782H232.813a24.90338,24.90338,0,0,0,5.0125-18.38158H149.46042a24.90345,24.90345,0,0,0,5.01253,18.38158"/><path fill="#cf2633" d="M169.43525,231.71782a24.89821,24.89821,0,0,1-5.01253-18.38158H149.46066v.00121a26.50963,26.50963,0,0,0,.61323,9.42256c.02157.08265.04551.16408.06828.24673.17247.65274.37608,1.30194.60605,1.94631.04671.12936.09461.25872.14372.38924.23357.61806.49707,1.2325.78691,1.83853.05271.11261.10181.224.15692.33536a24.39827,24.39827,0,0,0,2.6374,4.20047v.00117Z"/><path fill="#1b202b" d="M193.73964,169.4463a25.38674,25.38674,0,0,1,6.92647.97257l-.86595-11.82881H187.48987l-.86955,11.87911a25.4,25.4,0,0,1,7.11932-1.02287"/><path fill="#303443" d="M193.64273,159.78669a5.28512,5.28512,0,1,1,5.27751-5.2857A5.28738,5.28738,0,0,1,193.64273,159.78669Zm0-8.17476a2.88966,2.88966,0,1,0,2.882,2.88906A2.88853,2.88853,0,0,0,193.64273,151.61193Z"/><path fill="#303443" d="M192.44968 149.103a1.18673 1.18673 0 011.19773-1.19774h0a1.19406 1.19406 0 011.19773 1.19774h0a1.20155 1.20155 0 01-1.19773 1.19773h0A1.194 1.194 0 01192.44968 149.103zm0-5.58162a1.19406 1.19406 0 011.19773-1.19774h0a1.20156 1.20156 0 011.19773 1.19774h0a1.20155 1.20155 0 01-1.19773 1.19773h0A1.194 1.194 0 01192.44968 143.52139zm0-5.58162a1.19406 1.19406 0 011.19773-1.19774h0a1.20156 1.20156 0 011.19773 1.19774h0a1.19331 1.19331 0 01-1.19773 1.19773h0A1.186 1.186 0 01192.44968 137.93977zm0-5.56876a1.194 1.194 0 011.19773-1.19773h0a1.20155 1.20155 0 011.19773 1.19773h0a1.20156 1.20156 0 01-1.19773 1.19774h0A1.19406 1.19406 0 01192.44968 132.371zm0-5.58162a1.194 1.194 0 011.19773-1.19773h0a1.20155 1.20155 0 011.19773 1.19773h0a1.19406 1.19406 0 01-1.19773 1.19774h0A1.18673 1.18673 0 01192.44968 126.78939zm0-5.56992a1.18673 1.18673 0 011.19773-1.19773h0a1.19406 1.19406 0 011.19773 1.19773h0a1.20079 1.20079 0 01-1.19773 1.19773h0A1.19331 1.19331 0 01192.44968 121.21947zm0-5.58162a1.194 1.194 0 011.19773-1.19773h0a1.20155 1.20155 0 011.19773 1.19773h0a1.20079 1.20079 0 01-1.19773 1.19773h0A1.19331 1.19331 0 01192.44968 115.63785zm0-5.58045a1.19331 1.19331 0 011.19773-1.19773h0a1.20079 1.20079 0 011.19773 1.19773h0a1.194 1.194 0 01-1.19773 1.19773h0A1.18673 1.18673 0 01192.44968 110.0574zm0-5.56992a1.19406 1.19406 0 011.19773-1.19774h0a1.20156 1.20156 0 011.19773 1.19774h0a1.20155 1.20155 0 01-1.19773 1.19773h0A1.194 1.194 0 01192.44968 104.48748zm0-5.56993a1.19664 1.19664 0 011.19773-1.20943h0a1.20408 1.20408 0 011.19773 1.20943h0a1.2092 1.2092 0 01-1.19773 1.19774h0A1.20151 1.20151 0 01192.44968 98.91755zm0-5.58045a1.186 1.186 0 011.19773-1.19773h0a1.19331 1.19331 0 011.19773 1.19773h0a1.20156 1.20156 0 01-1.19773 1.19774h0A1.19406 1.19406 0 01192.44968 93.3371zm0-5.58162a1.194 1.194 0 011.19773-1.19773h0a1.20155 1.20155 0 011.19773 1.19773h0a1.20156 1.20156 0 01-1.19773 1.19774h0A1.19406 1.19406 0 01192.44968 87.75548zm0-5.56992a1.18673 1.18673 0 011.19773-1.19773h0a1.194 1.194 0 011.19773 1.19773h0a1.19158 1.19158 0 01-1.19773 1.186h0A1.1842 1.1842 0 01192.44968 82.18556zM180.48522 180.25626a1.75739 1.75739 0 01-.53921 1.26959 1.72026 1.72026 0 01-1.25739.527 1.93308 1.93308 0 01-.69478-.13174 2.08926 2.08926 0 01-.58717-.39527 1.66515 1.66515 0 01-.38364-.57489c-.0117-.03589-.0234-.07186-.03626-.10775.97081-.71869 1.84455-1.42531 2.63524-2.12.02456.012.03626.024.05965.03589a2.06495 2.06495 0 01.49126.5031 1.53319 1.53319 0 01.16843.31142 1.5984 1.5984 0 01.10761.33533A1.663 1.663 0 01180.48522 180.25626zM202.61871 178.45966a1.7966 1.7966 0 101.79659 1.7966A1.79416 1.79416 0 00202.61871 178.45966zm-5.977 0a1.79664 1.79664 0 101.7849 1.7966A1.78676 1.78676 0 00196.64174 178.45966zm-5.98866 0a1.7966 1.7966 0 101.7966 1.7966A1.79417 1.79417 0 00190.65308 178.45966zm-5.98866 0a1.7966 1.7966 0 101.7966 1.7966A1.79417 1.79417 0 00184.66442 178.45966zM210.29636 180.84321a.32669.32669 0 01-.02457.10775 1.883 1.883 0 01-.39534.57489 1.76189 1.76189 0 01-1.26908.527 1.98706 1.98706 0 01-.69478-.13174 1.9185 1.9185 0 01-.96965-.97016 1.97774 1.97774 0 01-.13217-.6947 1.588 1.588 0 01.03626-.34732 1.64169 1.64169 0 01.26317-.64675 2.432 2.432 0 01.22809-.27553 1.37364 1.37364 0 01.33452-.25147C208.4635 179.4179 209.33841 180.12452 210.29636 180.84321zM180.48522 246.26334a1.75914 1.75914 0 01-.14387.69463 1.56141 1.56141 0 01-.39534.575 2.09243 2.09243 0 01-.407.31142q-1.258-.75465-2.65981-1.54512v-.0359a1.75165 1.75165 0 01.03626-.34739 1.909 1.909 0 01.276-.64675 2.32858 2.32858 0 01.21521-.27545 2.54631 2.54631 0 01.27487-.22757 1.49387 1.49387 0 01.3123-.15571 1.745 1.745 0 011.95217.38328 1.658 1.658 0 01.22691.27545 1.53485 1.53485 0 01.16843.31143 1.59812 1.59812 0 01.10761.33532A1.75239 1.75239 0 01180.48522 246.26334zM202.61871 244.46674a1.7966 1.7966 0 101.79659 1.7966A1.79412 1.79412 0 00202.61871 244.46674zm-5.977 0a1.79664 1.79664 0 101.7849 1.7966A1.78671 1.78671 0 00196.64174 244.46674zm-5.98866 0a1.7966 1.7966 0 101.7966 1.7966A1.79412 1.79412 0 00190.65308 244.46674zm-5.98866 0a1.7966 1.7966 0 101.7966 1.7966A1.79412 1.79412 0 00184.66442 244.46674zM210.404 246.26334v.04789c-.93456.527-1.82 1.03-2.64695 1.52114h-.01169a1.61175 1.61175 0 01-.407-.29943 1.794 1.794 0 01-.52752-1.2696 1.66933 1.66933 0 01.03626-.34739 1.64185 1.64185 0 01.26317-.64675 2.43115 2.43115 0 01.22809-.27545 2.31053 2.31053 0 01.26317-.22757 1.87835 1.87835 0 01.31113-.15571 1.81884 1.81884 0 01.33569-.10783 1.75471 1.75471 0 01.70648 0 1.57412 1.57412 0 01.33569.10783 1.51327 1.51327 0 01.31113.15571 2.43759 2.43759 0 01.27487.22757A1.815 1.815 0 01210.404 246.26334z"/><polygon fill="#303443" points="184.269 173.693 203.014 173.693 204.08 175.07 183.215 175.07 184.269 173.693"/><path fill="#303443" d="M219.28033,186.3911H168.0042a.3228.3228,0,0,1,.085-.04788c.8504-.442,1.65288-.87436,2.4314-1.31752h46.24444c.77852.44316,1.581.87553,2.4314,1.31752a.30036.30036,0,0,1,.08385.04788"/><polygon fill="#303443" points="222.693 239.951 164.591 239.951 164.842 240.083 167.13 241.209 167.381 241.329 219.914 241.329 222.693 239.951"/><polygon fill="#303443" points="201.613 251.749 185.683 251.749 186.222 252.144 187.24 252.887 187.539 253.114 199.744 253.114 201.613 251.749"/><path fill="#82c56d" d="M454.99613,217.33727s0,15.07428,30.08431,30.63757c30.08242,15.55949,46.58029,64.67358,3.39474,85.5857-43.18371,20.91028-43.66891,30.14856-43.66891,30.14856s-.48524-9.23828-43.66892-30.14856c-43.18558-20.91212-26.68774-70.02621,3.39471-85.5857,30.08434-15.56329,30.08434-30.63757,30.08434-30.63757Z"/><path fill="#4da258" d="M424.72075,333.56c-43.18371-20.91022-26.68774-70.0243,3.39661-85.58569,18.76731-9.7084,25.82676-19.22614,28.48135-25.01114a15.10414,15.10414,0,0,1-1.603-5.62638H434.61606s0,15.07612-30.08245,30.63752c-30.08434,15.56139-46.58219,64.67547-3.39664,85.58569,43.18371,20.91028,43.66892,30.15047,43.66892,30.15047s.22091-3.81766,11.79282-12.07982c-6.45148-4.60307-16.41856-10.58634-31.878-18.07065"/><path fill="#f15b43" d="M381.47605,270.96626h126.6604a59.45087,59.45087,0,0,0-6.74223-9.782H388.21831a59.451,59.451,0,0,0-6.74226,9.782"/><path fill="#cf2633" d="M388.21888,261.1848l-.0038.00571q-.94306,1.113-1.83139,2.26944c-.02455.034-.051.068-.07741.10192q-.84965,1.11588-1.65205,2.27135c-.05667.08308-.11141.16617-.168.24926q-.759,1.10732-1.467,2.24679c-.068.10948-.13215.22085-.19824.33229-.46446.75711-.91758,1.52552-1.3443,2.30534h23.58564a59.22038,59.22038,0,0,1,6.74226-9.7821Z"/><path fill="#f15b43" d="M383.06,319.499H506.55222a39.25684,39.25684,0,0,0,7.90152-28.976H375.15841A39.25687,39.25687,0,0,0,383.06,319.499"/><path fill="#cf2633" d="M406.646,319.499a39.24862,39.24862,0,0,1-7.90155-28.976H375.15879v.00191a41.789,41.789,0,0,0,.96667,14.85337c.034.13027.07174.25865.10763.38892.27188,1.029.59285,2.05233.95536,3.0681.07363.20391.14914.40783.22655.61358.36819.97428.78356,1.94286,1.24045,2.89818.08309.17753.1605.35309.24736.52866a38.46147,38.46147,0,0,0,4.1575,6.62146v.00184Z"/><path fill="#1b202b" d="M444.95847,221.33654a40.0186,40.0186,0,0,1,10.91862,1.53313l-1.365-18.64649H435.10657L433.73584,222.949a40.03991,40.03991,0,0,1,11.22263-1.61241"/><path fill="#303443" d="M444.80627 205.41982a7.642 7.642 0 117.62853-7.64139A7.644 7.644 0 01444.80627 205.41982zm0-12.88849a5.24653 5.24653 0 105.23306 5.2471A5.2457 5.2457 0 00444.80627 192.53133zM443.61439 184.14838a1.19332 1.19332 0 011.19773-1.19774h0a1.19158 1.19158 0 011.186 1.19774h0a1.18346 1.18346 0 01-1.186 1.19773h0A1.18528 1.18528 0 01443.61439 184.14838zm0-5.56876a1.19257 1.19257 0 011.19773-1.19773h0a1.19083 1.19083 0 011.186 1.19773h0a1.19158 1.19158 0 01-1.186 1.19773h0A1.19331 1.19331 0 01443.61439 178.57962zm0-5.58162a1.19331 1.19331 0 011.19773-1.19773h0a1.19158 1.19158 0 011.186 1.19773h0a1.19158 1.19158 0 01-1.186 1.19773h0A1.19331 1.19331 0 01443.61439 172.998zm0-5.56992a1.19331 1.19331 0 011.19773-1.19773h0a1.19158 1.19158 0 011.186 1.19773h0a1.19158 1.19158 0 01-1.186 1.19773h0A1.19331 1.19331 0 01443.61439 167.42808zm0-5.58162a1.19331 1.19331 0 011.19773-1.19773h0a1.19158 1.19158 0 011.186 1.19773h0a1.19083 1.19083 0 01-1.186 1.19773h0A1.19257 1.19257 0 01443.61439 161.84646zm0-5.58045a1.19257 1.19257 0 011.19773-1.19773h0a1.19083 1.19083 0 011.186 1.19773h0a1.18419 1.18419 0 01-1.186 1.19773h0A1.186 1.186 0 01443.61439 156.266zm0-5.56993a1.19331 1.19331 0 011.19773-1.19773h0a1.19158 1.19158 0 011.186 1.19773h0a1.19158 1.19158 0 01-1.186 1.19774h0A1.19332 1.19332 0 01443.61439 150.69608zm0-5.58162a1.19331 1.19331 0 011.19773-1.19773h0a1.19158 1.19158 0 011.186 1.19773h0a1.19158 1.19158 0 01-1.186 1.19774h0A1.19332 1.19332 0 01443.61439 145.11446zm0-5.56875a1.19257 1.19257 0 011.19773-1.19773h0a1.19083 1.19083 0 011.186 1.19773h0a1.19158 1.19158 0 01-1.186 1.19773h0A1.19331 1.19331 0 01443.61439 139.54571zm0-5.58162a1.19257 1.19257 0 011.19773-1.19773h0a1.19083 1.19083 0 011.186 1.19773h0a1.19158 1.19158 0 01-1.186 1.19773h0A1.19331 1.19331 0 01443.61439 133.96409zm0-5.58162a1.19331 1.19331 0 011.19773-1.19773h0a1.19158 1.19158 0 011.186 1.19773h0a1.18419 1.18419 0 01-1.186 1.19773h0A1.186 1.186 0 01443.61439 128.38247zm0-5.56992a1.19331 1.19331 0 011.19773-1.19773h0a1.19158 1.19158 0 011.186 1.19773h0a1.19158 1.19158 0 01-1.186 1.19773h0A1.19331 1.19331 0 01443.61439 122.81255zm0-5.58162a1.19331 1.19331 0 011.19773-1.19773h0a1.19158 1.19158 0 011.186 1.19773h0a1.19083 1.19083 0 01-1.186 1.19773h0A1.19257 1.19257 0 01443.61439 117.23093zm0-5.56876a1.18528 1.18528 0 011.19773-1.19773h0a1.18346 1.18346 0 011.186 1.19773h0a1.19158 1.19158 0 01-1.186 1.19774h0A1.19332 1.19332 0 01443.61439 111.66217zm0-5.58162a1.19331 1.19331 0 011.19773-1.19773h0a1.19158 1.19158 0 011.186 1.19773h0a1.19158 1.19158 0 01-1.186 1.19774h0A1.19332 1.19332 0 01443.61439 106.08055zm0-5.58162a1.19331 1.19331 0 011.19773-1.19773h0a1.19158 1.19158 0 011.186 1.19773h0a1.19158 1.19158 0 01-1.186 1.19774h0A1.19332 1.19332 0 01443.61439 100.49893zm0-5.56875a1.19257 1.19257 0 011.19773-1.19773h0a1.19083 1.19083 0 011.186 1.19773h0a1.19158 1.19158 0 01-1.186 1.19773h0A1.19331 1.19331 0 01443.61439 94.93018zm0-5.58162a1.19257 1.19257 0 011.19773-1.19773h0a1.19083 1.19083 0 011.186 1.19773h0a1.19158 1.19158 0 01-1.186 1.19773h0A1.19331 1.19331 0 01443.61439 89.34856zm0-5.56992a1.186 1.186 0 011.19773-1.19773h0a1.18419 1.18419 0 011.186 1.19773h0a1.19158 1.19158 0 01-1.186 1.19773h0A1.19331 1.19331 0 01443.61439 83.77864zM424.06471 238.37694a2.77031 2.77031 0 01-.85 2.00134 2.71169 2.71169 0 01-1.98209.83075 3.04714 3.04714 0 01-1.09522-.20766 3.29284 3.29284 0 01-.92559-.62309 2.62478 2.62478 0 01-.60477-.90623c-.01844-.05658-.03688-.11328-.05716-.16986 1.53036-1.13291 2.90769-2.2468 4.1541-3.3419.03872.0189.05716.03779.094.05658a3.25537 3.25537 0 01.7744.79307 2.41676 2.41676 0 01.26551.49091 2.51976 2.51976 0 01.16963.5286A2.62071 2.62071 0 01424.06471 238.37694zM458.95508 235.54485a2.83209 2.83209 0 102.83209 2.83209A2.82826 2.82826 0 00458.95508 235.54485zm-9.42185 0a2.83215 2.83215 0 102.81365 2.83209A2.81658 2.81658 0 00449.53323 235.54485zm-9.4403 0a2.83209 2.83209 0 102.83209 2.83209A2.82826 2.82826 0 00440.09293 235.54485zm-9.4403 0a2.83209 2.83209 0 102.83209 2.83209A2.82826 2.82826 0 00430.65263 235.54485zM471.05784 239.30219a.51519.51519 0 01-.03872.16986 2.96813 2.96813 0 01-.62321.90623 2.77738 2.77738 0 01-2.00053.83075 3.13225 3.13225 0 01-1.09522-.20766 3.02422 3.02422 0 01-1.52852-1.52932 3.1176 3.1176 0 01-.20835-1.09511 2.50288 2.50288 0 01.05716-.54749 2.58778 2.58778 0 01.41486-1.01951 3.83348 3.83348 0 01.35954-.43434 2.16541 2.16541 0 01.52733-.39641C468.16859 237.05539 469.54776 238.16928 471.05784 239.30219zM424.06471 342.428a2.773 2.773 0 01-.22679 1.095 2.46144 2.46144 0 01-.62321.90635 3.29728 3.29728 0 01-.64164.49091q-1.983-1.18959-4.19282-2.43567V342.428a2.76168 2.76168 0 01.05716-.54761 3.00873 3.00873 0 01.43514-1.01951 3.66905 3.66905 0 01.33926-.43422 4.01387 4.01387 0 01.43329-.35873 2.35445 2.35445 0 01.4923-.24546 2.75064 2.75064 0 013.07731.60419 2.61327 2.61327 0 01.3577.43422 2.42021 2.42021 0 01.26551.49091 2.51976 2.51976 0 01.16963.5286A2.76168 2.76168 0 01424.06471 342.428zM458.95508 339.59588a2.83209 2.83209 0 102.83209 2.83209A2.82818 2.82818 0 00458.95508 339.59588zm-9.42185 0a2.83215 2.83215 0 102.81365 2.83209A2.81651 2.81651 0 00449.53323 339.59588zm-9.4403 0A2.83209 2.83209 0 10442.925 342.428 2.82818 2.82818 0 00440.09293 339.59588zm-9.4403 0a2.83209 2.83209 0 102.83209 2.83209A2.82818 2.82818 0 00430.65263 339.59588zM471.22747 342.428v.07548c-1.4732.83075-2.869 1.62371-4.17254 2.39787h-.01844a2.54074 2.54074 0 01-.64164-.472 2.82809 2.82809 0 01-.83156-2.00134 2.6311 2.6311 0 01.05716-.54761 2.58778 2.58778 0 01.41486-1.01951 3.8322 3.8322 0 01.35954-.43422 3.64316 3.64316 0 01.41486-.35873 2.96152 2.96152 0 01.49045-.24546 2.86726 2.86726 0 01.52917-.17 2.76645 2.76645 0 011.11366 0 2.48123 2.48123 0 01.52917.17 2.38623 2.38623 0 01.49046.24546 3.84288 3.84288 0 01.43329.35873A2.861 2.861 0 01471.22747 342.428z"/><polygon fill="#303443" points="430.03 228.03 459.578 228.03 461.259 230.202 428.369 230.202 430.03 228.03"/><path fill="#303443" d="M485.21982,248.04767H404.39011a.50894.50894,0,0,1,.13405-.07548c1.34054-.69673,2.60554-1.3783,3.83276-2.07687h72.898c1.22723.69857,2.49219,1.38014,3.83276,2.07687a.47329.47329,0,0,1,.13217.07548"/><polygon fill="#303443" points="490.599 332.478 399.009 332.478 399.406 332.686 403.012 334.46 403.408 334.649 486.219 334.649 490.599 332.478"/><polygon fill="#303443" points="457.369 351.075 432.258 351.075 433.108 351.698 434.712 352.869 435.184 353.228 454.424 353.228 457.369 351.075"/></svg>