<svg xmlns="http://www.w3.org/2000/svg" data-name="Layer 1" viewBox="0 0 700 550"><path fill="#edf2fa" d="M206.45552,451.13091c-34.436-25.879-66.624-75.531-54.988-114.895,9.877-33.414,43.504-33.18,53.294-68.2,11.411-40.819-27.898-63.956-23.965-96.899,9.584-80.27,266.513-140.193,299.036-83.356,23.028,40.247-79.309,116.586-51.055,166.71,25.219,44.744,120.678,8.61,147.954,55.223,22.733,38.846-13.577,115.185-67.441,148.895-28.776,18.009-67.248,16.926-143.006,17.758-83.405.916-125.808.332-159.829-25.236"/><path fill="#afc4db" d="M262.16571,185.88517H179.64032a.5.5,0,0,1,0-1h82.52539a.5.5,0,0,1,0,1Z"/><path fill="#afc4db" d="M262.16961 185.88517H180.41082a.5.5 0 010-1h81.75879a.5.5 0 010 1zM262.16571 205.88517H179.64032a.5.5 0 010-1h82.52539a.5.5 0 010 1z"/><path fill="#afc4db" d="M212.55731 205.74845a.49971.49971 0 01-.5-.5V185.36564a.5.5 0 011 0v19.88281A.49972.49972 0 01212.55731 205.74845zM192.55828 225.69669a.49972.49972 0 01-.5-.5v-19.873a.5.5 0 011 0v19.873A.49971.49971 0 01192.55828 225.69669zM242.55828 225.69669a.49972.49972 0 01-.5-.5v-19.873a.5.5 0 011 0v19.873A.49971.49971 0 01242.55828 225.69669z"/><path fill="#afc4db" d="M261.3952 225.88517H179.63641a.5.5 0 010-1H261.3952a.5.5 0 010 1zM590.80047 301.21232H503.737a.5.5 0 110-1h87.06347a.5.5 0 010 1z"/><path fill="#afc4db" d="M590.80438 301.21232H504.5495a.5.5 0 110-1h86.25488a.5.5 0 010 1zM590.80047 322.31193H503.737a.5.5 0 010-1h87.06347a.5.5 0 010 1z"/><path fill="#afc4db" d="M538.46453 322.1674a.49972.49972 0 01-.5-.5V300.69181a.5.5 0 011 0V321.6674A.49972.49972 0 01538.46453 322.1674zM517.36492 343.2133a.49972.49972 0 01-.5-.5V321.74747a.5.5 0 011 0V342.7133A.49972.49972 0 01517.36492 343.2133zM570.114 343.2133a.49972.49972 0 01-.5-.5V321.74747a.5.5 0 011 0V342.7133A.49972.49972 0 01570.114 343.2133z"/><path fill="#afc4db" d="M589.988,343.41154H503.73309a.5.5,0,0,1,0-1H589.988a.5.5,0,0,1,0,1Z"/><path fill="#e4ebf1" d="M561.36571,469.793c-.14,12.92-96.971,22.347-216.277,21.057-119.308-1.291-215.911-12.811-215.772-25.731.14-12.919,96.971-22.347,216.278-21.055,119.306,1.29,215.911,12.809,215.771,25.729"/><path fill="#3d1a0c" d="M431.82964,425.73051h-150.606v-36.308a75.303,75.303,0,0,1,150.606,0Z"/><rect width="232.902" height="203.319" x="240.075" y="238.908" fill="#d07c2a"/><path fill="#3d1a0c" d="M431.21633,425.73051h-150.606v-36.308a75.30156,75.30156,0,0,1,75.302-75.302h.001a75.30242,75.30242,0,0,1,75.303,75.302Z"/><path fill="#a05325" d="M431.21633,426.06651h-150.606v-36.979a75.30262,75.30262,0,0,1,75.302-75.304h.001a75.30348,75.30348,0,0,1,75.303,75.304Z"/><rect width="232.901" height="1.84" x="240.075" y="257.664" fill="#bc6a3b"/><rect width="232.901" height="1.84" x="240.075" y="278.641" fill="#bc6a3b"/><rect width="232.901" height="1.84" x="240.075" y="299.619" fill="#bc6a3b"/><rect width="232.901" height="1.84" x="240.075" y="320.596" fill="#bc6a3b"/><rect width="232.901" height="1.84" x="240.075" y="341.574" fill="#bc6a3b"/><rect width="232.901" height="1.84" x="240.075" y="362.551" fill="#bc6a3b"/><rect width="232.901" height="1.84" x="240.075" y="383.528" fill="#bc6a3b"/><rect width="232.901" height="1.84" x="240.075" y="404.505" fill="#bc6a3b"/><rect width="232.901" height="1.84" x="240.075" y="425.483" fill="#bc6a3b"/><rect width="1.84" height="19.677" x="269.929" y="238.908" fill="#bc6a3b"/><rect width="1.84" height="19.677" x="306.716" y="238.908" fill="#bc6a3b"/><rect width="1.84" height="19.677" x="343.502" y="238.908" fill="#bc6a3b"/><rect width="1.84" height="19.677" x="380.289" y="238.908" fill="#bc6a3b"/><rect width="1.84" height="19.677" x="417.075" y="238.908" fill="#bc6a3b"/><rect width="1.84" height="19.677" x="453.861" y="238.908" fill="#bc6a3b"/><rect width="1.84" height="20.978" x="269.929" y="279.561" fill="#bc6a3b"/><rect width="1.84" height="20.978" x="306.716" y="279.561" fill="#bc6a3b"/><rect width="1.84" height="20.978" x="343.502" y="279.561" fill="#bc6a3b"/><rect width="1.84" height="20.978" x="380.289" y="279.561" fill="#bc6a3b"/><rect width="1.84" height="20.978" x="417.075" y="279.561" fill="#bc6a3b"/><rect width="1.84" height="20.978" x="453.861" y="279.561" fill="#bc6a3b"/><rect width="1.84" height="20.977" x="246.977" y="258.584" fill="#bc6a3b"/><rect width="1.84" height="20.977" x="283.764" y="258.584" fill="#bc6a3b"/><rect width="1.84" height="20.977" x="320.55" y="258.584" fill="#bc6a3b"/><rect width="1.84" height="20.977" x="357.337" y="258.584" fill="#bc6a3b"/><rect width="1.84" height="20.977" x="394.124" y="258.584" fill="#bc6a3b"/><rect width="1.84" height="20.977" x="430.91" y="258.584" fill="#bc6a3b"/><rect width="1.84" height="20.977" x="467.696" y="258.584" fill="#bc6a3b"/><rect width="1.84" height="20.978" x="269.929" y="321.516" fill="#bc6a3b"/><rect width="1.84" height="20.978" x="306.716" y="321.516" fill="#bc6a3b"/><rect width="1.84" height="20.978" x="343.502" y="321.516" fill="#bc6a3b"/><rect width="1.84" height="20.978" x="380.289" y="321.516" fill="#bc6a3b"/><rect width="1.84" height="20.978" x="417.075" y="321.516" fill="#bc6a3b"/><rect width="1.84" height="20.978" x="453.861" y="321.516" fill="#bc6a3b"/><rect width="1.84" height="20.978" x="246.977" y="300.538" fill="#bc6a3b"/><rect width="1.84" height="20.978" x="283.764" y="300.538" fill="#bc6a3b"/><rect width="1.84" height="20.978" x="320.55" y="300.538" fill="#bc6a3b"/><rect width="1.84" height="20.978" x="357.337" y="300.538" fill="#bc6a3b"/><rect width="1.84" height="20.978" x="394.124" y="300.538" fill="#bc6a3b"/><rect width="1.84" height="20.978" x="430.91" y="300.538" fill="#bc6a3b"/><rect width="1.84" height="20.978" x="467.696" y="300.538" fill="#bc6a3b"/><rect width="1.84" height="20.977" x="269.929" y="363.471" fill="#bc6a3b"/><rect width="1.84" height="20.977" x="306.716" y="363.471" fill="#bc6a3b"/><rect width="1.84" height="20.977" x="343.502" y="363.471" fill="#bc6a3b"/><rect width="1.84" height="20.977" x="380.289" y="363.471" fill="#bc6a3b"/><rect width="1.84" height="20.977" x="417.075" y="363.471" fill="#bc6a3b"/><rect width="1.84" height="20.977" x="453.861" y="363.471" fill="#bc6a3b"/><rect width="1.84" height="20.978" x="246.977" y="342.494" fill="#bc6a3b"/><rect width="1.84" height="20.978" x="283.764" y="342.494" fill="#bc6a3b"/><rect width="1.84" height="20.978" x="320.55" y="342.494" fill="#bc6a3b"/><rect width="1.84" height="20.978" x="357.337" y="342.494" fill="#bc6a3b"/><rect width="1.84" height="20.978" x="394.124" y="342.494" fill="#bc6a3b"/><rect width="1.84" height="20.978" x="430.91" y="342.494" fill="#bc6a3b"/><rect width="1.84" height="20.978" x="467.696" y="342.494" fill="#bc6a3b"/><rect width="1.84" height="20.978" x="269.929" y="405.425" fill="#bc6a3b"/><rect width="1.84" height="20.978" x="306.716" y="405.425" fill="#bc6a3b"/><rect width="1.84" height="20.978" x="343.502" y="405.425" fill="#bc6a3b"/><rect width="1.84" height="20.978" x="380.289" y="405.425" fill="#bc6a3b"/><rect width="1.84" height="20.978" x="417.075" y="405.425" fill="#bc6a3b"/><rect width="1.84" height="20.978" x="453.861" y="405.425" fill="#bc6a3b"/><rect width="1.84" height="20.978" x="246.977" y="384.448" fill="#bc6a3b"/><rect width="1.84" height="20.978" x="283.764" y="384.448" fill="#bc6a3b"/><rect width="1.84" height="20.978" x="320.55" y="384.448" fill="#bc6a3b"/><rect width="1.84" height="20.978" x="357.337" y="384.448" fill="#bc6a3b"/><rect width="1.84" height="20.978" x="394.124" y="384.448" fill="#bc6a3b"/><rect width="1.84" height="20.978" x="430.91" y="384.448" fill="#bc6a3b"/><rect width="1.84" height="20.978" x="467.696" y="384.448" fill="#bc6a3b"/><rect width="1.84" height="15.823" x="246.977" y="426.403" fill="#bc6a3b"/><rect width="1.84" height="15.823" x="283.764" y="426.403" fill="#bc6a3b"/><rect width="1.84" height="15.823" x="320.55" y="426.403" fill="#bc6a3b"/><rect width="1.84" height="15.823" x="357.337" y="426.403" fill="#bc6a3b"/><rect width="1.84" height="15.823" x="394.124" y="426.403" fill="#bc6a3b"/><rect width="1.84" height="15.823" x="430.91" y="426.403" fill="#bc6a3b"/><rect width="1.84" height="15.823" x="467.696" y="426.403" fill="#bc6a3b"/><path fill="#843f1d" d="M418.91463,425.48311v-19.138h12.302v-17.258q0-2.805-.205-5.559h-12.097v-19.137h8.153q-.321-.927-.666-1.84h-30.439v-19.138h19.819q-.711-.93152-1.449-1.84h-32.205v-19.137h8.851q-1.836-.969-3.731-1.839h-28.071v-6.739q-.918-.039-1.839-.056v6.795h-32.758q-1.896.867-3.732,1.839h22.655v19.137h-34.947v-11.03c-.622.503-1.236,1.012-1.84,1.533v9.497h-9.222q-.738.909-1.449,1.84h24.506v19.138h-34.948v-.472q-.441,1.1475-.844,2.312h21.957v19.137h-25.901q-.06749.918-.113,1.839h3.063v19.139h-3.155v1.839h26.106v19.138h-26.106v.583h150.607v-.583Zm11.995-20.977h-34.947v-19.139h34.947Zm-13.835-20.978h-34.947v-19.138h34.947Zm-71.733-19.137h34.947v19.138h-34.947Zm11.996,40.115h-34.947v-19.139h34.947Zm1.839-19.139h34.947v19.139h-34.947Zm34.947-22.816h-34.947v-19.138h34.947Zm-48.782-40.115h34.947v19.138h-34.947Zm-22.952,20.977h34.947v19.138h-34.947Zm-13.834,20.978h34.947v19.138h-34.947Zm-22.953,20.976h34.947v19.139h-34.947Zm57.9,40.116h-34.947v-19.139h34.947Zm36.786,0h-34.947v-19.139h34.947Zm36.786,0h-34.947v-19.139h34.947Z"/><path fill="#f39821" d="M334.16063,425.73051h43.829c7.692-8.476,11.962-15.429,9.115-28.239-3.226-14.523-15.598-17.75-15.598-17.75.757,3.025-.378,4.514-1.797,5.243a4.80046,4.80046,0,0,1-5.554-1.014c-7.264-7.28-1.255-16.062-1.255-16.062a13.92828,13.92828,0,0,0-9.742,2.132c-8.382,5.627-6.502,15.747-4.243,22.072,2.689,7.53-2.151,7.53-2.151,7.53-11.833,0-11.833-11.833-11.833-11.833-10.22,2.151-10.758,10.758-10.758,10.758-.733,15.382,5.764,23.527,9.987,27.163"/><path fill="#ffcb5d" d="M350.52974,425.73051h17.983c14.309-10.853,11.817-21.17,9.95-25.285a1.3346,1.3346,0,0,0-2.219-.326c-6.285,7.187-14.074-.035-17.109-1.552-2.502-1.252-2.417,5.265-2.252,8.25a7.91381,7.91381,0,0,1-1.13,4.652c-1.411,2.242-4.316,4.158-10.065.007-6.958-5.026-8.637-2.827-9.032-1.193a4.06781,4.06781,0,0,0-.03,1.67c2.351,12.989,13.904,13.777,13.904,13.777"/><path fill="#303443" d="M356.17547,411.73673l-.8457-.5332a7.36763,7.36763,0,0,0,1.05371-4.35938c-.27441-4.9873.19531-7.916,1.39551-8.7041a1.49688,1.49688,0,0,1,1.58008-.0205c.52343.26171,1.1621.67285,1.90136,1.14843,3.60449,2.32032,9.63867,6.20215,14.60742.52246l.752.65821c-5.53516,6.33007-12.27832,1.99023-15.90039-.33985-.71582-.46-1.333-.85742-1.80762-1.09472-.36719-.18555-.51855-.082-.584-.03809-.64161.4209-1.22754,2.69531-.94629,7.81348A8.36147,8.36147,0,0,1,356.17547,411.73673Z"/><path fill="#ffcb5d" d="M340.31 371.67291s-4.11-6.679 1.226-8.99a.85517.85517 0 01.774.062l.038.024a3.51764 3.51764 0 01.535 5.635 13.8197 13.8197 0 00-2.573 3.269M380.23583 365.8614s5.525 2.176 3.345 6.002a.64255.64255 0 01-.497.313l-.034.004a2.66423 2.66423 0 01-2.886-3.17 10.478 10.478 0 00.072-3.149M392.87352 389.19441s7.169 2.823 4.339 7.788a.83766.83766 0 01-.645.407l-.044.005a3.45756 3.45756 0 01-3.745-4.113 13.58638 13.58638 0 00.095-4.087M319.03664 406.2364s-7.095-2.787-4.522-7.676a.77474.77474 0 01.613-.401l.043-.004a3.53833 3.53833 0 013.804 4.055 13.49377 13.49377 0 00.062 4.026"/><rect width="270.159" height="25.015" x="221.447" y="213.892" fill="#bc6a3b"/><rect width="270.159" height="25.015" x="221.447" y="425.73" fill="#bc6a3b"/><rect width="270.159" height="25.016" x="221.447" y="442.55" fill="#a05325"/><rect width="307.594" height="25.016" x="202.729" y="450.409" fill="#bc6a3b"/><rect width="125.607" height="1" x="365.998" y="449.91" fill="#303443"/><rect width="65.475" height="1" x="265.033" y="238.408" fill="#303443"/><path fill="#3d1a0c" d="M431.82964,425.73051h-150.606v-36.308a75.303,75.303,0,0,1,150.606,0Z"/><rect width="232.902" height="203.319" x="240.075" y="238.908" fill="#d07c2a"/><path fill="#3d1a0c" d="M431.21633,425.73051h-150.606v-36.308a75.30156,75.30156,0,0,1,75.302-75.302h.001a75.30242,75.30242,0,0,1,75.303,75.302Z"/><path fill="#a05325" d="M431.21633,426.06651h-150.606v-36.979a75.30262,75.30262,0,0,1,75.302-75.304h.001a75.30348,75.30348,0,0,1,75.303,75.304Z"/><path fill="#bc6a3b" d="M472.97762,259.50412v-1.84h-17.276v-18.756h-1.84v18.756h-34.947v-18.756h-1.84v18.756h-34.946v-18.756h-1.84v18.756h-34.946v-18.756h-1.84v18.756h-34.947v-18.756h-1.84v18.756h-34.947v-18.756h-1.839v18.756h-29.854v1.84h6.902v19.138h-6.902v1.839h29.854v19.138h-29.854v1.84h6.902v19.137h-6.902v1.84h29.854v19.137h-29.854v1.84h6.902v19.138h-6.902v1.84h29.854v19.137h-29.854v1.84h6.902v19.138h-6.902v1.84h29.854v19.137h-29.854v1.84h6.902v14.905h1.84v-14.905h34.947v14.905h1.839v-14.905h34.947v14.905h1.839v-14.905h34.948v14.905h1.84v-14.905h34.946v14.905h1.84v-14.905h34.946v14.905h1.84v-14.905h34.946v14.905h1.84v-14.905h3.442v-1.84h-17.276v-19.137h17.276v-1.84h-3.442v-19.138h3.442v-1.84h-17.276v-19.137h17.276v-1.84h-3.442v-19.138h3.442v-1.84h-17.276v-19.137h17.276v-1.84h-3.442v-19.137h3.442v-1.84h-17.276v-19.138h17.276v-1.839h-3.442v-19.138Zm-77.014,0h34.946v19.138h-34.946Zm0,41.955h34.946v19.137h-34.946Zm0,41.954h34.946v19.138h-34.946Zm0,41.955h34.946v19.138h-34.946Zm-75.413,19.138h-34.946v-19.138h34.946Zm0-41.955h-34.946v-19.138h34.946Zm0-41.955h-34.946v-19.137h34.946Zm38.627-61.092h34.946v19.138h-34.946Zm0,41.955h34.946v19.137h-34.946Zm0,41.954h34.946v19.138h-34.946Zm0,41.955h34.946v19.138h-34.946Zm-36.788,0h34.947v19.138h-34.947Zm22.953-20.977h34.946v19.138h-34.946Zm11.995-1.84h-34.947v-19.138h34.947Zm-11.995-40.115h34.946v19.138h-34.946Zm11.995-1.84h-34.947v-19.137h34.947Zm-11.995-40.115h34.946v19.138h-34.946Zm11.995-1.839h-34.947v-19.138h34.947Zm-36.787,0h-34.946v-19.138h34.946Zm22.952,20.977h-34.947v-19.138h34.947Zm0,41.954h-34.947v-19.138h34.947Zm0,41.955h-34.947v-19.138h34.947Zm0,41.955h-34.947v-19.138h34.947Zm1.84-19.137h34.946v19.138h-34.946Zm36.786,0h34.946v19.138h-34.946Zm0-41.955h34.946v19.138h-34.946Zm0-41.955h34.946v19.138h-34.946Zm0-41.955h34.946v19.138h-34.946Zm-133.311-20.977h34.946v19.138h-34.946Zm22.951,20.977h34.946v19.138h-34.946Zm-22.951,20.978h34.946v19.137h-34.946Zm22.951,20.977h34.946v19.138h-34.946Zm-22.951,20.977h34.946v19.138h-34.946Zm22.951,20.978h34.946v19.138h-34.946Zm-22.951,20.977h34.946v19.138h-34.946Zm22.951,20.978h34.946v19.138h-34.946Zm182.093,19.137h-34.947v-19.138h34.947Zm13.834-20.977h-34.946v-19.138h34.946Zm-13.834-20.978h-34.947v-19.138h34.947Zm13.834-20.977h-34.946v-19.138h34.946Zm-13.834-20.978h-34.947v-19.138h34.947Zm13.834-20.977h-34.946v-19.137h34.946Zm-13.834-20.977h-34.947v-19.138h34.947Zm13.834-20.977h-34.946v-19.138h34.946Z"/><path fill="#f39821" d="M334.16063,425.73051h43.829c7.692-8.476,11.962-15.429,9.115-28.239-3.226-14.523-15.598-17.75-15.598-17.75.757,3.025-.378,4.514-1.797,5.243a4.80046,4.80046,0,0,1-5.554-1.014c-7.264-7.28-1.255-16.062-1.255-16.062a13.92828,13.92828,0,0,0-9.742,2.132c-8.382,5.627-6.502,15.747-4.243,22.072,2.689,7.53-2.151,7.53-2.151,7.53-11.833,0-11.833-11.833-11.833-11.833-10.22,2.151-10.758,10.758-10.758,10.758-.733,15.382,5.764,23.527,9.987,27.163"/><path fill="#ffcb5d" d="M350.52974,425.73051h17.983c14.309-10.853,11.817-21.17,9.95-25.285a1.3346,1.3346,0,0,0-2.219-.326c-6.285,7.187-14.074-.035-17.109-1.552-2.502-1.252-2.417,5.265-2.252,8.25a7.91381,7.91381,0,0,1-1.13,4.652c-1.411,2.242-4.316,4.158-10.065.007-6.958-5.026-8.637-2.827-9.032-1.193a4.06781,4.06781,0,0,0-.03,1.67c2.351,12.989,13.904,13.777,13.904,13.777"/><path fill="#303443" d="M356.17547,411.73673l-.8457-.5332a7.36763,7.36763,0,0,0,1.05371-4.35938c-.27441-4.9873.19531-7.916,1.39551-8.7041a1.49688,1.49688,0,0,1,1.58008-.0205c.52343.26171,1.1621.67285,1.90136,1.14843,3.60449,2.32032,9.63867,6.20215,14.60742.52246l.752.65821c-5.53516,6.33007-12.27832,1.99023-15.90039-.33985-.71582-.46-1.333-.85742-1.80762-1.09472-.36719-.18555-.51855-.082-.584-.03809-.64161.4209-1.22754,2.69531-.94629,7.81348A8.36147,8.36147,0,0,1,356.17547,411.73673Z"/><path fill="#ffcb5d" d="M340.31 371.67291s-4.11-6.679 1.226-8.99a.85517.85517 0 01.774.062l.038.024a3.51764 3.51764 0 01.535 5.635 13.8197 13.8197 0 00-2.573 3.269M380.23583 365.8614s5.525 2.176 3.345 6.002a.64255.64255 0 01-.497.313l-.034.004a2.66423 2.66423 0 01-2.886-3.17 10.478 10.478 0 00.072-3.149M392.87352 389.19441s7.169 2.823 4.339 7.788a.83766.83766 0 01-.645.407l-.044.005a3.45756 3.45756 0 01-3.745-4.113 13.58638 13.58638 0 00.095-4.087M319.03664 406.2364s-7.095-2.787-4.522-7.676a.77474.77474 0 01.613-.401l.043-.004a3.53833 3.53833 0 013.804 4.055 13.49377 13.49377 0 00.062 4.026"/><rect width="232.902" height="13.018" x="240.075" y="233.726" fill="#a05325"/><rect width="1.84" height="7.836" x="380.289" y="238.908" fill="#843f1d"/><rect width="1.84" height="7.836" x="417.075" y="238.908" fill="#843f1d"/><rect width="1.84" height="7.836" x="343.503" y="238.908" fill="#843f1d"/><rect width="1.84" height="7.836" x="269.929" y="238.908" fill="#843f1d"/><rect width="1.84" height="7.836" x="306.716" y="238.908" fill="#843f1d"/><rect width="1.84" height="7.836" x="453.862" y="238.908" fill="#843f1d"/><rect width="270.159" height="25.015" x="221.447" y="425.73" fill="#bc6a3b"/><rect width="270.159" height="25.016" x="221.447" y="442.55" fill="#a05325"/><rect width="307.594" height="25.016" x="202.729" y="450.409" fill="#bc6a3b"/><rect width="125.607" height="1" x="365.998" y="449.91" fill="#303443"/><path fill="#bf6d2b" d="M348.91262,306.44731a82.39646,82.39646,0,0,0-82.303,82.304v36.979h14v-36.979a68.3035,68.3035,0,1,1,136.607,0v36.979h14v-36.979a82.39667,82.39667,0,0,0-82.304-82.304"/><path fill="#a55c36" d="M266.79342 383.52741q-.05851.918-.098 1.84h14c.031-.617.087-1.227.134-1.84h-6.06v-19.137h10.347c.237-.617.474-1.232.727-1.84h-14.933c-.207.614-.427 1.22-.619 1.84h2.638v19.137zM431.03374 383.52741h-9.119v-19.137h5.62c-.192-.62-.413-1.226-.619-1.84h-14.933c.254.608.49 1.223.727 1.84h7.365v19.137h-3.078c.047.613.103 1.223.134 1.84h14c-.025-.615-.059-1.228-.097-1.84"/><polygon fill="#a55c36" points="421.915 406.346 431.217 406.346 431.217 404.506 417.217 404.506 417.217 406.346 420.075 406.346 420.075 425.483 417.217 425.483 417.217 425.731 431.217 425.731 431.217 425.483 421.915 425.483 421.915 406.346"/><polygon fill="#a55c36" points="274.769 406.346 280.61 406.346 280.61 404.506 266.61 404.506 266.61 406.346 272.929 406.346 272.929 425.483 266.61 425.483 266.61 425.731 280.61 425.731 280.61 425.483 274.769 425.483 274.769 406.346"/><path fill="#a55c36" d="M416.29152 341.57231h-18.057c.578.604 1.149 1.215 1.705 1.84h17.617c-.411-.62-.837-1.231-1.265-1.84M394.99953 320.59581h-32.822v-13.064c-.611-.1-1.225-.188-1.84-.274v13.338h-7.142a67.81974 67.81974 0 0112.049 1.84h18.044v7.33q.92853.5415 1.84 1.113v-8.443h12.457c-.852-.627-1.71-1.246-2.586-1.84M286.76412 360.47081c.578-1.266 1.187-2.516 1.84-3.74v-13.319h9.282c.557-.625 1.127-1.235 1.706-1.839h-18.058c-.428.609-.853 1.219-1.264 1.839h6.494zM309.71532 332.86531q.909-.64049 1.84-1.253v-9.177h21.027a67.83293 67.83293 0 0112.049-1.84h-19.241v-10.705q-.924.276-1.84.574v10.131h-20.725c-.876.594-1.733 1.213-2.585 1.84h9.475z"/><path fill="#843f1d" d="M355.91353,313.78432h-.001a75.44424,75.44424,0,0,0-16.761,1.896,75.31385,75.31385,0,0,1,58.541,73.407v36.979h33.524v-36.979a75.30261,75.30261,0,0,0-75.303-75.303"/><path fill="#6d3316" d="M418.91454,425.48351v-19.139h12.302v-17.257c0-1.145-.036-2.28-.086-3.412-.018-.377-.04-.752-.063-1.128-.02-.34-.052-.679-.077-1.019h-12.076v-19.138h8.137c-.082-.235-.156-.474-.24-.708-.101-.281-.201-.563-.305-.844-.036-.096-.077-.191-.113-.288h-30.431v-19.137h19.807c-.473-.62-.953-1.236-1.445-1.84h-32.197v-19.138h8.827c-.214-.112-.431-.22-.645-.33-.852-.438-1.71-.865-2.581-1.271-.173-.081-.35-.159-.525-.238h-28.027v-6.73c-.611-.027-1.225-.035-1.839-.046v6.776h-3.681q1.905.86851,3.749,1.839h22.883v18.538q.99751,1.2,1.946,2.44h11.889v19.137h-1.258q.345.91649.668,1.84h23.541v19.138h-19.599c.044.612.09,1.224.12,1.84h33.314v19.137h-33.217v1.839h19.382v19.139h-19.382v.583h33.524v-.583Z"/><path fill="#924922" d="M438.21633,425.73051h-14v-36.979a68.303,68.303,0,1,0-136.606,0v36.979h-14v-36.979a82.303,82.303,0,1,1,164.606,0Z"/><rect width="270.159" height="25.015" x="221.447" y="213.892" fill="#bc6a3b"/><rect width="65.475" height="1" x="265.033" y="238.408" fill="#303443"/><path fill="#fff" d="M355.39129,261.87052c-28.77246.002-47.81933-41.1582-50.43359-47.14062-11.6709,12.542-24.69629,19.03906-38.72754,19.31738-.30859.00684-.62109.00977-.92774.00977-24.45019,0-43.63085-19.09278-43.82421-19.28809a.5.5,0,1,1,.71093-.70313c.19043.19239,19.09082,18.99122,43.11231,18.99122.30566,0,.6084-.00293.916-.00977,13.95411-.27832,26.917-6.86035,38.52735-19.56055a.49957.49957,0,0,1,.832.14844c.21289.52246,21.64941,52.13281,54.53711,46.85449.20215-.02539,18.73047-2.85644,37.25586-46.791a.50082.50082,0,0,1,.77929-.19141,90.2644,90.2644,0,0,0,29.69922,14.90039c16.10743,4.55469,40.25977,5.75879,63.81934-14.37012a.50006.50006,0,0,1,.65039.75977c-23.9082,20.42871-48.42285,19.19238-64.77637,14.56348a92.37493,92.37493,0,0,1-29.50586-14.66993c-18.708,43.999-37.00879,46.69532-37.78222,46.78907A30.655,30.655,0,0,1,355.39129,261.87052Z"/><path fill="#fff" d="M359.91375 276.84025c-.53222-1.24512-5.126-12.25977-2.52441-15.50586a2.77655 2.77655 0 012.89551-.84082 4.37731 4.37731 0 013.15332 2.22461c2.49707 4.42969-.94825 13.709-1.09668 14.10156l-.93555-.35156c.03418-.0918 3.42969-9.23535 1.16016-13.25977a3.37672 3.37672 0 00-2.46485-1.73242 1.84713 1.84713 0 00-1.93164.4834c-1.88867 2.35644 1.28223 11.25781 2.66406 14.48828zM280.17352 247.13029c-.53223-1.24512-5.127-12.26074-2.52539-15.50684a2.77473 2.77473 0 012.89551-.84082 4.37731 4.37731 0 013.15332 2.22461c2.49707 4.43164-.94727 13.71-1.09571 14.10254l-.93554-.35156c.03418-.0918 3.42968-9.23535 1.15918-13.26075a3.37675 3.37675 0 00-2.46485-1.73242 1.85088 1.85088 0 00-1.93164.4834c-1.88867 2.35645 1.2832 11.25781 2.665 14.48926zM445.63934 247.13029c-.53223-1.24512-5.126-12.26074-2.52442-15.50684a2.7735 2.7735 0 012.89551-.84082 4.37729 4.37729 0 013.15332 2.22461c2.49707 4.43066-.94824 13.71-1.09668 14.10254l-.93554-.35156c.03418-.0918 3.42968-9.23535 1.16015-13.26075a3.37671 3.37671 0 00-2.46484-1.73242 1.84525 1.84525 0 00-1.93164.4834c-1.8877 2.35547 1.2832 11.25781 2.66406 14.48926z"/><path fill="#f15b43" d="M351.25832,282.77741v20.79a10.00222,10.00222,0,0,1-4.318,8.229l-14.486,10.002a10.02441,10.02441,0,0,0,11.286,16.57l23.254-15.62a10.00136,10.00136,0,0,0,4.424-8.301v-31.67Z"/><path fill="#cf2633" d="M365.69774,308.16512c-1.721,6.981-14.722,19.293-34.861,28.737a10.02539,10.02539,0,0,0,12.904,1.466l23.254-15.62a10.00005,10.00005,0,0,0,4.424-8.301v-31.67h-5.191c.309,9.38.466,21.35-.53,25.388"/><path fill="#fff" d="M371.75042 283.29211h-20.72a3.70749 3.70749 0 110-7.415h20.72a3.70749 3.70749 0 110 7.415M335.25832 321.88481a15.47141 15.47141 0 00-3.419.392 10.01657 10.01657 0 0011.9 16.091l6.604-4.435a15.47676 15.47676 0 00-15.085-12.048M359.978 316.005a15.39444 15.39444 0 003.154 9.337l3.863-2.594a10.00163 10.00163 0 004.423-8.301V301.076a15.47386 15.47386 0 00-11.44 14.929"/><path fill="#f0efef" d="M350.34322 333.93271a15.43838 15.43838 0 00-3.085-6.312 120.16471 120.16471 0 01-16.422 9.282 10.02414 10.02414 0 0012.903 1.466zM365.69774 308.16512c-.596 2.419-2.548 5.477-5.678 8.833a15.38712 15.38712 0 003.113 8.344l3.862-2.594a10.00005 10.00005 0 004.424-8.301v-13.371a15.44251 15.44251 0 00-5.161 2.511 28.57411 28.57411 0 01-.56 4.578M371.75042 275.877h-5.789c.093 2.094.195 4.647.284 7.415h5.505a3.70751 3.70751 0 100-7.415"/><rect width="20.16" height="1" x="351.259" y="287" fill="#fff"/><path fill="#f0efef" d="M371.41744,287.00012h-4.983c.004.335.007.667.011,1h4.972Z"/><rect width="20.16" height="1" x="351.259" y="291.565" fill="#fff"/><path fill="#f0efef" d="M371.41744,292.56552v-1h-4.957c-.001.337-.003.669-.006,1Z"/><path fill="#fff" d="M354.34423 297.62611a1.50088 1.50088 0 000-3 1.50088 1.50088 0 000 3M361.54442 297.74622a1.50088 1.50088 0 000-3 1.50088 1.50088 0 000 3M341.144 321.3858a1.50088 1.50088 0 000-3 1.50088 1.50088 0 000 3M347.98381 324.9864a1.50088 1.50088 0 000-3 1.50088 1.50088 0 000 3"/><path fill="#f0efef" d="M368.86474 297.86632a1.5009 1.5009 0 000-3 1.5009 1.5009 0 000 3M352.54442 331.22571a1.50088 1.50088 0 000-3 1.50088 1.50088 0 000 3"/><path fill="#fff" d="M271.184,251.28043v20.79a9.99991,9.99991,0,0,1-4.317,8.229l-14.486,10.002a10.02455,10.02455,0,0,0,11.285,16.571l23.254-15.621a9.99888,9.99888,0,0,0,4.424-8.301v-31.67Z"/><path fill="#f0efef" d="M285.62453,276.669c-1.721,6.981-14.722,19.292-34.861,28.736a10.023,10.023,0,0,0,12.903,1.467l23.254-15.621a9.99752,9.99752,0,0,0,4.424-8.301V251.28h-5.19c.309,9.381.465,21.351-.53,25.389"/><path fill="#f15b43" d="M291.67724 251.795h-20.721a3.70749 3.70749 0 010-7.415h20.721a3.70749 3.70749 0 010 7.415M255.184 290.38782a15.5289 15.5289 0 00-3.418.392 10.017 10.017 0 0011.9 16.092l6.604-4.435a15.478 15.478 0 00-15.086-12.049"/><path fill="#cf2633" d="M270.27 302.43662a15.43218 15.43218 0 00-3.085-6.312 120.16475 120.16475 0 01-16.422 9.281 10.02432 10.02432 0 0012.903 1.467zM291.67724 244.38h-5.789c.093 2.095.195 4.648.283 7.416h5.506a3.708 3.708 0 000-7.416"/><rect width="1" height="4.068" x="273.587" y="251.648" fill="#f15b43"/><rect width="1" height="4.068" x="277.186" y="251.648" fill="#f15b43"/><rect width="1" height="4.068" x="280.817" y="251.648" fill="#f15b43"/><rect width="1" height="4.068" x="284.386" y="251.648" fill="#f15b43"/><rect width="1" height="4.068" x="288.085" y="251.648" fill="#cf2633"/><rect width="20.16" height="1" x="271.186" y="259.921" fill="#f15b43"/><rect width="20.16" height="1" x="271.186" y="264.486" fill="#f15b43"/><path fill="#cf2633" d="M291.34423,259.921h-4.983c.004.335.007.667.011,1h4.972Z"/><rect width="20.16" height="1" x="271.186" y="264.486" fill="#f15b43"/><path fill="#cf2633" d="M291.34423 265.48642v-1h-4.957c-.001.337-.003.669-.006 1zM272.70653 299.06651a1.50088 1.50088 0 000-3 1.50088 1.50088 0 000 3"/><path fill="#f15b43" d="M267.48684 293.00691a1.50089 1.50089 0 000-3 1.50089 1.50089 0 000 3M260.70653 289.2872a1.50088 1.50088 0 000-3 1.50088 1.50088 0 000 3"/><path fill="#fff" d="M438.04342,253.83411v20.79a10.00222,10.00222,0,0,1-4.318,8.229l-14.486,10.002a10.02441,10.02441,0,0,0,11.286,16.57l23.254-15.62a10.00142,10.00142,0,0,0,4.424-8.301v-31.67Z"/><path fill="#f0efef" d="M452.48293,279.2218c-1.721,6.981-14.722,19.293-34.861,28.737a10.02537,10.02537,0,0,0,12.904,1.466l23.254-15.62a10.00005,10.00005,0,0,0,4.424-8.301v-31.67h-5.191c.309,9.38.466,21.35-.53,25.388"/><path fill="#f15b43" d="M458.53563 254.34872h-20.72a3.70749 3.70749 0 110-7.415h20.72a3.70749 3.70749 0 110 7.415M422.04342 292.94151a15.47134 15.47134 0 00-3.419.392 10.01657 10.01657 0 0011.9 16.091l6.604-4.435a15.47677 15.47677 0 00-15.085-12.048M446.76314 287.06162a15.3944 15.3944 0 003.154 9.337l3.863-2.594a10.0016 10.0016 0 004.423-8.301v-13.371a15.47387 15.47387 0 00-11.44 14.929"/><path fill="#cf2633" d="M437.12844 304.9893a15.43847 15.43847 0 00-3.085-6.312 120.16471 120.16471 0 01-16.422 9.282 10.02415 10.02415 0 0012.903 1.466zM452.48293 279.2218c-.596 2.419-2.548 5.477-5.678 8.833a15.387 15.387 0 003.113 8.344l3.862-2.594a10.00005 10.00005 0 004.424-8.301v-13.371a15.44255 15.44255 0 00-5.161 2.511 28.575 28.575 0 01-.56 4.578M458.53563 246.93372h-5.789c.093 2.094.195 4.647.284 7.415h5.505a3.7075 3.7075 0 100-7.415"/><path fill="#f15b43" d="M440.559 258.7677a1.5009 1.5009 0 000-3 1.5009 1.5009 0 000 3M447.27883 258.7677a1.50088 1.50088 0 000-3 1.50088 1.50088 0 000 3"/><path fill="#cf2633" d="M454.71923,258.7677a1.5009,1.5009,0,0,0,0-3,1.5009,1.5009,0,0,0,0,3"/><path fill="#f15b43" d="M430.21044,285.27942l-2.178,1.505c3.498.658,12.677,3.372,15.503,13.901l1.741-1.17c-2.843-9.443-10.566-12.965-15.066-14.236"/><path fill="#cf2633" d="M443.53563 300.68561l1.717-1.153.024-.017a20.25316 20.25316 0 00-3.461-6.728c-.486.415-.991.832-1.507 1.251a18.786 18.786 0 013.227 6.647M279.45754 233.5401a1.5009 1.5009 0 000-3 1.5009 1.5009 0 000 3M359.25734 262.94052a1.50088 1.50088 0 000-3 1.50088 1.50088 0 000 3M445.28853 232.8204a1.50088 1.50088 0 000-3 1.50088 1.50088 0 000 3"/><rect width="69.48" height="65.881" x="475.583" y="409.544" fill="#f15b43"/><rect width="69.48" height="12.6" x="475.583" y="414.224" fill="#cf2633"/><rect width="69.479" height="3" x="475.583" y="442.965" fill="#ffcc5d"/><rect width="3" height="65.881" x="508.823" y="409.544" fill="#ffcc5d"/><path fill="#ffcc5d" d="M509.69989,410.65861a8.67131,8.67131,0,0,1-2.88672-.89844,33.87136,33.87136,0,0,0-7.12891-2.28418,23.73164,23.73164,0,0,0-7.18848-.52637,21.579,21.579,0,0,0-3.49414.63575,7.34609,7.34609,0,0,1-4.35839.13671,8.57423,8.57423,0,0,1-1.59864-.67871,7.6602,7.6602,0,0,1-2.61035,1.11914,6.39862,6.39862,0,0,1-4.86035-.99511.99973.99973,0,1,1,1.13867-1.64356,4.36955,4.36955,0,0,0,3.30078.6836,5.75513,5.75513,0,0,0,1.24024-.43457c-1.24219-1.13282-2.01563-2.52637-1.69922-3.75684a2.68844,2.68844,0,0,1,2.65918-1.918,2.53855,2.53855,0,0,1,1.76367.98145,4.32852,4.32852,0,0,1,.96,3.09082,3.44425,3.44425,0,0,1-.44531,1.36523,6.484,6.484,0,0,0,.73242.27246,5.40135,5.40135,0,0,0,3.29492-.16406,23.776,23.776,0,0,1,3.79-.68652,22.31626,22.31626,0,0,1,4.498.03613,10.26005,10.26005,0,0,1-2.40821-2.12012c-2.68261-3.50488-3.48144-5.89844-2.44335-7.31836,1.21093-1.65625,4.18359-1.00293,6.31347-.36816,5.97559,1.77734,9.17481,6.78613,11.08692,9.77929,1.40527,2.2002,2.5166,3.94239,1.56152,5.11719-.0127.0166-.02539.03223-.03906.04688A1.46446,1.46446,0,0,1,509.69989,410.65861Zm-15.166-14.15625c-.77734,0-.95117.21582-.96289.23242-.00684.00977-.57715,1.01269,2.415,4.9209,1.16992,1.52734,5.23437,4.0625,12.89844,6.39941-.35254-.66406-.873-1.47851-1.21387-2.01269-1.876-2.93653-4.71-7.373-9.97266-8.93946A11.66054,11.66054,0,0,0,494.53387,396.50236Zm-12.47363,5.58984a.741.741,0,0,0-.56836.42188c-.09863.38379.4082,1.20117,1.2998,1.95507a1.45809,1.45809,0,0,0,.15723-.51074,2.33861,2.33861,0,0,0-.50293-1.59277.67946.67946,0,0,0-.37109-.27246Z"/><path fill="#ffcc5d" d="M510.947,410.65861a1.47128,1.47128,0,0,1-1.17774-.52539c-.01367-.0166-.02832-.03223-.041-.04981-.957-1.1748.15625-2.917,1.5625-5.11719,1.91211-2.99414,5.11132-8.002,11.08691-9.77929,2.12988-.63477,5.10254-1.28711,6.3125.36719,1.03906,1.42187.23926,3.81445-2.44238,7.31738a10.23751,10.23751,0,0,1-2.41016,2.12207,22.16838,22.16838,0,0,1,4.49707-.03613,23.72774,23.72774,0,0,1,3.791.68652,5.39369,5.39369,0,0,0,3.29785.16406,6.5566,6.5566,0,0,0,.72949-.27246,3.45963,3.45963,0,0,1-.44434-1.36426,4.3309,4.3309,0,0,1,.96-3.09179,2.54555,2.54555,0,0,1,1.76757-.98243,2.7392,2.7392,0,0,1,2.65528,1.91895c.3164,1.23047-.457,2.625-1.69922,3.75684a5.76835,5.76835,0,0,0,1.24219.43457,4.37558,4.37558,0,0,0,3.30078-.68457.99958.99958,0,0,1,1.13672,1.64453,6.40967,6.40967,0,0,1-4.8584.99511,7.66437,7.66437,0,0,1-2.61231-1.11816,8.65614,8.65614,0,0,1-1.59668.67773,7.36248,7.36248,0,0,1-4.36132-.13671,21.5733,21.5733,0,0,0-3.49512-.63575,23.76713,23.76713,0,0,0-7.18067.52442,33.88743,33.88743,0,0,0-7.13476,2.28613A8.68367,8.68367,0,0,1,510.947,410.65861ZM526.111,396.50236a11.6507,11.6507,0,0,0-3.16211.60058c-5.2627,1.56543-8.09668,6.002-9.97168,8.9375-.3418.53614-.86231,1.35059-1.21582,2.01465,7.666-2.33789,11.72949-4.873,12.89746-6.39844,2.99316-3.90918,2.42383-4.91308,2.417-4.92187C527.06414,396.71915,526.89032,396.50236,526.111,396.50236Zm12.47754,5.58984h-.01465a.68543.68543,0,0,0-.374.27344,2.34106,2.34106,0,0,0-.50293,1.59375,1.47181,1.47181,0,0,0,.15625.50976c.8916-.7539,1.39941-1.57128,1.30078-1.95507A.73959.73959,0,0,0,538.58856,402.0922Z"/><rect width="2.97" height="4.68" x="508.839" y="422.145" fill="#f39821"/><rect width="1.631" height="3.083" x="507.208" y="442.904" fill="#f39821"/><rect width="1.63" height="3.083" x="527.068" y="442.904" fill="#f39821"/><rect width="3" height="65.881" x="528.718" y="409.544" fill="#ffcc5d"/><rect width="2.97" height="4.68" x="528.733" y="422.145" fill="#f39821"/><rect width="75.925" height="12.601" x="472.361" y="409.544" fill="#ffcc5d"/><rect width="69.48" height="104.215" x="111.918" y="371.21" fill="#f15b43"/><rect width="69.48" height="22.227" x="111.918" y="367.465" fill="#cf2633"/><rect width="69.479" height="3.984" x="111.918" y="418.818" fill="#ffcc5d"/><rect width="3.984" height="104.215" x="144.666" y="371.21" fill="#ffcc5d"/><rect width="4.005" height="8.256" x="144.648" y="381.437" fill="#f39821"/><rect width="1.631" height="3.982" x="143.048" y="418.847" fill="#f39821"/><rect width="75.925" height="16.027" x="108.696" y="365.41" fill="#ffcc5d"/><path fill="#ffcc5d" d="M146.028,366.41447a8.68116,8.68116,0,0,1-2.88672-.89844,33.89079,33.89079,0,0,0-7.1289-2.28418,23.77429,23.77429,0,0,0-7.18848-.52637,21.722,21.722,0,0,0-3.49414.63477,7.34761,7.34761,0,0,1-4.35938.13769,8.56094,8.56094,0,0,1-1.59765-.67773,7.645,7.645,0,0,1-2.61231,1.11816,6.41885,6.41885,0,0,1-4.8584-.99511.99958.99958,0,0,1,1.13672-1.64454,4.361,4.361,0,0,0,3.30176.68458,5.7722,5.7722,0,0,0,1.24121-.4336c-1.24316-1.13281-2.0166-2.52734-1.69824-3.75879a2.67158,2.67158,0,0,1,2.65723-1.917,2.53909,2.53909,0,0,1,1.76367.98047,4.33384,4.33384,0,0,1,.96094,3.09082,3.44927,3.44927,0,0,1-.44434,1.36426,6.17045,6.17045,0,0,0,.73047.27441,5.38734,5.38734,0,0,0,3.2959-.16406,23.776,23.776,0,0,1,3.79-.68652,22.31822,22.31822,0,0,1,4.498.03613,10.22029,10.22029,0,0,1-2.4082-2.12012c-2.68652-3.5-3.48535-5.89355-2.44434-7.31836,1.21094-1.65625,4.18262-1.0039,6.31446-.36816,5.97461,1.77734,9.17382,6.78515,11.085,9.77734,1.40722,2.20215,2.51953,3.94336,1.56445,5.11914-.01367.0166-.02734.03223-.041.04785A1.46587,1.46587,0,0,1,146.028,366.41447Zm-15.166-14.15625c-.77833,0-.95215.21679-.96387.23242-.00684.00976-.58008,1.01758,2.416,4.9209,1.16895,1.52636,5.23243,4.06152,12.89844,6.39941-.35351-.66406-.87305-1.47754-1.21484-2.01269-1.876-2.9375-4.71-7.374-9.97168-8.93946A11.66067,11.66067,0,0,0,130.862,352.25822Zm-12.47461,5.58984a.73674.73674,0,0,0-.56739.4209c-.09668.37305.41992,1.19043,1.30567,1.94531a1.44,1.44,0,0,0,.15136-.5,2.341,2.341,0,0,0-.5039-1.59277.67947.67947,0,0,0-.3711-.27246Z"/><path fill="#ffcc5d" d="M147.2741,366.41447a1.46792,1.46792,0,0,1-1.17773-.52637c-.01465-.01563-.02832-.03223-.042-.0498-.95313-1.17481.15918-2.916,1.56347-5.11622,1.91211-2.99316,5.11133-8.002,11.0879-9.77929,2.13085-.63574,5.10156-1.28809,6.3125.36816,1.0371,1.41992.23828,3.81348-2.44239,7.31641a10.25717,10.25717,0,0,1-2.41015,2.12207,22.39157,22.39157,0,0,1,4.498-.03613,23.77021,23.77021,0,0,1,3.791.68652,5.40214,5.40214,0,0,0,3.2959.16406,6.38384,6.38384,0,0,0,.73047-.27246,3.45931,3.45931,0,0,1-.44434-1.36426,4.32835,4.32835,0,0,1,.958-3.09082,2.54335,2.54335,0,0,1,1.76855-.9834,2.72741,2.72741,0,0,1,2.65528,1.917c.3164,1.23242-.457,2.62695-1.69922,3.75976a5.7722,5.7722,0,0,0,1.24121.4336,4.36567,4.36567,0,0,0,3.30176-.68458.99958.99958,0,0,1,1.13671,1.64454,6.405,6.405,0,0,1-4.85839.99511,7.66437,7.66437,0,0,1-2.61231-1.11816,8.55256,8.55256,0,0,1-1.59668.67773,7.34863,7.34863,0,0,1-4.35937-.13672,21.57454,21.57454,0,0,0-3.49512-.63574,23.7607,23.7607,0,0,0-7.18262.52539,33.89554,33.89554,0,0,0-7.13476,2.28516A8.6771,8.6771,0,0,1,147.2741,366.41447Zm15.165-14.15625a11.6507,11.6507,0,0,0-3.16211.60058c-5.26367,1.56641-8.09765,6.00293-9.97363,8.93946-.34082.53418-.86035,1.34863-1.21387,2.01269,7.66407-2.33789,11.72852-4.873,12.89747-6.39844,2.99218-3.90918,2.42285-4.91308,2.416-4.92187C163.39129,352.475,163.21746,352.25822,162.43914,352.25822Zm12.47657,5.58984h-.01465a.68386.68386,0,0,0-.374.27441,2.33032,2.33032,0,0,0-.50195,1.5918,1.47076,1.47076,0,0,0,.15625.51074c.8916-.7539,1.39942-1.57129,1.30078-1.95507A.74109.74109,0,0,0,174.91571,357.84806Z"/><path fill="#82c56d" d="M371.7318,60.57282c-32.506-7.633-65.352,13.835-73.362,47.949-8.011,34.115,11.848,67.958,44.355,75.591,32.506,7.631,65.353-13.835,73.363-47.951,8.01-34.114-11.849-67.957-44.356-75.589m-20.746,95.399c-18.37-4.314-29.889-22.17-25.729-39.886,4.159-17.711,22.42-28.574,40.792-24.26,18.366,4.312,29.888,22.169,25.73,39.88-4.16,17.715-22.426,28.578-40.793,24.266"/><path fill="#4da258" d="M394.14113 100.3497c-18.976-23.14-32.227-9.242-32.227-9.242l-.005.009a35.56314 35.56314 0 014.139.709c18.366 4.312 29.889 22.17 25.731 39.88-3.447 14.677-16.577 24.641-31.424 25.177.051.009.097.021.148.03 40.301 6.876 52.614-33.423 33.638-56.563M325.25634 116.086c1.296-44.137 21.917-55.116 21.917-55.116-.254-.23-.507-.445-.76-.666-22.78 4.837-42.145 23.097-48.044 48.218-7.533 32.081 9.581 63.918 38.681 73.948 8.504-18.308-6.527-21.561-10.774-48.325a31.93471 31.93471 0 01-1.02-18.059"/><path fill="#f15b43" d="M341.37453 95.09872a1.90288 1.90288 0 00.63.141 2.57783 2.57783 0 00.591-.019 3.534 3.534 0 001.041-.324 5.177 5.177 0 00.899-.543 7.94858 7.94858 0 00.818-.662 25.51182 25.51182 0 002.893-3.25c1.815-2.349 3.512-4.89 5.249-7.419q2.58751-3.813 5.281-7.643l.341-.473.408-.54c.289-.373.565-.752.87-1.119.601-.733 1.235-1.45 1.891-2.157q1.002-1.044 2.093-2.036c.736-.651 1.501-1.281 2.302-1.883.401-.3.807-.592 1.231-.87q.624-.426 1.279-.821c.869-.529 1.785-1.003 2.71-1.455a27.4764 27.4764 0 015.932-1.979 24.28286 24.28286 0 0112.341.611 22.25359 22.25359 0 019.884 6.374 17.08365 17.08365 0 011.74 2.344 13.58379 13.58379 0 011.292 2.638 8.80979 8.80979 0 01.571 2.917 3.76807 3.76807 0 01-.915 2.696 3.47223 3.47223 0 00-.972-2.097 8.93667 8.93667 0 00-1.674-1.405 16.84308 16.84308 0 00-1.897-1.059q-.987-.45452-1.993-.805a22.89343 22.89343 0 00-7.944-1.257 19.84538 19.84538 0 00-7.03 1.449c-.54.226-1.078.449-1.599.726-.53.252-1.045.551-1.558.853-.514.311-1.022.63-1.52.991-.254.17-.505.347-.751.539-.252.178-.493.382-.741.574-.497.384-.98.804-1.462 1.234-.486.427-.962.879-1.433 1.348q-.71547.6975-1.405 1.452c-.24.24-.463.506-.697.759l-.792.883a58.85617 58.85617 0 01-7.545 7.11 42.19086 42.19086 0 01-4.404 3.045 30.94971 30.94971 0 01-4.981 2.453 17.46781 17.46781 0 01-5.756 1.234 11.03592 11.03592 0 01-1.557-.095 7.28289 7.28289 0 01-1.536-.406 4.63024 4.63024 0 01-1.341-.822 2.52173 2.52173 0 01-.784-1.232M303.726 93.7608a7.26961 7.26961 0 00.329 3.299 5.58077 5.58077 0 00.586 1.203 7.5069 7.5069 0 00.712.963 15.46973 15.46973 0 001.646 1.568c.569.487 1.207.966 1.847 1.444 1.28.968 2.668 1.947 4.11 2.987.371.258.736.515 1.09.787.379.258.747.526 1.109.803.377.265.754.544 1.124.822l.599.454.652.503a39.92584 39.92584 0 019.299 10.002 25.41606 25.41606 0 011.783 3.374 15.75441 15.75441 0 011.178 4.083 7.64528 7.64528 0 01-.698 4.685 5.30359 5.30359 0 01-1.404 1.64 6.8128 6.8128 0 01-1.698.943 16.27381 16.27381 0 00-.116-1.799 3.75366 3.75366 0 00-.442-1.367 4.928 4.928 0 00-1.662-1.487c-.629-.411-1.377-.848-2.143-1.292l-2.403-1.377c-1.638-.948-3.346-1.941-5.021-2.999-1.678-1.062-3.349-2.185-4.991-3.378l-.613-.449-.312-.231-.349-.274c-.464-.369-.933-.723-1.381-1.118q-.67951-.59248-1.335-1.212c-.439-.425-.86-.873-1.281-1.316a24.11376 24.11376 0 01-4.296-6.458 17.65181 17.65181 0 01-1.257-4.068 12.91026 12.91026 0 01-.023-4.519c.521-3.046 2.672-5.813 5.361-6.216"/><path fill="#cf2633" d="M325.99752 133.3165l-.009-.028c0 .01 0 .021.001.032l.008-.004M319.22414 125.99912l2.403 1.377c.766.443 1.514.881 2.143 1.292a7.05223 7.05223 0 011.264.972 31.80229 31.80229 0 01.179-13.353 41.85121 41.85121 0 00-7.683-7.693l-.652-.503-.599-.454c-.37-.279-.747-.557-1.124-.823-.362-.276-.73-.544-1.109-.802-.354-.273-.719-.53-1.09-.787-1.442-1.04-2.83-2.019-4.11-2.988-.64-.477-1.278-.957-1.847-1.443a15.46783 15.46783 0 01-1.646-1.568 7.5042 7.5042 0 01-.712-.963 5.60147 5.60147 0 01-.586-1.203 7.25971 7.25971 0 01-.331-3.277 66.33628 66.33628 0 00-4.846 12.73 20.81112 20.81112 0 00.767 2.05 24.09766 24.09766 0 004.296 6.458c.421.444.842.892 1.281 1.317.436.414.882.816 1.335 1.212.448.394.917.749 1.381 1.118l.348.273.313.232.613.449c1.642 1.192 3.313 2.315 4.991 3.378 1.675 1.058 3.383 2.051 5.021 2.999"/><path d="M313.93426,123.42228c-5.82129-3.69824-11.75586-7.87695-14.74609-14.65625l.91406-.4043c2.87793,6.52442,8.67676,10.60059,14.36914,14.2168Z"/><path fill="#f15b43" d="M307.23482,159.255a8.768,8.768,0,0,0,1.782,3.59,3.60153,3.60153,0,0,0,1.193.873,3.5453,3.5453,0,0,0,1.171.257,11.33837,11.33837,0,0,0,2.536-.231c.941-.177,1.971-.427,3.035-.733,2.138-.616,4.394-1.408,6.722-2.237,2.423-.857,4.825-1.681,7.235-2.491,2.411-.812,4.827-1.602,7.322-2.377,2.499-.761,5.061-1.531,7.854-2.163,1.392-.32,2.844-.601,4.373-.799a25.33449,25.33449,0,0,1,4.792-.202,14.95588,14.95588,0,0,1,4.859,1.081,10.35271,10.35271,0,0,1,3.881,2.746,20.55725,20.55725,0,0,0-4.098,1.132,20.12984,20.12984,0,0,0-3.258,1.745c-2.014,1.301-4.009,2.85-6.238,4.357a64.9925,64.9925,0,0,1-7.155,4.288,54.37274,54.37274,0,0,1-7.985,3.325,53.59779,53.59779,0,0,1-8.459,2.034,34.63772,34.63772,0,0,1-9.384.33,21.22609,21.22609,0,0,1-5.105-1.186,12.44779,12.44779,0,0,1-4.967-3.269,8.1557,8.1557,0,0,1-1.607-2.707,7.31824,7.31824,0,0,1,1.501-7.363"/><path fill="#cf2633" d="M360.10881,153.8233a14.937,14.937,0,0,0-4.858-1.081,25.26357,25.26357,0,0,0-4.793.202c-1.529.197-2.981.479-4.373.799-2.793.632-5.355,1.401-7.854,2.163-2.495.774-4.911,1.564-7.322,2.377-2.41.81-4.812,1.634-7.235,2.49l3.123,12.677a53.48753,53.48753,0,0,0,8.459-2.034,54.5854,54.5854,0,0,0,7.985-3.324,65.04754,65.04754,0,0,0,7.154-4.29c2.23-1.506,4.225-3.056,6.238-4.356a20.10171,20.10171,0,0,1,3.259-1.745,20.4923,20.4923,0,0,1,4.098-1.132,10.35352,10.35352,0,0,0-3.881-2.746"/><path fill="#cf2633" d="M334.21724,157.18561q-1.662.543-3.309,1.098c-2.41.809-4.811,1.633-7.234,2.49-2.328.829-4.584,1.621-6.723,2.237-1.063.306-2.093.557-3.035.734a11.32142,11.32142,0,0,1-2.535.23,3.71016,3.71016,0,0,1-.757-.12,59.72011,59.72011,0,0,0,10.447,10.106,38.19209,38.19209,0,0,0,5.726-.51,53.65277,53.65277,0,0,0,8.459-2.035c1.41-.461,2.802-.98,4.166-1.55-.633-4.239-2.77-8.012-5.205-12.68"/><path fill="#f15b43" d="M408.16652,105.65341a5.46016,5.46016,0,1,1-4.067-6.564,5.45939,5.45939,0,0,1,4.067,6.564"/><path fill="#cf2633" d="M314.26513,139.19251a5.46,5.46,0,1,1-4.067-6.563,5.45862,5.45862,0,0,1,4.067,6.563"/><path fill="#f15b43" d="M381.82372 168.85651a5.46016 5.46016 0 11-4.067-6.564 5.458 5.458 0 014.067 6.564M338.103 85.26382a5.46053 5.46053 0 11-4.068-6.563 5.45917 5.45917 0 014.068 6.563"/><path fill="#cf2633" d="M329.39794,88.2901a70.79682,70.79682,0,0,1,3.681-9.723,5.4535,5.4535,0,0,0-3.681,9.723"/><path fill="#ffcc5d" d="M358.31 176.503a3.4879 3.4879 0 11-2.599-4.192 3.48784 3.48784 0 012.599 4.192M410.19283 132.44931a3.4879 3.4879 0 11-2.598-4.193 3.48805 3.48805 0 012.598 4.193M391.59032 88.6319a3.4879 3.4879 0 11-2.598-4.193 3.48692 3.48692 0 012.598 4.193M358.62252 67.2413a3.4879 3.4879 0 11-2.598-4.193 3.48806 3.48806 0 012.598 4.193"/><path fill="#f39821" d="M318.50924 97.23151a3.48828 3.48828 0 11-2.599-4.192 3.48832 3.48832 0 012.599 4.192M326.519 148.93271a3.4879 3.4879 0 11-2.598-4.193 3.488 3.488 0 012.598 4.193"/><path fill="#e9d495" d="M385.30422,155.62122a1.58945,1.58945,0,0,0,0-3.177,1.58945,1.58945,0,0,0,0,3.177"/><path fill="#fdeba9" d="M342.21242 176.60751a1.58946 1.58946 0 000-3.177 1.58946 1.58946 0 000 3.177M363.33254 166.1026a1.58945 1.58945 0 000-3.177 1.58945 1.58945 0 000 3.177M410.43114 143.78333a1.58945 1.58945 0 000-3.177 1.58945 1.58945 0 000 3.177"/><path fill="#e9d495" d="M399.24263,121.3595a1.589,1.589,0,0,0,0-3.176,1.58895,1.58895,0,0,0,0,3.176"/><path fill="#fdeba9" d="M412.226 110.12222a1.58946 1.58946 0 000-3.177 1.58946 1.58946 0 000 3.177M400.74364 89.86823a1.589 1.589 0 000-3.176 1.589 1.589 0 000 3.176M345.15383 88.5079a1.58944 1.58944 0 000-3.177 1.58944 1.58944 0 000 3.177M345.57863 69.3497a1.58945 1.58945 0 000-3.177 1.58945 1.58945 0 000 3.177M365.08443 64.6622a1.58944 1.58944 0 000-3.177 1.58944 1.58944 0 000 3.177"/><path fill="#e9d495" d="M323.44384 77.80182a1.58944 1.58944 0 000-3.177 1.58944 1.58944 0 000 3.177M321.03762 105.95911a1.589 1.589 0 000-3.176 1.58895 1.58895 0 000 3.176M301.97124 120.31162a1.58947 1.58947 0 000-3.177 1.58947 1.58947 0 000 3.177M319.226 135.335a1.58945 1.58945 0 000-3.177 1.58945 1.58945 0 000 3.177M310.72512 155.67783a1.589 1.589 0 000-3.176 1.589 1.589 0 000 3.176"/><path fill="#fdeba9" d="M333.73482 154.4386a1.58945 1.58945 0 000-3.177 1.58945 1.58945 0 000 3.177M372.05422 180.1427a1.589 1.589 0 000-3.176 1.589 1.589 0 000 3.176"/><path fill="#e9d495" d="M375.41063,90.003a1.58894,1.58894,0,0,0,0-3.176,1.58894,1.58894,0,0,0,0,3.176"/><path fill="#4da258" d="M344.78173,60.67291l.345.871,2.047-.574a4.01672,4.01672,0,0,1,1.618-1.118q-2.022.342-4.01.821"/><path d="M374.28094,153.96818l-.43359-.90039a31.93917,31.93917,0,0,0,17.44531-21.47559c3.11816-13.28125-2.78613-27.27148-14.69141-34.8125l.53516-.8457c12.26562,7.76953,18.34473,22.1914,15.12891,35.88672A32.928,32.928,0,0,1,374.28094,153.96818Z"/><path fill="#f15b43" d="M404.50042,164.7608a20.65447,20.65447,0,0,1-2.5,4.95,17.42905,17.42905,0,0,1-3.82,3.99,13.72316,13.72316,0,0,1-4.84,2.331,9.30946,9.30946,0,0,1-5.05-.051,13.494,13.494,0,0,0,4.79-6.549,18.16178,18.16178,0,0,0,.91-6.771,42.33481,42.33481,0,0,0-3.34-13.58c-.24-.58-.48-1.16-.71-1.75l-.39-.87-.39-.91c-.269-.617-.507-1.251-.755-1.88l-.014.011c-.17-.421-.341-.841-.491-1.271-.16-.43-.31-.85-.46-1.29a42.445,42.445,0,0,1-2.03-9.429,31.287,31.287,0,0,1,.561-9.87,21.5297,21.5297,0,0,1,1.67-4.731,16.08777,16.08777,0,0,1,1.289-2.159c.05-.061.1-.131.16-.211a8.7643,8.7643,0,0,1,.94-1.08c.09-.09.14-.15.14-.15s1.21,3.38,1.4,4.07c.401,1.39.88,2.711,1.37,3.99.24.641.5,1.28.76,1.9.191.46.38.911.58,1.36.13.32.281.65.42.971.47,1.07.95,2.109,1.46,3.16,1.13,2.389,2.34,4.75,3.55,7.119l1.84,3.56.53,1.071.52,1.109c.33.76.66,1.521.95,2.301a35.62928,35.62928,0,0,1,2.261,9.979,26.54421,26.54421,0,0,1-1.311,10.68"/><path fill="#cf2633" d="M399.71141,136.0567c-1.212-2.367-2.422-4.723-3.553-7.117-1.155-2.396-2.232-4.821-3.222-7.386q-.339-.891-.66-1.807a31.87843,31.87843,0,0,1-4.666,21.834c.468,1.349.982,2.674,1.554,3.967l.388.915.388.873c.229.585.474,1.167.712,1.744.193.494.379.984.561,1.474a30.71907,30.71907,0,0,0,9.308-12.93Z"/><path fill="#cf2633" d="M395.33052,133.22083s-4.5,9.24-6.939,10.461c-.17-.421-.341-.841-.491-1.271-.16-.43-.31-.85-.46-1.29a42.44332,42.44332,0,0,1-2.03-9.429,31.287,31.287,0,0,1,.561-9.87,21.52752,21.52752,0,0,1,1.67-4.731,16.09407,16.09407,0,0,1,1.289-2.159c.05-.061.1-.131.16-.211.301-.369.72-.84.94-1.08.09-.09.14-.149.14-.149s1.21,3.379,1.4,4.069c.401,1.39.88,2.711,1.37,3.99.24.641.5,1.28.76,1.9.18.46.38.911.58,1.36.13.32.28.65.42.971.36,4.139.63,7.439.63,7.439"/><polygon fill="#bf6d2b" points="240.076 403.141 265.271 403.141 265.271 422.145 262.751 422.145 262.751 425.484 240.076 425.484 240.076 403.141"/><polygon fill="#a55c36" points="265.271 404.506 248.818 404.506 248.818 403.141 246.978 403.141 246.978 404.506 240.076 404.506 240.076 406.346 265.271 406.346 265.271 404.506"/><rect width="69.479" height="65.881" x="188.395" y="409.544" fill="#ffcc5d"/><rect width="69.479" height="12.6" x="188.394" y="412.604" fill="#f39821"/><path fill="#f15b43" d="M214.434 451.48451a1.50088 1.50088 0 000-3 1.50088 1.50088 0 000 3M241.79342 454.60461a1.50088 1.50088 0 000-3 1.50088 1.50088 0 000 3M251.15383 437.08411a1.50088 1.50088 0 000-3 1.50088 1.50088 0 000 3M203.15383 471.88481a1.50088 1.50088 0 000-3 1.50088 1.50088 0 000 3M200.27393 431.294a.75045.75045 0 000-1.5.75045.75045 0 000 1.5M203.394 445.69441a.75045.75045 0 000-1.5.75045.75045 0 000 1.5M197.63424 459.37411a.75045.75045 0 000-1.5.75045.75045 0 000 1.5M228.59423 431.294a.75045.75045 0 000-1.5.75045.75045 0 000 1.5M228.59423 445.21491a.75045.75045 0 000-1.5.75045.75045 0 000 1.5M231.23383 461.05481a.75045.75045 0 000-1.5.75045.75045 0 000 1.5M217.79343 467.05481a.75044.75044 0 000-1.5.75044.75044 0 000 1.5M245.394 468.254a.75045.75045 0 000-1.5.75045.75045 0 000 1.5M215.394 443.68471a4.5 4.5 0 10-4.5-4.5 4.55126 4.55126 0 004.5 4.5M208.19382 465.044a4.5 4.5 0 10-4.5-4.5 4.54993 4.54993 0 004.5 4.5M237.71433 440.80481a4.5 4.5 0 10-4.5-4.5 4.55123 4.55123 0 004.5 4.5M252.55422 455.20421a4.5 4.5 0 10-4.5-4.5 4.55062 4.55062 0 004.5 4.5M234.83353 474.80481a4.5 4.5 0 10-4.5-4.5 4.5506 4.5506 0 004.5 4.5M194.354 444.24421a4.5 4.5 0 10-4.5-4.5 4.55059 4.55059 0 004.5 4.5"/><rect width="3" height="65.881" x="221.634" y="409.544" fill="#f15b43"/><rect width="75.146" height="12.601" x="185.561" y="409.544" fill="#f15b43"/><path fill="#f15b43" d="M223.071,410.65861a8.68116,8.68116,0,0,1-2.88672-.89844,33.89071,33.89071,0,0,0-7.12891-2.28418,23.73435,23.73435,0,0,0-7.18847-.52637,21.57863,21.57863,0,0,0-3.49414.63575,7.34612,7.34612,0,0,1-4.3584.13671,8.57386,8.57386,0,0,1-1.59863-.67871,7.66032,7.66032,0,0,1-2.61036,1.11914,6.39862,6.39862,0,0,1-4.86035-.99511.99973.99973,0,1,1,1.13867-1.64356,4.36407,4.36407,0,0,0,3.30079.6836,5.75506,5.75506,0,0,0,1.24023-.43457c-1.24219-1.13282-2.01562-2.52637-1.69922-3.75684a2.7008,2.7008,0,0,1,2.65918-1.918,2.53853,2.53853,0,0,1,1.76367.98145,4.33434,4.33434,0,0,1,.96,3.09082,3.44425,3.44425,0,0,1-.44531,1.36523,6.484,6.484,0,0,0,.73242.27246,5.40112,5.40112,0,0,0,3.29493-.16406,23.77561,23.77561,0,0,1,3.79-.68652,22.24339,22.24339,0,0,1,4.49805.03613,10.25978,10.25978,0,0,1-2.4082-2.12012c-2.68262-3.50488-3.48145-5.89844-2.44336-7.31836,1.21094-1.65625,4.18262-1.00293,6.31348-.36816,5.97558,1.77734,9.1748,6.78613,11.08691,9.77929,1.40527,2.2002,2.5166,3.94239,1.5625,5.11719-.01367.0166-.02734.03223-.041.04785A1.46584,1.46584,0,0,1,223.071,410.65861Zm-15.166-14.15625c-.77734,0-.95117.21582-.96289.23242-.00683.00977-.57715,1.01269,2.415,4.9209,1.16992,1.52637,5.2334,4.06152,12.89844,6.39941-.35254-.66406-.87305-1.47851-1.21387-2.01269-1.876-2.93653-4.71-7.373-9.97265-8.93946A11.66065,11.66065,0,0,0,207.905,396.50236Zm-12.47363,5.58984a.741.741,0,0,0-.56836.42188c-.09863.38379.4082,1.20117,1.29981,1.95507a1.45828,1.45828,0,0,0,.15722-.51074,2.3401,2.3401,0,0,0-.50293-1.59277.68272.68272,0,0,0-.37109-.27246Z"/><path fill="#f15b43" d="M224.31805,410.65861a1.47126,1.47126,0,0,1-1.17773-.52539c-.01368-.0166-.02832-.03321-.041-.04981-.95605-1.17383.15625-2.916,1.56152-5.11719,1.91211-2.99316,5.11133-8.002,11.08789-9.77929,2.12891-.63477,5.10352-1.28809,6.3125.36816,1.03614,1.418.23829,3.80957-2.43847,7.31153a10.267,10.267,0,0,1-2.416,2.12695,22.26485,22.26485,0,0,1,4.5-.03613,23.77021,23.77021,0,0,1,3.791.68652,5.38751,5.38751,0,0,0,3.2959.16406,6.57257,6.57257,0,0,0,.73046-.27246,3.45946,3.45946,0,0,1-.44433-1.36426,4.3283,4.3283,0,0,1,.958-3.09082,2.54715,2.54715,0,0,1,1.76757-.9834,2.68219,2.68219,0,0,1,2.65625,1.917c.31641,1.23242-.457,2.626-1.69921,3.75879a5.78652,5.78652,0,0,0,1.24218.43457,4.36094,4.36094,0,0,0,3.29981-.6836.99973.99973,0,1,1,1.13867,1.64356,6.40324,6.40324,0,0,1-4.85938.99511,7.68365,7.68365,0,0,1-2.6123-1.11816,8.65614,8.65614,0,0,1-1.59668.67773,7.356,7.356,0,0,1-4.35937-.13671,21.5733,21.5733,0,0,0-3.49512-.63575,23.75674,23.75674,0,0,0-7.18457.52539,33.86049,33.86049,0,0,0-7.13184,2.28516A8.68361,8.68361,0,0,1,224.31805,410.65861Zm15.16406-14.15625a11.6569,11.6569,0,0,0-3.16211.60058c-5.26367,1.56641-8.09765,6.00293-9.97363,8.93946-.34082.53418-.86133,1.34863-1.21387,2.01269,7.665-2.33789,11.72852-4.873,12.89746-6.39844,2.99024-3.9121,2.42286-4.91308,2.416-4.92187C240.43426,396.71818,240.26043,396.50236,239.48211,396.50236Zm12.47656,5.58984H251.944a.68384.68384,0,0,0-.374.27442,2.33182,2.33182,0,0,0-.50195,1.59179,1.47714,1.47714,0,0,0,.15625.51074c.8916-.7539,1.39941-1.57226,1.30078-1.95507A.728.728,0,0,0,251.95867,402.0922Z"/><rect width="2.97" height="3.06" x="221.609" y="422.145" fill="#cf2633"/><rect width="4.877" height="49.941" x="257.874" y="425.484" fill="#a05325"/><rect width="3.33" height="12.601" x="469.031" y="409.544" fill="#bc6a3b"/><rect width="4.887" height="49.941" x="470.696" y="425.484" fill="#a05325"/><rect width="21.721" height="1" x="453.862" y="449.91" fill="#303443"/><path fill="#cf2633" d="M400.52492,166.72083a28.213,28.213,0,0,1-1.268-6.598c-.104-1.333-.15-2.539-.19-3.602-.124-3.324-.215-5.726-2.017-7.353-1.384-1.25-3.434-1.682-6.971-1.492.189.47.383.94.574,1.404a42.51564,42.51564,0,0,1,3.343,13.582,18.39232,18.39232,0,0,1-.916,6.77,13.56483,13.56483,0,0,1-4.784,6.553,9.30111,9.30111,0,0,0,5.042.043,13.566,13.566,0,0,0,4.839-2.327,16.82516,16.82516,0,0,0,2.912-2.798,8.94,8.94,0,0,0-.564-4.182"/><path fill="#f15b43" d="M370.854,160.09772s10.666-9.871,18.998-10.41,6.767,2.369,7.411,10.592c.645,8.223,3.322,8.616.917,12.603-2.405,3.988-5.864,9.166-26.269,2.276-20.406-6.891-1.057-15.061-1.057-15.061"/><path fill="#f6978f" d="M381.5036,155.52189l-.25977-.53516c.34766-.168,8.54688-4.10937,12.58984-2.74511l-.18945.5625C389.82489,151.51994,381.5866,155.48087,381.5036,155.52189Z"/><path fill="#f15b43" d="M353.29732,160.3331s-10.926-9.583-19.269-9.899c-8.343-.317-6.702,2.548-7.126,10.786s-3.09,8.701-.58,12.623c2.512,3.922,6.108,9.006,26.322,1.573,20.213-7.434.653-15.083.653-15.083"/><path fill="#cf2633" d="M349.75142 164.61041a11.506 11.506 0 01-6.784-.576 45.97924 45.97924 0 014.68 3.572c.796.916-.271 1.002-3.97 1.55 0 0 5.9.599 7.42 4.053zM374.02391 164.28622a11.502 11.502 0 006.766-.757 46.05773 46.05773 0 00-4.583 3.696c-.772.937.297.994 4.01 1.443 0 0-5.882.757-7.308 4.25z"/><path fill="#f15b43" d="M357.979,175.90833s-3.752,4.012-4.015,16.346c0,0-1.633.45-3.833-4.154a13.12532,13.12532,0,0,0-4.3,3.55s.076-12.432,5.946-17.45Z"/><path fill="#f6978f" d="M347.70672,188.29337l-.58984-.06445c.03125-.2832.78808-6.9375,2.82031-8.85352l.4082.43165C348.46942,181.5756,347.71453,188.227,347.70672,188.29337Z"/><path fill="#f15b43" d="M365.25634,175.71793s3.798,3.969,4.202,16.299c0,0,1.638.43,3.785-4.197a13.08332,13.08332,0,0,1,4.34,3.5s-.218-12.431-6.145-17.38Z"/><path fill="#f15b43" d="M365.25634,175.71793s3.798,3.969,4.202,16.299c0,0,1.638.43,3.785-4.197a13.08332,13.08332,0,0,1,4.34,3.5s-.218-12.431-6.145-17.38Z"/><path fill="#f6978f" d="M375.66961,187.98478c-.00781-.06738-.83984-6.71-2.73535-8.45606l.40234-.4375c2.05567,1.89454,2.88868,8.53907,2.92286,8.82129Z"/><path fill="#cf2633" d="M372.49364 174.961a10.17483 10.17483 0 00-1.056-1.021l-6.181 1.778a10.10054 10.10054 0 011.492 2.466 3.997 3.997 0 002.822-.151 6.29422 6.29422 0 002.923-3.072M351.77681 174.20032a10.63958 10.63958 0 00-1.368 1.428 6.26666 6.26666 0 002.051 1.993c1.447.841 2.587.641 4.254.343a9.26131 9.26131 0 011.265-2.056z"/><path fill="#f15b43" d="M353.42131,175.6192c-2.625-1.524-3.346-4.762-3.607-5.938-.306-1.373-1.023-4.597.975-6.963a5.61614,5.61614,0,0,1,4.463-2.091c1.171.108,1.339.684,3.007,1.029a9.09675,9.09675,0,0,0,3.741-.05c2.695-.549,4.063-1.371,5.965-1.683a4.581,4.581,0,0,1,4.514,1.757c2.848,2.815,2.193,6.869,2.029,7.884-.108.668-.813,5.026-3.976,6.468-1.843.84-2.703-.138-6.634-.446-6.141-.482-7.754,1.615-10.477.033"/><path fill="#cf2633" d="M352.644 175.4151s-.305-.109-.825-.284a1.32089 1.32089 0 00-.042-.931c-1.069-.376-6.985-.983-6.985-.983l.001.001c-6.47-1.361-14.692-1.852-15.359 4.198 2.996 2.134 8.425 2.995 20.356-1v.004l1.572-.428-.085-.093c.454-.16.894-.31 1.367-.484M395.16552 176.53821c-.791-5.76-8.312-5.368-14.59-3.987l.005-.002s-5.796 1.272-8.269 2.136l.005.318c-.255.096-.406.155-.406.155.142.048.27.086.409.133l.001.005.765.252.015-.004c13.216 4.294 18.994 3.307 22.065.994"/></svg>