<svg xmlns="http://www.w3.org/2000/svg" data-name="Layer 1" viewBox="0 0 700 550"><path fill="#edf2fa" d="M276.49578,367.14035c-35.575,9.066-38.323,23.294-73.737,32.933-17.559,4.779-58.515,15.926-85.405-6.121-22.627-18.552-23.247-50.732-23.352-56.218-.663-34.454,15.532-42.851,38.056-94.274,11.082-25.3,12.286-41.76,19.143-73.832,5.197-24.301,20.604-46.439,45.437-61.812,39.346-24.358,85.189-9.534,92.831-7.064,38.689,12.51,42.3,34.72,74.381,56.218,73.262,49.096,138.337-10.499,196.332,32.866,38.561,28.834,57.099,90.559,38.639,136.597-21.724,54.175-91.36706,78.367-140.697,72.709-40.832-4.684-51.047-27.904-113.302-34.597-19.573-2.103-41.443-4.256-68.326,2.595"/><path fill="#afc4db" d="M216.47847,268.01038H133.9521a.5.5,0,0,1,0-1h82.52637a.5.5,0,0,1,0,1Z"/><path fill="#afc4db" d="M216.4814 268.01038H134.72261a.5.5 0 110-1H216.4814a.5.5 0 010 1zM216.47847 288.01038H133.9521a.5.5 0 010-1h82.52637a.5.5 0 010 1z"/><path fill="#afc4db" d="M166.87007 287.87366a.49971.49971 0 01-.5-.5V267.49183a.5.5 0 011 0v19.88183A.49971.49971 0 01166.87007 287.87366zM146.87007 307.82191a.49972.49972 0 01-.5-.5v-19.873a.5.5 0 011 0v19.873A.49972.49972 0 01146.87007 307.82191zM196.87007 307.82191a.49972.49972 0 01-.5-.5v-19.873a.5.5 0 011 0v19.873A.49972.49972 0 01196.87007 307.82191z"/><path fill="#afc4db" d="M215.707 308.01038H133.94819a.5.5 0 010-1H215.707a.5.5 0 010 1zM451.85054 200.42054H369.32417a.5.5 0 010-1h82.52637a.5.5 0 010 1zM492.54585 147.63636H410.02046a.5.5 0 010-1h82.52539a.5.5 0 010 1z"/><path fill="#afc4db" d="M442.93745 147.49964a.49971.49971 0 01-.5-.5V127.11781a.5.5 0 111 0v19.88183A.49971.49971 0 01442.93745 147.49964zM422.93745 167.44886a.49971.49971 0 01-.5-.5v-19.874a.5.5 0 011 0v19.874A.49971.49971 0 01422.93745 167.44886zM472.93745 167.44886a.49971.49971 0 01-.5-.5v-19.874a.5.5 0 011 0v19.874A.49971.49971 0 01472.93745 167.44886z"/><path fill="#afc4db" d="M491.77534 167.63636H410.01655a.5.5 0 010-1h81.75879a.5.5 0 010 1zM413.00093 355.04163H330.47554a.5.5 0 010-1h82.52539a.5.5 0 010 1z"/><path fill="#afc4db" d="M413.00483 355.04163H331.24605a.5.5 0 010-1h81.75878a.5.5 0 010 1zM413.00093 375.04163H330.47554a.5.5 0 010-1h82.52539a.5.5 0 010 1z"/><path fill="#afc4db" d="M363.39253 374.90491a.49971.49971 0 01-.5-.5V354.52308a.5.5 0 011 0v19.88183A.49971.49971 0 01363.39253 374.90491zM343.39253 394.85413a.49971.49971 0 01-.5-.5v-19.874a.5.5 0 011 0v19.874A.49971.49971 0 01343.39253 394.85413zM393.39253 394.85413a.49971.49971 0 01-.5-.5v-19.874a.5.5 0 011 0v19.874A.49971.49971 0 01393.39253 394.85413z"/><path fill="#afc4db" d="M412.23042,395.04163H330.47163a.5.5,0,0,1,0-1h81.75879a.5.5,0,0,1,0,1Z"/><rect width="2" height="77.344" x="305.179" y="244.804" fill="#e4ebf1" transform="rotate(-89.153 306.179 283.476)"/><rect width="2" height="77.344" x="512.564" y="313.497" fill="#e4ebf1" transform="rotate(-89.152 513.564 352.17)"/><rect width="2" height="77.344" x="212.2" y="169.515" fill="#e4ebf1" transform="rotate(-89.152 213.2 208.187)"/><rect width="2" height="30.268" x="211.495" y="240.576" fill="#e4ebf1" transform="rotate(-89.153 212.496 255.71)"/><rect width="2" height="20.184" x="216.759" y="306.531" fill="#e4ebf1" transform="rotate(-89.154 217.759 316.623)"/><rect width="2" height="17.309" x="455.592" y="233.157" fill="#e4ebf1" transform="rotate(-89.153 456.592 241.811)"/><rect width="2" height="46.374" x="469.295" y="293.017" fill="#e4ebf1" transform="rotate(-89.152 470.295 316.204)"/><rect width="2" height="19.859" x="516.253" y="306.969" fill="#e4ebf1" transform="rotate(-89.155 517.253 316.898)"/><rect width="2" height="19.859" x="373.407" y="335.969" fill="#e4ebf1" transform="rotate(-89.152 374.407 345.899)"/><rect width="2" height="36.717" x="463.754" y="345.987" fill="#e4ebf1" transform="rotate(-89.153 464.754 364.345)"/><rect width="2" height="76.28" x="190.499" y="153.421" fill="#e4ebf1" transform="rotate(-89.153 191.499 191.56)"/><path fill="#edf2fa" d="M513.56408,488.12665c0,10.522-76.05,19.053-169.863,19.053s-169.863-8.531-169.863-19.053c0-10.523,76.05-19.054,169.863-19.054s169.863,8.531,169.863,19.054"/><path fill="#e9a48a" d="M212.62949,109.733s1.44,15.12,1.26,20.34c-.18,5.221.9,12.24-9.18,11.88v8.46l-14.58-1.079s.54-9.181-1.26-13.321-9-12.06-7.02-14.219c1.98-2.161,4.86,1.079,6.841,3.96l-.361-9.541s4.321,0,5.941-1.98c1.619-1.979,3.779-1.8,5.219-1.8s3.42-1.8,3.781-4.32c.359-2.52,5.579-6.3,9.359,1.62"/><path fill="#fff" d="M281.9714,102.21946a.894.894,0,0,0,0-1.787.894.894,0,0,0,0,1.787"/><rect width="65.467" height="50.182" x="244.682" y="47.91" fill="#82c56d" transform="rotate(-9.563 277.415 73)"/><path fill="#4da258" d="M249.09629,52.32685s25.735,45.502,63.577,32.927l1.189,7.052-64.557,10.875-8.337-49.485Z"/><rect width="137.301" height="20.888" x="205.965" y="197.743" fill="#ffcc5d" transform="rotate(-9.563 274.618 208.189)"/><rect width="151.821" height="15.538" x="195.303" y="182.522" fill="#65cade" transform="rotate(-9.563 271.214 190.29)"/><rect width="98.327" height="44.578" x="257.247" y="131.59" fill="#ffcc5d" transform="rotate(-9.563 306.41 153.879)"/><rect width="111.064" height="37.191" x="226.001" y="98.014" fill="#f15b43" transform="rotate(-9.563 281.533 116.609)"/><rect width="86.355" height="1.876" x="253.783" y="132.88" fill="#f39821" transform="rotate(-9.563 296.96 133.818)"/><rect width="86.355" height="1.876" x="253.783" y="132.88" fill="#f39821" transform="rotate(-9.563 296.96 133.818)"/><rect width="111.064" height="8.845" x="225.577" y="109.674" fill="#65cade" transform="rotate(-9.563 281.11 114.097)"/><polygon fill="#82c56d" points="334.138 171.81 327.284 172.965 331.434 127.06 338.287 125.905 334.138 171.81"/><polygon fill="#4da258" points="338.113 127.836 331.259 128.991 331.434 127.061 338.288 125.905 338.113 127.836"/><polygon fill="#82c56d" points="356.536 155.473 256.952 156.235 255.82 149.521 355.405 148.759 356.536 155.473"/><polygon fill="#46c2cc" points="340.257 170.78 242.361 203.03 197.649 210.563 195.067 195.241 340.257 170.78"/><polygon fill="#f39821" points="245.329 223.713 242.536 207.135 341.255 190.503 340.578 186.484 205.184 209.294 205.904 213.565 235.796 208.528 238.547 224.856 245.329 223.713"/><path fill="#a5ddea" d="M340.66179 178.80536a6.28263 6.28263 0 002.215-2.697c.373-.879.843-1.989.331-2.64-.605-.767-2.187-.409-2.946-.106a4.30218 4.30218 0 00-2.578 3.103c-.211 1.063-.104 2.767.788 3.14.637.267 1.402-.258 2.19-.8M344.694 178.80634q-.08551 1.48655-.285 2.961c-.184 1.35-2.297 1.143-2.112-.217q.198-1.4745.285-2.96c.078-1.363 2.19-1.148 2.112.216"/><path fill="#feecaa" d="M335.18807 199.78586a6.28561 6.28561 0 002.215-2.698c.372-.878.843-1.988.33-2.639-.604-.767-2.186-.409-2.945-.106a4.3 4.3 0 00-2.578 3.103c-.211 1.063-.104 2.766.788 3.14.636.266 1.402-.258 2.19-.8M339.21938 199.78684q-.08551 1.48655-.285 2.961c-.183 1.35-2.296 1.143-2.112-.217q.19949-1.4745.285-2.96c.078-1.364 2.19-1.148 2.112.216"/><path fill="#f6978f" d="M330.8854 118.56617a6.29142 6.29142 0 002.215-2.698c.372-.879.842-1.988.33-2.639-.604-.768-2.187-.41-2.945-.106a4.29638 4.29638 0 00-2.578 3.103c-.212 1.063-.105 2.766.788 3.139.636.267 1.401-.258 2.19-.799M334.91668 118.56617q-.08551 1.48653-.285 2.961c-.183 1.35-2.297 1.143-2.112-.216q.1995-1.4745.285-2.961c.078-1.363 2.19-1.147 2.112.216"/><path fill="#bcda86" d="M300.61 52.07486a6.2755 6.2755 0 002.215-2.698c.373-.879.843-1.988.331-2.639-.604-.767-2.187-.41-2.946-.106a4.29507 4.29507 0 00-2.577 3.103c-.212 1.063-.105 2.766.788 3.14.636.266 1.401-.259 2.189-.8M304.64217 52.07584q-.08552 1.485-.285 2.96c-.184 1.35-2.297 1.144-2.112-.216q.19949-1.4745.285-2.961c.078-1.363 2.19-1.147 2.112.217"/><path fill="#fff" d="M244.08918,78.61478a1.06213,1.06213,0,0,0,1.224.87l30.951-5.214a8.90027,8.90027,0,0,0-2.644,8.276.52919.52919,0,0,0,.607.441l.005-.001a.53031.53031,0,0,0,.436-.606,8.02614,8.02614,0,0,1,3.664-8.458l2.608-.44,3.992,23.697a1.06186,1.06186,0,0,0,2.094-.354l-3.92-23.266c3.411,2.287,4.153,6.636,4.162,6.688a.53029.53029,0,0,0,.607.44l.005-.001a.52929.52929,0,0,0,.436-.605,11.98563,11.98563,0,0,0-4.209-7.132l25.763-4.341a1.06079,1.06079,0,1,0-.353-2.092l-22.467,3.784a22.66385,22.66385,0,0,0,7.539-9.173c.546-1.309,1.825-4.371.368-5.903-.7-.738-1.877-.974-3.424-.696-1.042.192-2.509.752-4.622,3.418-1.219,1.539-2.157,3.117-4.187,7.924-.239.568-.456,1.081-.652,1.551l-3.383-20.08a1.06169,1.06169,0,0,0-2.094.352l3.514,20.853c-.653-.489-1.442-1.069-2.412-1.781-4.207-3.085-5.822-3.959-7.658-4.655-3.182-1.206-4.73-.934-5.721-.564a3.65815,3.65815,0,0,0-2.583,2.353c-.464,2.063,2.204,4.036,3.344,4.879a21.81155,21.81155,0,0,0,8.996,3.708l-29.115,4.906a1.06127,1.06127,0,0,0-.871,1.222m36.278-8.537.219,1.306-.002.007-2.522.424a22.18121,22.18121,0,0,1-12.352-3.889c-.889-.658-3.252-2.405-2.939-3.793.136-.607.836-1.187,1.919-1.592.818-.305,2.122-.518,4.974.562,1.744.662,3.297,1.506,7.406,4.519,1.266.929,2.44,1.789,3.297,2.456m4.026.671-1.637.275a.95018.95018,0,0,0-.125-.277l-.226-1.35c.362-.899.816-1.973,1.298-3.113,1.981-4.693,2.881-6.215,4.041-7.678,1.891-2.388,3.121-2.876,3.98-3.033.031-.005.062-.011.092-.015a2.71689,2.71689,0,0,1,2.372.397c.979,1.031-.151,3.743-.578,4.764a22.22025,22.22025,0,0,1-9.217,10.03"/><path fill="#e4ebf1" d="M282.69109 83.87665q1.13846.489 2.309.921l2.026 12.028-2.094.354zM244.96058 77.39225h0l21.95-3.698q1.04247.906 2.136 1.793l-23.733 3.998zM274.66857 82.38056a.52977.52977 0 01-.437.606l-.004.001a.53071.53071 0 01-.608-.441 10.21351 10.21351 0 01.041-3.644q.4785.32255.964.638a9.56437 9.56437 0 00.044 2.84"/><path fill="#f15b43" d="M311.22527,146.52414s-6.854-1.899-12.862-.832-13.041.764-22.955-2.333l4.311-1.794-1.863-4.496s9.379,4.58,18.755,3.353c9.376-1.226,12.952-.627,14.284-.253Z"/><path fill="#cf2633" d="M311.22527,146.52414s-1.25-.346-3.147-.659c-.131-.26-.247-.519-.357-.77-.926-2.11.024-2.493.954-5.3a12.50453,12.50453,0,0,1,2.22.374Z"/><path fill="#f15b43" d="M349.46258,151.86106s7.111.107,12.576,2.822,12.299,4.404,22.684,4.223l-3.632-2.936,3.054-3.79s-10.289,1.755-18.941-2.06c-8.652-3.817-12.252-4.247-13.636-4.264Z"/><path fill="#cf2633" d="M351.568,145.85614a15.36234,15.36234,0,0,1,3.513.556c.21,1.96.591,2.644-.662,4.135a8.2872,8.2872,0,0,1-1.631,1.582c-1.976-.248-3.325-.268-3.325-.268Z"/><path fill="#f15b43" d="M327.33367,139.26926s-5.559-6.67-10.454-7.631c-4.895-.962-4.192.882-5.207,5.704-1.016,4.823-2.632,4.849-1.514,7.398,1.118,2.548,2.769,5.882,15.389,3.371,12.621-2.51,1.786-8.842,1.786-8.842"/><path fill="#cf2633" d="M321.4023 135.71741c-.0459-.03027-4.61524-3.01074-6.96485-2.5371l-.06836-.34766c2.48242-.50293 7.03516 2.46191 7.22656 2.58789zM311.71648 147.08365c1.587-5.831 13.844.971 13.844.971-8.684 1.727-12.158.679-13.844-.971"/><path fill="#f15b43" d="M337.71837,140.76145s7.212-4.836,12.18-4.381c4.967.455,3.774,2.027,3.39,6.94-.382,4.914,1.161,5.393-.629,7.524-1.79,2.13-4.312,4.865-15.715-1.096-11.405-5.962.774-8.987.774-8.987"/><path fill="#cf2633" d="M350.48009 152.65107c.09-4.637-7.944-3.902-11.686-3.311-1.132.18-1.872.346-1.872.346 7.846 4.102 11.475 4.074 13.558 2.965M339.46059 143.52607a6.86375 6.86375 0 004.052.18 27.505 27.505 0 00-3.039 1.751c-.541.48.084.613 2.226 1.22 0 0-3.531-.099-4.694 1.825zM325.14709 141.46946a6.85851 6.85851 0 01-3.939-.967 27.46161 27.46161 0 012.423 2.535c.384.614-.252.565-2.479.545 0 0 3.417.899 3.99 3.072z"/><path fill="#f15b43" d="M333.73308,149.56806s1.908,2.658,1.115,9.965c0,0,.931.39,2.584-2.16a7.81573,7.81573,0,0,1,2.268,2.427s.91-7.35-2.172-10.765Z"/><path fill="#cf2633" d="M339.20308,157.67933l-.35352-.00586c.001-.041.06543-4.02832-.90625-5.21582l.27344-.22461C339.27046,153.5221,339.207,157.51038,339.20308,157.67933Z"/><path fill="#f15b43" d="M329.4479,148.89615s-2.548,2.053-3.734,9.306c0,0-1.001.129-1.913-2.771a7.80033,7.80033,0,0,0-2.833,1.735s1.083-7.327,4.964-9.795Z"/><path fill="#cf2633" d="M322.35444 155.34339l-.34375-.08789c.042-.16406 1.0459-4.02637 2.4043-4.98633l.20508.28907C323.36616 151.444 322.36421 155.30433 322.35444 155.34339zM325.93227 147.37076l3.516 1.525a6.82709 6.82709 0 00-1.376 1.852 2.22891 2.22891 0 01-1.49-.318 3.93915 3.93915 0 01-1.584-2.325 6.40309 6.40309 0 01.934-.734M337.528 149.03485a6.57959 6.57959 0 01.827 1.168 3.92815 3.92815 0 01-1.602 1.301 2.95708 2.95708 0 01-2.252-.033 6.45692 6.45692 0 00-.768-1.903z"/><path fill="#f15b43" d="M336.4674,149.80924a5.30422,5.30422,0,0,0,2.595-3.241c.286-.789.96-2.645-.042-4.2a3.35251,3.35251,0,0,0-2.483-1.583c-.703-.027-.846.302-1.861.378a5.44843,5.44843,0,0,1-2.213-.318c-1.555-.533-2.301-1.126-3.404-1.457a2.73823,2.73823,0,0,0-2.81.693,5.3699,5.3699,0,0,0-1.81,4.515c.012.404.094,3.04,1.858,4.139,1.027.64,1.611.127,3.965.247,3.676.188,4.47,1.554,6.205.827"/><path fill="#cf2633" d="M324.86687 148.24094c-7.982 1.5-11.37.562-13.063-.974l-.087-.183 13.282 1.021zM350.48009 152.65107s.054.008.147.021c-1.966 1.099-5.335 1.233-12.486-2.315l.758-.399 6.577 1.417z"/><path fill="#f15b43" d="M311.22527,146.52414s-6.854-1.899-12.862-.832-13.041.764-22.955-2.333l4.311-1.794-1.863-4.496s9.379,4.58,18.755,3.353c9.376-1.226,12.952-.627,14.284-.253Z"/><path fill="#cf2633" d="M278.2116 137.92746l-.355-.858s.555.27 1.526.661zM311.22527 146.52414s-1.25-.346-3.147-.659c-.131-.26-.247-.519-.357-.77-.926-2.11.024-2.493.954-5.3a12.50453 12.50453 0 012.22.374z"/><path fill="#f15b43" d="M349.46258,151.86106s7.111.107,12.576,2.822,12.299,4.404,22.684,4.223l-3.632-2.936,3.054-3.79s-10.289,1.755-18.941-2.06c-8.652-3.817-12.252-4.247-13.636-4.264Z"/><path fill="#cf2633" d="M351.568,145.85614a15.36234,15.36234,0,0,1,3.513.556c.21,1.96.591,2.644-.662,4.135a8.2872,8.2872,0,0,1-1.631,1.582c-1.976-.248-3.325-.268-3.325-.268Z"/><path fill="#f15b43" d="M327.33367,139.26926s-5.559-6.67-10.454-7.631c-4.895-.962-4.192.882-5.207,5.704-1.016,4.823-2.632,4.849-1.514,7.398,1.118,2.548,2.769,5.882,15.389,3.371,12.621-2.51,1.786-8.842,1.786-8.842"/><path fill="#cf2633" d="M316.22918 131.52314l-3.226.543c.539-.647 1.455-.824 3.226-.543M321.4023 135.71741c-.0459-.03027-4.61524-3.01074-6.96485-2.5371l-.06836-.34766c2.48242-.50293 7.03516 2.46191 7.22656 2.58789zM311.71648 147.08365c1.587-5.831 13.844.971 13.844.971-8.684 1.727-12.158.679-13.844-.971"/><path fill="#f15b43" d="M337.71837,140.76145s7.212-4.836,12.18-4.381c4.967.455,3.774,2.027,3.39,6.94-.382,4.914,1.161,5.393-.629,7.524-1.79,2.13-4.312,4.865-15.715-1.096-11.405-5.962.774-8.987.774-8.987"/><path fill="#cf2633" d="M350.48009 152.65107c.09-4.637-7.944-3.902-11.686-3.311-1.132.18-1.872.346-1.872.346 7.846 4.102 11.475 4.074 13.558 2.965M339.46059 143.52607a6.86375 6.86375 0 004.052.18 27.505 27.505 0 00-3.039 1.751c-.541.48.084.613 2.226 1.22 0 0-3.531-.099-4.694 1.825zM325.14709 141.46946a6.85851 6.85851 0 01-3.939-.967 27.46161 27.46161 0 012.423 2.535c.384.614-.252.565-2.479.545 0 0 3.417.899 3.99 3.072z"/><path fill="#f15b43" d="M333.73308,149.56806s1.908,2.658,1.115,9.965c0,0,.931.39,2.584-2.16a7.81573,7.81573,0,0,1,2.268,2.427s.91-7.35-2.172-10.765Z"/><path fill="#cf2633" d="M339.20308,157.67933l-.35352-.00586c.001-.041.06543-4.02832-.90625-5.21582l.27344-.22461C339.27046,153.5221,339.207,157.51038,339.20308,157.67933Z"/><path fill="#f15b43" d="M329.4479,148.89615s-2.548,2.053-3.734,9.306c0,0-1.001.129-1.913-2.771a7.80033,7.80033,0,0,0-2.833,1.735s1.083-7.327,4.964-9.795Z"/><path fill="#cf2633" d="M322.35444 155.34339l-.34375-.08789c.042-.16406 1.0459-4.02637 2.4043-4.98633l.20508.28907C323.36616 151.444 322.36421 155.30433 322.35444 155.34339zM325.93227 147.37076l3.516 1.525a6.82709 6.82709 0 00-1.376 1.852 2.22891 2.22891 0 01-1.49-.318 3.93915 3.93915 0 01-1.584-2.325 6.40309 6.40309 0 01.934-.734M337.528 149.03485a6.57959 6.57959 0 01.827 1.168 3.92815 3.92815 0 01-1.602 1.301 2.95708 2.95708 0 01-2.252-.033 6.45692 6.45692 0 00-.768-1.903z"/><path fill="#f15b43" d="M336.4674,149.80924a5.30422,5.30422,0,0,0,2.595-3.241c.286-.789.96-2.645-.042-4.2a3.35251,3.35251,0,0,0-2.483-1.583c-.703-.027-.846.302-1.861.378a5.44843,5.44843,0,0,1-2.213-.318c-1.555-.533-2.301-1.126-3.404-1.457a2.73823,2.73823,0,0,0-2.81.693,5.3699,5.3699,0,0,0-1.81,4.515c.012.404.094,3.04,1.858,4.139,1.027.64,1.611.127,3.965.247,3.676.188,4.47,1.554,6.205.827"/><path fill="#cf2633" d="M324.86687 148.24094c-7.982 1.5-11.37.562-13.063-.974l-.087-.183 13.282 1.021zM350.48009 152.65107s.054.008.147.021c-1.966 1.099-5.335 1.233-12.486-2.315l.758-.399 6.577 1.417z"/><rect width="8.845" height="37.191" x="245.46" y="103.346" fill="#65cade" transform="rotate(-9.567 249.882 121.941)"/><rect width="14.152" height="36.426" x="225.43" y="189.19" fill="#f15b43" transform="rotate(-9.562 232.507 207.403)"/><path fill="#cf2633" d="M236.41959 195.19986a6.90539 6.90539 0 011.453 1.463l1.222 7.249a4.89476 4.89476 0 00-1.035-.536c-1.086 2.838-2.078 2.649-2.078 2.649-.744-7.311-3.164-9.515-3.164-9.515zM224.30338 201.30344a8.81056 8.81056 0 011.176-4.232l3.831-.105s-1.441 2.939.553 10.012c0 0-.853.54-2.907-1.701a7.2523 7.2523 0 00-1.599 2.281z"/><path fill="#cf2633" d="M232.818,196.50946a13.46548,13.46548,0,0,0-3.508.457c-1.529.479-5.971-1.388-5.971-1.388l7.984-4.441,5.67,1.856s-.682,3.632-2.143,3.933a2.01942,2.01942,0,0,1-2.032-.417"/><path fill="#f15b43" d="M223.652,186.32486s-7.306-4.646-12.246-4.072c-4.941.574-3.713,2.111-3.212,7,.5,4.887-1.027,5.403.809,7.483,1.836,2.081,4.416,4.746,15.638-1.472,11.223-6.217-.989-8.939-.989-8.939"/><path fill="#f6978f" d="M216.92183,184.77991c-.05176-.01464-5.30957-1.4541-7.40528-.29492l-.17187-.31054c2.22754-1.22754,7.45117.20312,7.67285.26367Z"/><path fill="#f15b43" d="M233.96648,184.58756s5.38-6.783,10.235-7.86c4.857-1.077,4.201.778,5.328,5.56,1.129,4.783,2.742,4.77,1.689,7.336-1.053,2.568-2.617,5.931-15.258,3.734-12.64-2.198-1.994-8.77-1.994-8.77"/><path fill="#cf2633" d="M236.50158 186.71555a6.85186 6.85186 0 003.914-1.062 27.4789 27.4789 0 00-2.361 2.593c-.369.622.265.558 2.492.485 0 0-3.394.981-3.915 3.168zM222.24178 189.11786a6.84868 6.84868 0 01-4.047.279 27.42447 27.42447 0 013.081 1.677c.553.467-.068.614-2.196 1.273 0 0 3.528-.184 4.737 1.71z"/><path fill="#f15b43" d="M232.88639,194.21555s2.627,1.951,4.099,9.151c0,0,1.005.089,1.802-2.843a7.80376,7.80376,0,0,1,2.9,1.621s-1.372-7.279-5.349-9.592Z"/><path fill="#f6978f" d="M240.22944,200.37757c-.01074-.03808-1.16406-3.85742-2.45312-4.69238l.19336-.29688c1.39648.90625,2.55078,4.72559,2.59961,4.8877Z"/><path fill="#f15b43" d="M228.60018,194.88157s-1.801,2.731-.721,10.001c0,0-.915.427-2.667-2.056a7.82887,7.82887,0,0,0-2.17,2.515s-1.2-7.309,1.745-10.843Z"/><path fill="#f15b43" d="M228.60018,194.88157s-1.801,2.731-.721,10.001c0,0-.915.427-2.667-2.056a7.82887,7.82887,0,0,0-2.17,2.515s-1.2-7.309,1.745-10.843Z"/><path fill="#f6978f" d="M223.455,203.20374c-.00977-.16894-.23145-4.15332.76953-5.48144l.2832.21289c-.92382,1.22558-.70117,5.207-.69921,5.24707Z"/><path fill="#cf2633" d="M224.278 195.21064a6.12249 6.12249 0 01.51-.711l3.812.382a6.01166 6.01166 0 00-.61 1.604 2.38032 2.38032 0 01-1.67.213 3.7458 3.7458 0 01-2.042-1.488M236.33849 192.55246a6.43 6.43 0 01.955.69 3.73439 3.73439 0 01-.989 1.387 3.26792 3.26792 0 01-2.458.656 5.49107 5.49107 0 00-.96-1.07z"/><path fill="#f15b43" d="M235.526,193.55924a5.28711,5.28711,0,0,0,1.48-3.865c.033-.837.109-2.804-1.315-3.977a3.34574,3.34574,0,0,0-2.839-.749c-.675.189-.712.544-1.652.925a5.43679,5.43679,0,0,1-2.198.37c-1.638-.034-2.528-.37-3.676-.35a2.72773,2.72773,0,0,0-2.457,1.512,5.35423,5.35423,0,0,0-.348,4.838c.135.38,1.013,2.858,3.021,3.365,1.171.296,1.57-.369,3.84-.969,3.548-.938,4.717.118,6.144-1.1"/><path fill="#cf2633" d="M235.96058 193.35715s.166-.097.453-.255a.786.786 0 01-.075-.55c.586-.335 3.988-1.322 3.988-1.322 3.647-1.488 8.413-2.654 9.45.82-1.528 1.571-4.618 2.656-12.037 1.588l.001.003-.968-.083.041-.063c-.284-.046-.558-.086-.853-.138M211.15978 198.55634c-.151-3.46 4.297-4.034 8.124-3.895l-.003-.001s3.533.127 5.074.37l.032.186c.16.029.254.048.254.048-.078.043-.148.079-.225.121v.003l-.421.23-.01-.001c-7.287 3.928-10.778 3.966-12.825 2.939M313.862 92.30536s-48.102 12.93-60.776 22.028l-1.85.312-1.931-11.464z"/><rect width="1.875" height="11.625" x="250.258" y="102.945" fill="#46c2cc" transform="rotate(-9.573 251.195 108.758)"/><rect width="17.484" height="1" x="255.714" y="75.791" fill="#303443" transform="rotate(-9.554 264.46 76.29)"/><rect width="1" height="37.191" x="253.744" y="102.611" fill="#303443" transform="rotate(-9.563 254.243 121.207)"/><rect width="38.305" height="1" x="277.328" y="155.378" fill="#303443" transform="rotate(-.56 296.481 155.879)"/><rect width="18.154" height=".999" x="279.354" y="187.353" fill="#303443" transform="rotate(-18.222 288.431 187.853)"/><polygon fill="#303443" points="244.836 223.796 241.96 206.724 249.775 205.408 249.941 206.394 243.112 207.545 245.822 223.63 244.836 223.796"/><path fill="#303443" d="M300.16792,88.04554a37.56626,37.56626,0,0,1-4.63281-.28711l.123-.99219a34.35853,34.35853,0,0,0,16.80957-1.96777l.41211.91016A33.09382,33.09382,0,0,1,300.16792,88.04554Z"/><rect width="13.257" height=".596" x="320.62" y="110.511" fill="#303443" transform="rotate(-9.617 327.249 110.809)"/><path fill="#f5f7f7" d="M204.70959,133.04364s3.24-5.761,6.12-.54c0,0-2.07,4.859-6.12.54"/><path fill="#c58877" d="M206.86979 122.51334s3.06 4.774 1.979 5.177a1.48431 1.48431 0 01-1.709 0M204.70959 146.81314s-7.92-5.04-9.36-7.92c0 0 5.04 3.502 9.36 3.06z"/><path fill="#303443" d="M200.57 123.06705a1.5009 1.5009 0 000-3 1.5009 1.5009 0 000 3M210.82969 122.34635a1.50088 1.50088 0 000-3 1.50088 1.50088 0 000 3"/><path fill="#cf2633" d="M204.61117,133.055a4.15122,4.15122,0,0,1,.078-.643,3.85156,3.85156,0,0,1,.164-.545,4.14905,4.14905,0,0,1,.551-1,2.94324,2.94324,0,0,1,2.1-1.281,3.04362,3.04362,0,0,1,.701.072,4.18111,4.18111,0,0,1,.628.259l.513.359.423.39c.3.23.507.519.805.755.243.263.513.519.793.786l.105.099-.078.438a3.97017,3.97017,0,0,1-1.03,2.025,3.15246,3.15246,0,0,1-2.324,1.115,3.48792,3.48792,0,0,1-2.27-.943,6.31929,6.31929,0,0,1-.705-.862,3.42386,3.42386,0,0,1-.454-1.024m.198-.024a5.98138,5.98138,0,0,0,.935.309c.279.078.578.195.838.283a3.51432,3.51432,0,0,0,1.363.141,2.61549,2.61549,0,0,0,1.117-.422,11.47333,11.47333,0,0,0,1.203-1.08l.027.538a8.1635,8.1635,0,0,0-.308-.939,2.419,2.419,0,0,0-.604-.721,1.934,1.934,0,0,0-.4-.214c-.149-.028-.297-.029-.429-.043-.139.022-.268.078-.38.105-.114.052-.218.13-.314.173-.375.25-.842.473-1.344.829-.255.167-.514.354-.8.537-.133.098-.286.188-.434.284l-.235.142c-.076.034-.168.132-.235.078"/><path fill="#303443" d="M188.86979,136.01334c-1.8-4.141-9-12.061-7.021-14.22,1.981-2.16,4.861,1.079,6.841,3.96l-.082-2.155a9.16375,9.16375,0,0,1,4.512-8.447,3.86672,3.86672,0,0,0,1.15-.918c1.62-1.98,3.78-1.8,5.22-1.8s3.42-1.8,3.78-4.32,5.579-6.3,9.36,1.62c0,0,1.98-15.84-20.7-14.401-22.68,1.441-17.28,24.301-14.94,27.181,2.339,2.879,12.067,13.282,12.445,15.243a10.87779,10.87779,0,0,0-.565-1.743"/><path fill="#303443" d="M174.70278,109.733s-6.893,3.24-5.813,12.96,10.08,24.66,7.2,31.68-7.02,10.44-13.14,11.7c0,0,6.66-11.52,4.14-17.1s-9.72-19.08-6.66-29.52,11.814-13.394,15.267-13.447c0,0,3.379,2.107-.994,3.727"/><path fill="#ffcc5d" d="M190.12949,149.33365a12.84918,12.84918,0,0,0-2.34,7.739l22.231-.809s-1.531-4.321-5.311-5.851Z"/><path fill="#82c56d" d="M198.9,153.20285s11.39-.449,18.59,10.891c7.2,11.339,23.58,46.979,23.58,46.979l41.04-5.58s2.52,9,1.08,12.601c0,0-23.4,11.7-46.261,15.12,0,0-4.859,1.26-8.639-5.221l-28.26,1.62s-12.42-24.66-14.22-28.979c-1.801-4.321-9.721-29.521,1.98-43.561a18.06777,18.06777,0,0,1,11.11-3.87"/><polygon fill="#4da258" points="228.29 227.993 200.57 179.393 220.109 228.463 228.29 227.993"/><rect width="1.001" height="22.058" x="220.521" y="204.221" fill="#303443" transform="rotate(-29.7 221.02 215.25)"/><path fill="#f15b43" d="M228.28968,227.99286l-28.26,1.62a70.63754,70.63754,0,0,1-3.96,18.54c-3.36,8.641-9.24,35.76,1.98,63.12,0,0,3.54,28.8-.3,55.68s-5.64,81.54-4.2,90h30.24s10.8-62.64,14.4-96.48c3.6-33.839,16.2-100.08-1.26-127.259,0,0-4.86,1.259-8.64-5.221"/><path fill="#e9a48a" d="M200.38929,456.95285s.54,8.641-1.079,11.881c-1.62,3.239-5.04,14.76-1.441,20.159h55.441s-2.521-6.12-12.421-6.659a21.04224,21.04224,0,0,1-12.59-5.589,12.117,12.117,0,0,1-3.966-7.652l-1.444-12.14Z"/><path fill="#f15b43" d="M197.86979,488.99285h55.44s-2.52-6.12-12.42-6.66c-22.5,4.32-41.58-13.5-41.58-13.5l-2.471,8.088c-.801,4.278-.95,9.1,1.031,12.072"/><path fill="#303443" d="M228.75776,483.20277a52.03392,52.03392,0,0,1-18.49023-6.17286l.47656-.8789a51.04713,51.04713,0,0,0,18.13477,6.05957Z"/><path fill="#e9a48a" d="M302.36,208.18714c-3.96-1.625-1.17-4.224.72-6.114,1.889-1.89,10.53-4.77,3.331-5.22s-24.301,8.64-24.301,8.64,2.321,8.316,1.217,12.154l.009.011c1.405-1.696,7.774-1.725,9.124-1.725s5.31,2.52,6.48,2.97,18.63-2.79,19.8-3.42-12.42-5.67-16.38-7.296"/><path fill="#c58877" d="M312.0075 215.22525l-3.854-1.63-7.676-3.361 7.349 4.037 3.704 1.974q.606.31349 1.212.624c.804-.158 1.567-.312 2.264-.457-.998-.375-2.002-.777-2.999-1.187M309.6589 217.45084a15.51037 15.51037 0 01-2.35-.835c-.75-.295-1.498-.616-2.243-.944q-2.23348-.9945-4.435-2.085 2.01 1.40848 4.08 2.745c.693.442 1.39.879 2.108 1.297.148.083.293.165.439.247.726-.125 1.464-.256 2.198-.389zM304.73208 218.29364l-4.845-1.446 2.646 1.775c.326-.045.668-.095 1.021-.147z"/><path fill="#f15b43" d="M185.98989,133.79364c3.86,0,3.867-6,0-6-3.861,0-3.867,6,0,6"/><path fill="#cf2633" d="M228.28968,227.99286l-8.181.47s7.281,10.69,16.821,4.751c0,0-4.86,1.259-8.64-5.221"/><path fill="#c58877" d="M200.34629,463.84935v.001l22.543-6.897h-22.5a57.18123,57.18123,0,0,1-.043,6.896"/><path fill="#cf2633" d="M198.04949,311.27315s3.54,28.8-.3,55.68-5.639,81.54-4.2,90h6.84s3.6-63.36,7.296-93.6c3.695-30.24-9.636-52.08-9.636-52.08"/><path fill="#303443" d="M208.18159,363.4137l-.99219-.12109c3.62891-29.70605-9.43554-51.542-9.56738-51.75879l.85352-.52148C198.60933,311.23206,211.85444,333.34827,208.18159,363.4137Z"/><path fill="#f15b43" d="M400.2546 469.073s1.5 4.86-23.34 13.681c0 0-12.96 2.34-12.421 5.04.468 2.338 39.139.626 49.494.126a2.65842 2.65842 0 002.527-2.661V468.488zM490.4616 462.53975c-1.657 1.761-4.291 3.299-8.487 3.613a16.54852 16.54852 0 01-8.183-1.215l-.014.002s-4.164 21.715-3.624 23.334c.454 1.358 17.235.438 22.641.106a1.35272 1.35272 0 001.072-1.818 78.01181 78.01181 0 01-3.405-24.022"/><path fill="#ffcc5d" d="M425.02019,239.88935s-18.046,149.504-24.766,229.184l17.355-.585a12.18332,12.18332,0,0,0,11.487-9.559c3.5-15.857,10.237-49.801,12.078-83.456,0,0,12.96-57.96,15.84-72,0,0,10.8,82.8,11.52,158.76,0,0,2.64,6.24,13.44,5.52s11.28-8.64,11.28-8.64,9.139-218.418-3.651-221.589Z"/><path fill="#f39821" d="M495.652,275.39814c-.915-21.963-2.755-37.058-6.049-37.874l-21.442.785s8.41,27.014,27.491,37.089"/><path fill="#303443" d="M495.41792,275.84046c-9.96387-5.26074-16.97559-15.15039-21.10352-22.52051l.87305-.48828c4.06152,7.252,10.94922,16.97754,20.69727,22.124Z"/><polygon fill="#f39821" points="457.014 303.473 454.254 275.398 451.705 328.026 457.014 303.473"/><path fill="#f15b43" d="M404.33459,200.99286s8.159-52.319,13.68-60c5.519-7.68,17.28-16.08,36.12-17.159,18.84-1.08,22.2-2.761,36.84,0,14.639,2.76,21.839,6.359,26.16,19.319,4.32,12.96,10.32,38.401,10.32,38.401s-16.801,2.16-27.6,1.679l-3.361,3.84.54,37.97a13.85631,13.85631,0,0,1-12.526,13.995c-14.461,1.386-38.171,3.278-54.379,2.631a9.22944,9.22944,0,0,1-8.872-9.824l2.517-37.572Z"/><path fill="#cf2633" d="M499.85418,183.233s-5.76-24.66-7.2-26.28l3.84,30.12Z"/><path fill="#e9a48a" d="M448.194,80.09345s-2.16,32.58,1.44,34.56,4.5,1.259,4.5,1.259v13.245a5.79251,5.79251,0,0,0,8.943,4.858,93.18483,93.18483,0,0,0,9.236-6.613,6.2404,6.2404,0,0,0,2.161-4.75v-21.859s5.22-8.1,1.26-11.341c-3.96-3.239-5.399,5.401-5.76,10.62a10.02338,10.02338,0,0,1-2.16-5.939c0-3.42-.18-14.94-.18-14.94s-18.54,6.66-19.44.9"/><path fill="#c58877" d="M454.85418,93.613s-2.52,3.42-1.26,5.221a1.42851,1.42851,0,0,0,2.52,0"/><path fill="#303443" d="M451.79458 102.77314h5.76s-2.7 5.4-5.76 0M461.694 92.21357a1.50088 1.50088 0 000-3 1.50088 1.50088 0 000 3M451.2546 92.57294a1.5009 1.5009 0 000-3 1.5009 1.5009 0 000 3"/><path fill="#c58877" d="M454.13439,115.91275s9.359-1.079,13.14-5.399c0,0-5.94,15.479-13.14,13.32Z"/><path fill="#303443" d="M477.21837,71.81314c-2.477-2.88-13.364-3.6-22.541-.9-9.176,2.7-6.483,9.18-6.483,9.18l1.676,1.899c4.748,1.875,17.764-2.799,17.764-2.799s.18,11.52.18,14.94a10.02807,10.02807,0,0,0,2.16,5.94c.36-5.22,1.8-13.86,5.76-10.62,2.351,1.924,1.463,5.553.357,8.191l.006-.011c4.684-8.38,3.597-22.94,1.121-25.82"/><path fill="#e9a48a" d="M404.33459,200.99286s-2.4,13.92,5.04,16.32c7.439,2.401,14.64,1.441,22.08-3.599,0,0,8.52.359,8.76-2.04l.24-2.401h-31.08Z"/><path fill="#c58877" d="M425.45379 213.19016a65.00039 65.00039 0 00-8.767 1.301 64.77791 64.77791 0 018.792-.485 44.50127 44.50127 0 014.964.359c.337-.212.674-.423 1.012-.652 0 0 1.314.053 2.923-.024l.855-.052a32.06828 32.06828 0 00-9.779-.447M423.34048 215.50455l3.476.83c.63-.288 1.262-.596 1.895-.942z"/><polygon fill="#ffcc5d" points="404.335 200.993 405.339 146.832 477.32 146.832 477.32 209.273 409.375 209.273 404.335 200.993"/><path fill="#e9a48a" d="M499.85418,183.233v4.74l-18-9.78v-11.672a2.98582,2.98582,0,0,0-2.086-2.847l-13.874-4.38s-.96,9.629.75,11.25c1.71,1.619,10.71,6.119,10.8,8.189s-.18,11.61-.18,11.61l19.585,17.137,18.181,15.539c8.118,5.739,17.725-4.475,15.784-14.225l-4.648-27.084Z"/><polygon fill="#c58877" points="499.854 187.973 522.534 197.633 499.854 183.233 499.854 187.973"/><polygon fill="#c58877" points="481.854 178.193 481.854 183.233 485.25 180.038 481.854 178.193"/><path fill="#c58877" d="M475.15789 169.60715c-1.122-.564-2.255-1.104-3.392-1.637-2.034-.951-4.081-1.868-6.137-2.775.006.532.025 1.058.056 1.568 1.934.628 3.868 1.26 5.788 1.927 1.182.411 2.361.829 3.529 1.273a23.44267 23.44267 0 013.425 1.51 23.65868 23.65868 0 00-3.269-1.866M479.42449 168.158a5.38508 5.38508 0 00-1.633-1.157c-.589-.323-1.187-.629-1.79-.925-1.205-.591-2.423-1.155-3.645-1.707-2.197-.99-4.406-1.942-6.627-2.878-.028.464-.051.98-.071 1.522 2.144.669 4.285 1.357 6.412 2.079 1.265.429 2.527.871 3.777 1.34.625.236 1.246.48 1.859.743a5.34255 5.34255 0 011.718.983"/><rect width="62.443" height="8" x="391.362" y="174.052" fill="#82c56d" transform="rotate(-89.664 422.583 178.052)"/><rect width="72.755" height="8" x="404.462" y="190.068" fill="#82c56d"/><path fill="#cf2633" d="M457.61,146.83176s4.62-4.032,5.52-4.752a14.40467,14.40467,0,0,1,0,4.752Z"/><path fill="#f15b43" d="M408.42937,173.68814a28.82052,28.82052,0,0,0-9.509,5.428c-3.761,3.568-8.889,6.644-17.368,9.088l2.217-3.29-3.425-2.317s8.793-1.14,14.868-6.397c6.074-5.258,8.89-6.505,10.01-6.864Z"/><path fill="#cf2633" d="M380.99868 183.03974l-.654-.442s.521-.068 1.391-.245zM408.42937 173.68814s-1.048.34-2.54 1.005c-.214-.123-.417-.252-.612-.379-1.645-1.063-1.151-1.778-1.804-4.204a10.56764 10.56764 0 011.749-.774z"/><path fill="#f15b43" d="M438.03969,159.57975a28.85055,28.85055,0,0,1,10.237-3.884c5.146-.632,10.782-2.633,18.06-7.619l-3.948-.383.391-4.115s-6.473,6.059-14.394,7.4c-7.92,1.343-10.674,2.723-11.663,3.358Z"/><path fill="#cf2633" d="M436.72228,154.33664a13.0418,13.0418,0,0,1,2.751-1.25c1.066,1.292,1.656,1.6,1.466,3.243a7.05206,7.05206,0,0,1-.417,1.885c-1.516.748-2.483,1.365-2.483,1.365Z"/><path fill="#f15b43" d="M416.45769,161.00657s-7.063-2.129-10.984-.52c-3.92,1.609-2.56,2.587-1.023,6.482,1.537,3.894.403,4.67,2.388,5.953,1.984,1.283,4.716,2.876,12.489-4.811,7.775-7.685-2.87-7.104-2.87-7.104"/><path fill="#cf2633" d="M404.95769 160.70966l-2.032 1.895c.079-.711.645-1.266 2.032-1.895M404.46382 162.7223l-.21094-.21485c1.53613-1.51562 6.13965-1.54492 6.335-1.54492v.30078C410.54194 161.26331 405.913 161.29261 404.46382 162.7223zM409.03969 173.85514c-1.603-4.878 10.271-5.79 10.271-5.79-5.349 5.288-8.303 6.171-10.271 5.79"/><path fill="#f15b43" d="M424.51818,157.20475s2.851-6.804,6.586-8.805c3.735-2.002,3.625-.33,5.652,3.334,2.028,3.663,3.347,3.281,3.075,5.629-.273,2.348-.782,5.468-11.657,6.577-10.876,1.109-3.656-6.735-3.656-6.735"/><path fill="#cf2633" d="M439.13048 159.66474c-2.105-3.331-7.459.949-9.835 3.12-.719.657-1.165 1.121-1.165 1.121 7.482-.762 10.042-2.48 11-4.241M427.04748 158.34934a5.8156 5.8156 0 002.957-1.768 23.41069 23.41069 0 00-1.336 2.664c-.158.593.347.395 2.15-.176 0 0-2.55 1.582-2.474 3.49zM415.93618 163.58954a5.82875 5.82875 0 01-3.246 1.157 23.30042 23.30042 0 012.905.664c.559.255.085.519-1.504 1.547 0 0 2.844-.962 4.268.311z"/><path fill="#f15b43" d="M425.81307,165.31415s2.597.992,5.454,6.543c0,0,.843-.157.821-2.739a6.612,6.612,0,0,1,2.744.66s-2.793-5.639-6.578-6.617Z"/><path fill="#cf2633" d="M433.23433,168.66663c-.01856-.02832-1.83985-2.88574-3.084-3.27343l.08985-.28711c1.34863.41992,3.17089,3.27832,3.248,3.40039Z"/><path fill="#f15b43" d="M422.46059,166.84244s-.847,2.648,1.707,8.346c0,0-.649.559-2.653-1.069a6.6306,6.6306,0,0,0-1.198,2.555s-2.66-5.702-1.062-9.269Z"/><path fill="#cf2633" d="M420.163 174.83167c-.04688-.13574-1.14258-3.34277-.62891-4.66113l.28125.10937c-.47461 1.21583.62109 4.42188.63281 4.45411zM419.2546 167.406l3.206-.563a5.81105 5.81105 0 00-.109 1.957 1.88749 1.88749 0 01-1.205.471 3.343 3.343 0 01-2.211-.907 5.3819 5.3819 0 01.319-.958M428.2546 163.16086a5.58348 5.58348 0 011.133.44 3.31676 3.31676 0 01-.528 1.672 2.50822 2.50822 0 01-1.612 1.032 5.448 5.448 0 00-1.434-.991z"/><path fill="#f15b43" d="M427.86489,164.20575a4.50566,4.50566,0,0,0,.323-3.513,4.03469,4.03469,0,0,0-1.995-2.958,2.852,2.852,0,0,0-2.501.039c-.511.311-.458.611-1.142,1.139a4.63372,4.63372,0,0,1-1.718.811c-1.352.349-2.158.278-3.096.559a2.328,2.328,0,0,0-1.668,1.807,4.56257,4.56257,0,0,0,.829,4.049c.198.28,1.49,2.111,3.254,2.064,1.028-.026,1.202-.664,2.928-1.68,2.693-1.587,3.896-.99,4.786-2.317"/><path fill="#cf2633" d="M418.90587 168.52115c-4.958 4.8-7.799 5.719-9.719 5.423l-.147-.09 9.895-5.49zM439.13048 159.66474s.042-.021.115-.055c-.881 1.701-3.207 3.371-9.937 4.201l.35-.637 5.326-2.073z"/><path fill="#f39821" d="M466.64419,170.54364s11.006,27.383,10.676,38.729v-34.347Z"/><path fill="#4da258" d="M475.76629,198.06806h1.561v-8h-3.827c.837,2.677,1.62,5.396,2.266,8"/><rect width="1.665" height="8" x="426.514" y="190.068" fill="#4da258"/><rect width="1.665" height="8" x="416.687" y="190.068" fill="#4da258"/><rect width="1" height="62.293" x="462.148" y="327.902" fill="#303443" transform="rotate(-5.117 462.648 359.048)"/><rect width="1" height="33.483" x="426.015" y="167.509" fill="#303443"/><rect width="16.889" height="1" x="510.582" y="181.582" fill="#303443" transform="rotate(-3.583 519.027 182.082)"/><rect width="13.349" height="1.001" x="401.425" y="468.348" fill="#303443" transform="rotate(-1.9 408.169 468.908)"/><rect width="14.67" height="1" x="415.525" y="146.332" fill="#303443"/></svg>